<svg width="667" height="375" viewBox="0 0 667 375" fill="none" xmlns="http://www.w3.org/2000/svg">
<circle opacity="0.4" cx="548.481" cy="368.819" r="2.18182" fill="white"/>
<circle opacity="0.4" cx="16.1179" cy="329.545" r="2.18182" fill="white"/>
<circle cx="116.481" cy="355.727" r="2.18182" fill="white"/>
<circle cx="116.481" cy="355.727" r="2.18182" fill="white"/>
<circle cx="116.481" cy="355.727" r="2.18182" fill="white"/>
<circle cx="116.481" cy="355.727" r="2.18182" fill="white"/>
<circle cx="195.027" cy="355.727" r="2.18182" fill="white"/>
<circle cx="273.572" cy="355.727" r="2.18182" fill="white"/>
<circle cx="312.845" cy="355.727" r="2.18182" fill="white"/>
<circle cx="391.39" cy="355.727" r="2.18182" fill="white"/>
<circle cx="430.663" cy="355.727" r="2.18182" fill="white"/>
<circle cx="469.936" cy="338.273" r="2.18182" fill="white"/>
<circle cx="509.208" cy="355.727" r="2.18182" fill="white"/>
<circle cx="548.481" cy="355.727" r="2.18182" fill="white"/>
<circle cx="548.481" cy="355.727" r="2.18182" fill="white"/>
<circle cx="548.481" cy="355.727" r="2.18182" fill="white"/>
<circle cx="548.481" cy="355.727" r="2.18182" fill="white"/>
<circle cx="587.754" cy="355.727" r="2.18182" fill="white"/>
<circle cx="627.027" cy="355.727" r="2.18182" fill="white"/>
<circle cx="666.299" cy="355.727" r="2.18182" fill="white"/>
<circle cx="-1.33722" cy="316.454" r="2.18182" fill="white"/>
<circle cx="37.9357" cy="316.454" r="2.18182" fill="white"/>
<circle cx="77.2082" cy="316.454" r="2.18182" fill="white"/>
<circle cx="116.481" cy="316.454" r="2.18182" fill="white"/>
<circle cx="116.481" cy="316.454" r="2.18182" fill="white"/>
<circle cx="116.481" cy="316.454" r="2.18182" fill="white"/>
<circle cx="116.481" cy="316.454" r="2.18182" fill="white"/>
<circle cx="195.027" cy="316.454" r="2.18182" fill="white"/>
<circle cx="176.117" cy="316.454" r="2.18182" fill="white"/>
<circle cx="469.936" cy="316.454" r="2.18182" fill="white"/>
<circle cx="509.208" cy="316.454" r="2.18182" fill="white"/>
<circle cx="548.481" cy="316.454" r="2.18182" fill="white"/>
<circle cx="548.481" cy="316.454" r="2.18182" fill="white"/>
<circle cx="548.481" cy="316.454" r="2.18182" fill="white"/>
<circle cx="548.481" cy="316.454" r="2.18182" fill="white"/>
<circle cx="613.936" cy="316.454" r="2.18182" fill="white"/>
<circle cx="627.027" cy="316.454" r="2.18182" fill="white"/>
<circle cx="666.299" cy="316.454" r="2.18182" fill="white"/>
<circle cx="-1.33722" cy="277.182" r="2.18182" fill="white"/>
<circle cx="37.9357" cy="277.182" r="2.18182" fill="white"/>
<circle cx="77.2082" cy="277.182" r="2.18182" fill="white"/>
<circle cx="116.481" cy="277.182" r="2.18182" fill="white"/>
<circle cx="116.481" cy="277.182" r="2.18182" fill="white"/>
<circle cx="116.481" cy="277.182" r="2.18182" fill="white"/>
<circle cx="116.481" cy="277.182" r="2.18182" fill="white"/>
<circle cx="195.027" cy="277.182" r="2.18182" fill="white"/>
<circle cx="234.299" cy="277.182" r="2.18182" fill="white"/>
<circle cx="273.572" cy="277.182" r="2.18182" fill="white"/>
<circle cx="391.39" cy="277.182" r="2.18182" fill="white"/>
<circle cx="430.663" cy="277.182" r="2.18182" fill="white"/>
<circle cx="469.936" cy="277.182" r="2.18182" fill="white"/>
<circle cx="509.208" cy="277.182" r="2.18182" fill="white"/>
<circle cx="-1.33722" cy="237.908" r="2.18182" fill="white"/>
<circle cx="37.9357" cy="237.908" r="2.18182" fill="white"/>
<circle cx="77.2082" cy="237.908" r="2.18182" fill="white"/>
<circle cx="116.481" cy="237.908" r="2.18182" fill="white"/>
<circle cx="116.481" cy="237.908" r="2.18182" fill="white"/>
<circle cx="116.481" cy="237.908" r="2.18182" fill="white"/>
<circle cx="116.481" cy="237.908" r="2.18182" fill="white"/>
<circle opacity="0.7" cx="155.754" cy="237.908" r="2.18182" fill="white" fill-opacity="0.5"/>
<circle cx="195.027" cy="237.908" r="2.18182" fill="white"/>
<circle cx="234.299" cy="237.908" r="2.18182" fill="white"/>
<circle opacity="0.4" cx="273.572" cy="212.818" r="2.18182" fill="white"/>
<circle cx="430.663" cy="237.908" r="2.18182" fill="white"/>
<circle cx="487.39" cy="237.908" r="2.18182" fill="white"/>
<circle cx="509.208" cy="237.908" r="2.18182" fill="white"/>
<circle cx="548.481" cy="237.908" r="2.18182" fill="white"/>
<circle cx="548.481" cy="237.908" r="2.18182" fill="white"/>
<circle cx="548.481" cy="237.908" r="2.18182" fill="white"/>
<circle cx="548.481" cy="237.908" r="2.18182" fill="white"/>
<circle cx="587.754" cy="237.908" r="2.18182" fill="white"/>
<circle cx="627.027" cy="237.908" r="2.18182" fill="white"/>
<circle cx="666.299" cy="237.908" r="2.18182" fill="white"/>
<circle cx="-1.33722" cy="198.636" r="2.18182" fill="white"/>
<circle cx="37.9357" cy="198.636" r="2.18182" fill="white"/>
<circle cx="77.2082" cy="198.636" r="2.18182" fill="white"/>
<circle cx="116.481" cy="198.636" r="2.18182" fill="white"/>
<circle cx="116.481" cy="198.636" r="2.18182" fill="white"/>
<circle cx="155.754" cy="198.636" r="2.18182" fill="white"/>
<circle cx="195.027" cy="198.636" r="2.18182" fill="white"/>
<circle cx="234.299" cy="198.636" r="2.18182" fill="white"/>
<circle cx="273.572" cy="198.636" r="2.18182" fill="white"/>
<circle cx="312.845" cy="198.636" r="2.18182" fill="white"/>
<circle cx="352.117" cy="198.636" r="2.18182" fill="white"/>
<circle cx="391.39" cy="198.636" r="2.18182" fill="white"/>
<circle cx="430.663" cy="198.636" r="2.18182" fill="white"/>
<circle cx="469.936" cy="198.636" r="2.18182" fill="white"/>
<circle cx="509.208" cy="198.636" r="2.18182" fill="white"/>
<circle cx="548.481" cy="198.636" r="2.18182" fill="white"/>
<circle cx="548.481" cy="198.636" r="2.18182" fill="white"/>
<circle cx="548.481" cy="198.636" r="2.18182" fill="white"/>
<circle cx="548.481" cy="198.636" r="2.18182" fill="white"/>
<circle cx="587.754" cy="198.636" r="2.18182" fill="white"/>
<circle opacity="0.4" cx="627.027" cy="172.454" r="2.18182" fill="white"/>
<circle cx="666.299" cy="198.636" r="2.18182" fill="white"/>
<circle cx="-1.33722" cy="159.363" r="2.18182" fill="white"/>
<circle cx="37.9357" cy="159.363" r="2.18182" fill="white"/>
<circle cx="77.2082" cy="159.363" r="2.18182" fill="white"/>
<circle cx="116.481" cy="159.363" r="2.18182" fill="white"/>
<circle cx="116.481" cy="159.363" r="2.18182" fill="white"/>
<circle cx="116.481" cy="159.363" r="2.18182" fill="white"/>
<circle cx="116.481" cy="159.363" r="2.18182" fill="white"/>
<circle cx="155.754" cy="159.363" r="2.18182" fill="white"/>
<circle cx="195.027" cy="159.363" r="2.18182" fill="white"/>
<circle cx="234.299" cy="159.363" r="2.18182" fill="white"/>
<circle cx="273.572" cy="159.363" r="2.18182" fill="white"/>
<circle opacity="0.7" cx="312.845" cy="159.363" r="2.18182" fill="white" fill-opacity="0.5"/>
<circle cx="352.117" cy="159.363" r="2.18182" fill="white"/>
<circle cx="391.39" cy="159.363" r="2.18182" fill="white"/>
<circle cx="430.663" cy="159.363" r="2.18182" fill="white"/>
<circle cx="469.936" cy="159.363" r="2.18182" fill="white"/>
<circle cx="509.208" cy="159.363" r="2.18182" fill="white"/>
<circle cx="548.481" cy="159.363" r="2.18182" fill="white"/>
<circle cx="548.481" cy="159.363" r="2.18182" fill="white"/>
<circle cx="548.481" cy="159.363" r="2.18182" fill="white"/>
<circle cx="587.754" cy="159.363" r="2.18182" fill="white"/>
<circle cx="627.027" cy="159.363" r="2.18182" fill="white"/>
<circle cx="666.299" cy="159.363" r="2.18182" fill="white"/>
<circle cx="-1.33722" cy="120.091" r="2.18182" fill="white"/>
<circle cx="37.9357" cy="120.091" r="2.18182" fill="white"/>
<circle cx="77.2082" cy="120.091" r="2.18182" fill="white"/>
<circle cx="116.481" cy="120.091" r="2.18182" fill="white"/>
<circle cx="116.481" cy="120.091" r="2.18182" fill="white"/>
<circle cx="116.481" cy="120.091" r="2.18182" fill="white"/>
<circle cx="116.481" cy="120.091" r="2.18182" fill="white"/>
<circle cx="155.754" cy="120.091" r="2.18182" fill="white"/>
<circle cx="195.027" cy="120.091" r="2.18182" fill="white"/>
<circle cx="234.299" cy="120.091" r="2.18182" fill="white"/>
<circle cx="299.754" cy="120.091" r="2.18182" fill="white"/>
<circle cx="312.845" cy="120.091" r="2.18182" fill="white"/>
<circle cx="352.117" cy="120.091" r="2.18182" fill="white"/>
<circle cx="391.39" cy="120.091" r="2.18182" fill="white"/>
<circle cx="469.936" cy="120.091" r="2.18182" fill="white"/>
<circle cx="509.208" cy="120.091" r="2.18182" fill="white"/>
<circle cx="548.481" cy="120.091" r="2.18182" fill="white"/>
<circle cx="548.481" cy="120.091" r="2.18182" fill="white"/>
<circle cx="548.481" cy="120.091" r="2.18182" fill="white"/>
<circle cx="548.481" cy="120.091" r="2.18182" fill="white"/>
<circle opacity="0.4" cx="653.209" cy="93.9094" r="2.18182" fill="white"/>
<circle cx="666.299" cy="120.091" r="2.18182" fill="white"/>
<circle cx="-1.33722" cy="80.8176" r="2.18182" fill="white"/>
<circle cx="37.9357" cy="80.8176" r="2.18182" fill="white"/>
<circle cx="77.2082" cy="80.8176" r="2.18182" fill="white"/>
<circle cx="116.481" cy="80.8176" r="2.18182" fill="white"/>
<circle cx="116.481" cy="80.8176" r="2.18182" fill="white"/>
<circle cx="116.481" cy="80.8176" r="2.18182" fill="white"/>
<circle cx="116.481" cy="80.8176" r="2.18182" fill="white"/>
<circle cx="155.754" cy="80.8176" r="2.18182" fill="white"/>
<circle opacity="0.4" cx="195.027" cy="55.7267" r="2.18182" fill="white"/>
<circle cx="234.299" cy="80.8176" r="2.18182" fill="white"/>
<circle cx="273.572" cy="80.8176" r="2.18182" fill="white"/>
<circle cx="312.845" cy="80.8176" r="2.18182" fill="white"/>
<circle cx="352.117" cy="80.8176" r="2.18182" fill="white"/>
<circle cx="391.39" cy="80.8176" r="2.18182" fill="white"/>
<circle cx="548.481" cy="80.8176" r="2.18182" fill="white"/>
<circle cx="548.481" cy="80.8176" r="2.18182" fill="white"/>
<circle cx="548.481" cy="80.8176" r="2.18182" fill="white"/>
<circle cx="548.481" cy="80.8176" r="2.18182" fill="white"/>
<circle cx="627.027" cy="80.8176" r="2.18182" fill="white"/>
<circle cx="666.299" cy="80.8176" r="2.18182" fill="white"/>
<circle cx="-1.33722" cy="41.5451" r="2.18182" fill="white"/>
<circle cx="37.9357" cy="41.5451" r="2.18182" fill="white"/>
<circle cx="77.2082" cy="41.5451" r="2.18182" fill="white"/>
<circle cx="116.481" cy="41.5451" r="2.18182" fill="white"/>
<circle cx="116.481" cy="41.5451" r="2.18182" fill="white"/>
<circle cx="116.481" cy="41.5451" r="2.18182" fill="white"/>
<circle cx="116.481" cy="41.5451" r="2.18182" fill="white"/>
<circle cx="155.754" cy="41.5451" r="2.18182" fill="white"/>
<circle cx="195.027" cy="41.5451" r="2.18182" fill="white"/>
<circle cx="234.299" cy="41.5451" r="2.18182" fill="white"/>
<circle cx="273.572" cy="41.5451" r="2.18182" fill="white"/>
<circle cx="312.845" cy="41.5451" r="2.18182" fill="white"/>
<circle cx="352.117" cy="41.5451" r="2.18182" fill="white"/>
<circle cx="391.39" cy="41.5451" r="2.18182" fill="white"/>
<circle cx="430.663" cy="41.5451" r="2.18182" fill="white"/>
<circle cx="469.936" cy="41.5451" r="2.18182" fill="white"/>
<circle cx="509.208" cy="41.5451" r="2.18182" fill="white"/>
<circle cx="548.481" cy="41.5451" r="2.18182" fill="white"/>
<circle cx="548.481" cy="41.5451" r="2.18182" fill="white"/>
<circle cx="548.481" cy="41.5451" r="2.18182" fill="white"/>
<circle cx="548.481" cy="41.5451" r="2.18182" fill="white"/>
<circle cx="587.754" cy="41.5451" r="2.18182" fill="white"/>
<circle cx="-1.33722" cy="2.27264" r="2.18182" fill="white"/>
<circle cx="37.9357" cy="2.27264" r="2.18182" fill="white"/>
<circle cx="77.2082" cy="2.27264" r="2.18182" fill="white"/>
<circle cx="116.481" cy="2.27264" r="2.18182" fill="white"/>
<circle cx="116.481" cy="2.27264" r="2.18182" fill="white"/>
<circle cx="116.481" cy="2.27264" r="2.18182" fill="white"/>
<circle cx="116.481" cy="2.27264" r="2.18182" fill="white"/>
<circle cx="155.754" cy="2.27264" r="2.18182" fill="white"/>
<circle cx="195.027" cy="2.27264" r="2.18182" fill="white"/>
<circle cx="234.299" cy="2.27264" r="2.18182" fill="white"/>
<circle cx="273.572" cy="2.27264" r="2.18182" fill="white"/>
<circle cx="312.845" cy="2.27264" r="2.18182" fill="white"/>
<circle cx="352.117" cy="2.27264" r="2.18182" fill="white"/>
<circle cx="391.39" cy="2.27264" r="2.18182" fill="white"/>
<circle cx="430.663" cy="2.27264" r="2.18182" fill="white"/>
<circle cx="469.936" cy="2.27264" r="2.18182" fill="white"/>
<circle cx="509.208" cy="2.27264" r="2.18182" fill="white"/>
<circle cx="548.481" cy="2.27264" r="2.18182" fill="white"/>
<circle cx="548.481" cy="2.27264" r="2.18182" fill="white"/>
<circle cx="548.481" cy="2.27264" r="2.18182" fill="white"/>
</svg>
