<?xml version="1.0" standalone="no"?>
<!DOCTYPE svg PUBLIC "-//W3C//DTD SVG 1.1//EN" "http://www.w3.org/Graphics/SVG/1.1/DTD/svg11.dtd" >
<svg>
<metadata>
Created by FontForge 20090622 at Mon May  6 19:57:55 2019
 By deploy user
Copyright &#194;&#169; 2017 Toyota Motor Sales, U.S.A., Inc. All rights reserved.
</metadata>
<defs>
<font id="ToyotaType-Book" horiz-adv-x="0" >
  <font-face 
    font-family="Toyota Type Book"
    font-weight="400"
    font-stretch="normal"
    units-per-em="1000"
    panose-1="2 11 5 2 2 2 2 2 2 4"
    ascent="800"
    descent="-200"
    x-height="502"
    cap-height="710"
    bbox="-449 -232 4324 1096"
    underline-thickness="78"
    underline-position="-52"
    unicode-range="U+000D-U+FEFF"
  />
<missing-glyph horiz-adv-x="600" 
d="M30 752h540v-962h-540v962zM500 -140v822h-400v-822h400z" />
    <glyph glyph-name="f_i" unicode="fi" horiz-adv-x="586" 
d="M116 441h-88v61h88v90q0 80 36 121t100 41q48 0 92 -21l-16 -63q-13 8 -31.5 13.5t-36.5 5.5q-36 0 -55 -23.5t-19 -78.5v-85h123v-61h-123v-441h-70v441zM424 502h70v-502h-70v502zM422 627.5q-15 15.5 -15 37.5q0 23 15 38t38 15q22 0 37.5 -15t15.5 -38
q0 -22 -15.5 -37.5t-37.5 -15.5q-23 0 -38 15.5z" />
    <glyph glyph-name="f_l" unicode="fl" horiz-adv-x="625" 
d="M116 441h-88v61h88v90q0 80 36 121t100 41q48 0 92 -21l-16 -63q-13 8 -31.5 13.5t-36.5 5.5q-36 0 -55 -23.5t-19 -78.5v-85h123v-61h-123v-441h-70v441zM456 19.5q-27 29.5 -27 90.5v642h70v-632q0 -66 49 -66q14 0 28.5 4.5t23.5 8.5l11 -59q-32 -18 -79 -18
q-49 0 -76 29.5z" />
    <glyph glyph-name="f_f" unicode="ff" horiz-adv-x="658" 
d="M116 441h-88v61h88v90q0 80 36 121t100 41q48 0 92 -21l-16 -63q-13 8 -31.5 13.5t-36.5 5.5q-36 0 -55 -23.5t-19 -78.5v-85h123v-61h-123v-441h-70v441zM445 441h-88v61h88v90q0 80 36 121t100 41q48 0 92 -21l-16 -63q-13 8 -31.5 13.5t-36.5 5.5q-36 0 -55 -23.5
t-19 -78.5v-85h123v-61h-123v-441h-70v441z" />
    <glyph glyph-name="f_f_i" unicode="ffi" horiz-adv-x="915" 
d="M116 441h-88v61h88v90q0 80 36 121t100 41q48 0 92 -21l-16 -63q-13 8 -31.5 13.5t-36.5 5.5q-36 0 -55 -23.5t-19 -78.5v-85h123v-61h-123v-441h-70v441zM445 441h-88v61h88v90q0 80 36 121t100 41q48 0 92 -21l-16 -63q-13 8 -31.5 13.5t-36.5 5.5q-36 0 -55 -23.5
t-19 -78.5v-85h123v-61h-123v-441h-70v441zM753 502h70v-502h-70v502zM751 627.5q-15 15.5 -15 37.5q0 23 15 38t38 15q22 0 37.5 -15t15.5 -38q0 -22 -15.5 -37.5t-37.5 -15.5q-23 0 -38 15.5z" />
    <glyph glyph-name="f_f_l" unicode="ffl" horiz-adv-x="954" 
d="M116 441h-88v61h88v90q0 80 36 121t100 41q48 0 92 -21l-16 -63q-13 8 -31.5 13.5t-36.5 5.5q-36 0 -55 -23.5t-19 -78.5v-85h123v-61h-123v-441h-70v441zM445 441h-88v61h88v90q0 80 36 121t100 41q48 0 92 -21l-16 -63q-13 8 -31.5 13.5t-36.5 5.5q-36 0 -55 -23.5
t-19 -78.5v-85h123v-61h-123v-441h-70v441zM785 19.5q-27 29.5 -27 90.5v642h70v-632q0 -66 49 -66q14 0 28.5 4.5t23.5 8.5l11 -59q-32 -18 -79 -18q-49 0 -76 29.5z" />
    <glyph glyph-name=".notdef" horiz-adv-x="600" 
d="M30 752h540v-962h-540v962zM500 -140v822h-400v-822h400z" />
    <glyph glyph-name="NULL" 
 />
    <glyph glyph-name="nonmarkingreturn" unicode="&#xd;" horiz-adv-x="261" 
 />
    <glyph glyph-name="space" unicode=" " horiz-adv-x="261" 
 />
    <glyph glyph-name="uni00A0" unicode="&#xa0;" horiz-adv-x="261" 
 />
    <glyph glyph-name="exclam" unicode="!" horiz-adv-x="312" 
d="M112 710h85l-13 -492h-59zM119 4q-15 15 -15 37t15 37.5t37 15.5q23 0 38 -15t15 -38q0 -22 -15.5 -37t-37.5 -15t-37 15z" />
    <glyph glyph-name="quotedbl" unicode="&#x22;" horiz-adv-x="353" 
d="M223 710h76l-11 -236h-54zM54 710h76l-11 -236h-54z" />
    <glyph glyph-name="numbersign" unicode="#" horiz-adv-x="669" 
d="M482 471l-41 -230h146v-58h-156l-32 -183h-59l32 183h-137l-32 -183h-58l32 183h-147v58h157l41 230h-146v57h156l32 182h59l-32 -182h137l32 182h58l-32 -182h147v-57h-157zM424 471h-137l-41 -230h137z" />
    <glyph glyph-name="dollar" unicode="$" horiz-adv-x="584" 
d="M465.5 63q-51.5 -52 -142.5 -60v-86h-56v86q-57 3 -109.5 21.5t-91.5 48.5l21 68q32 -28 79.5 -47.5t100.5 -24.5v262q-82 23 -138 64.5t-56 123.5q0 79 52.5 127.5t141.5 56.5v78h56v-77q88 -4 166 -45l-18 -68q-71 40 -148 47v-249q59 -18 100 -38.5t67.5 -57.5
t26.5 -94q0 -84 -51.5 -136zM175.5 451q31.5 -26 91.5 -45v233q-56 -6 -89.5 -36t-33.5 -80q0 -46 31.5 -72zM414.5 105.5q31.5 31.5 31.5 86.5q0 49 -30 76t-93 46v-245q60 5 91.5 36.5z" />
    <glyph glyph-name="percent" unicode="%" horiz-adv-x="717" 
d="M69.5 399.5q-38.5 48.5 -38.5 134.5t38.5 134t106.5 48t107 -48.5t39 -133.5q0 -86 -39 -134.5t-107 -48.5t-106.5 48.5zM537 710h62l-420 -710h-61zM262 534q0 130 -86 130q-85 0 -85 -130q0 -131 85 -131q86 0 86 131zM433.5 42.5q-38.5 48.5 -38.5 134.5t38.5 134
t107.5 48q68 0 106.5 -48.5t38.5 -133.5q0 -86 -38.5 -134.5t-106.5 -48.5q-69 0 -107.5 48.5zM626 177q0 130 -85 130q-86 0 -86 -130q0 -131 86 -131q85 0 85 131z" />
    <glyph glyph-name="ampersand" unicode="&#x26;" horiz-adv-x="683" 
d="M580 0l-86 91q-104 -102 -236 -102q-64 0 -115 23t-80 65.5t-29 97.5q0 68 40 115.5t136 102.5l-7 7q-42 45 -64 83t-22 85q0 39 20 74t58 57t90 22q48 0 87 -21.5t61 -55.5t22 -72q0 -52 -32 -98.5t-112 -93.5l180 -188q56 81 89 200l63 -32q-38 -129 -105 -218
l135 -142h-93zM202.5 505q15.5 -26 58.5 -72l8 -8q69 40 93 73t24 71q0 36 -28 63.5t-72 27.5q-46 0 -72.5 -27.5t-26.5 -66.5q0 -35 15.5 -61zM448 140l-195 207q-58 -34 -88.5 -60t-43 -51t-12.5 -59q0 -57 43 -89.5t108 -32.5q105 0 188 85z" />
    <glyph glyph-name="quotesingle" unicode="'" horiz-adv-x="184" 
d="M54 710h76l-11 -236h-54z" />
    <glyph glyph-name="parenleft" unicode="(" horiz-adv-x="348" 
d="M116.5 -9.5q-54.5 118.5 -54.5 319.5q0 442 244 442v-60q-102 0 -139 -103t-37 -279q0 -175 37 -276.5t139 -101.5v-60q-135 0 -189.5 118.5z" />
    <glyph glyph-name="parenright" unicode=")" horiz-adv-x="348" 
d="M42 -68q102 0 139 101.5t37 276.5q0 176 -37 279t-139 103v60q244 0 244 -442q0 -200 -54.5 -319t-189.5 -119v60z" />
    <glyph glyph-name="asterisk" unicode="*" horiz-adv-x="398" 
d="M75 433l87 101l-130 31l21 64l123 -51l-11 132h68l-11 -132l123 51l21 -64l-130 -31l87 -101l-55 -40l-69 113l-69 -113z" />
    <glyph glyph-name="plus" unicode="+" horiz-adv-x="582" 
d="M516 321h-196v-196h-59v196h-195v59h195v195h59v-195h196v-59z" />
    <glyph glyph-name="comma" unicode="," horiz-adv-x="290" 
d="M126 89h77l-95 -231h-65z" />
    <glyph glyph-name="hyphen" unicode="-" horiz-adv-x="445" 
d="M50 302h345v-61h-345v61z" />
    <glyph glyph-name="period" unicode="." horiz-adv-x="290" 
d="M108 4q-15 15 -15 37t15 37.5t37 15.5q23 0 38 -15t15 -38q0 -22 -15.5 -37t-37.5 -15t-37 15z" />
    <glyph glyph-name="slash" unicode="/" horiz-adv-x="420" 
d="M345 752h65l-335 -920h-65z" />
    <glyph glyph-name="zero" unicode="0" horiz-adv-x="582" 
d="M110.5 86.5q-51.5 96.5 -51.5 266.5t52 268.5t180 98.5t180 -98.5t52 -268.5q0 -169 -52.5 -266t-179.5 -97q-129 0 -180.5 96.5zM391 97q35 39 46.5 102.5t11.5 154.5q0 141 -32.5 219.5t-125.5 78.5q-65 0 -99.5 -39t-46.5 -103.5t-12 -156.5q0 -91 12 -154.5
t46.5 -102t99.5 -38.5t100 39z" />
    <glyph glyph-name="one" unicode="1" horiz-adv-x="449" 
d="M293 716v-716h-74v612l-159 -110v74l202 140h31z" />
    <glyph glyph-name="two" unicode="2" horiz-adv-x="582" 
d="M68 46l232 269q63 72 90.5 119t27.5 96q0 55 -34 89t-100 34q-99 0 -176 -90l-33 58q38 46 93.5 72.5t120.5 26.5q62 0 108.5 -25t70.5 -67.5t24 -93.5q0 -61 -35.5 -119.5t-107.5 -140.5l-179 -207h343v-67h-445v46z" />
    <glyph glyph-name="three" unicode="3" horiz-adv-x="582" 
d="M145 17.5q-57 28.5 -90 72.5l38 60q73 -94 183 -94q75 0 120.5 40.5t45.5 105.5q0 72 -57 108t-152 36v62q59 1 99.5 20.5t60 50.5t19.5 67q0 48 -34.5 77.5t-94.5 29.5q-92 0 -174 -82l-34 60q93 89 212 89q58 0 102.5 -21.5t69.5 -59.5t25 -87q0 -59 -35.5 -103
t-102.5 -64q83 -19 126 -67.5t43 -118.5q0 -59 -30 -107t-84.5 -75.5t-124.5 -27.5q-74 0 -131 28.5z" />
    <glyph glyph-name="four" unicode="4" horiz-adv-x="582" 
d="M356 159h-321v47l342 504h53v-486h104v-65h-104v-159h-74v159zM356 224v354l-238 -354h238z" />
    <glyph glyph-name="five" unicode="5" horiz-adv-x="582" 
d="M143.5 15q-54.5 26 -85.5 69l37 60q66 -88 172 -88q77 0 123.5 43.5t46.5 115.5q0 69 -44.5 109.5t-122.5 40.5q-69 0 -125 -37l-39 14l37 368h345v-67h-287l-24 -234q42 22 102 22q71 0 123 -27.5t80 -76.5t28 -112q0 -65 -30.5 -116.5t-84.5 -80.5t-123 -29
q-74 0 -128.5 26z" />
    <glyph glyph-name="six" unicode="6" horiz-adv-x="582" 
d="M424 423q49 -29 77 -81t28 -118q0 -64 -30.5 -117.5t-83 -85t-115.5 -31.5q-69 0 -125.5 34.5t-89.5 103t-33 166.5q0 120 43 215t137 150.5t241 55.5l16 -62q-328 0 -364 -291q31 40 80 65t108 25q62 0 111 -29zM380.5 77q36.5 22 57 60.5t20.5 85.5q0 74 -43.5 120.5
t-112.5 46.5q-61 0 -110.5 -33.5t-70.5 -80.5q3 -108 52.5 -164.5t124.5 -56.5q46 0 82.5 22z" />
    <glyph glyph-name="seven" unicode="7" horiz-adv-x="582" 
d="M438 643h-381v67h462v-48l-297 -662h-78z" />
    <glyph glyph-name="eight" unicode="8" horiz-adv-x="582" 
d="M171.5 18q-53.5 28 -84.5 76t-31 106q0 65 37 115.5t107 73.5q-53 21 -81.5 61.5t-28.5 90.5q0 49 26 90t71.5 65t103.5 24t103.5 -24t71 -65t25.5 -90q0 -50 -28.5 -90.5t-80.5 -61.5q70 -23 107 -73.5t37 -115.5q0 -58 -31 -106t-84.5 -76t-119.5 -28t-119.5 28z
M385.5 454.5q35.5 33.5 35.5 84.5q0 49 -36.5 83t-92.5 34q-57 0 -93 -34t-36 -83q0 -51 35.5 -84.5t93.5 -33.5t93.5 33.5zM373.5 73.5q37.5 19.5 59 53.5t21.5 75q0 42 -21.5 76t-59 54t-82.5 20q-44 0 -81.5 -20t-59 -54.5t-21.5 -75.5t21.5 -75t59 -53.5t81.5 -19.5
q45 0 82.5 19.5z" />
    <glyph glyph-name="nine" unicode="9" horiz-adv-x="582" 
d="M406.5 685q55.5 -35 89 -103.5t33.5 -165.5q0 -120 -41.5 -214.5t-131.5 -150.5t-230 -56l-15 62q168 0 250 79.5t96 215.5q-31 -42 -79 -68t-109 -26q-62 0 -111.5 29.5t-77.5 81.5t-28 118q0 64 30.5 117.5t84 84.5t118.5 31q66 0 121.5 -35zM387.5 353
q49.5 32 72.5 83q-5 106 -53.5 162.5t-119.5 56.5q-48 0 -85 -22t-58 -60t-21 -85q0 -74 43.5 -120.5t112.5 -46.5q59 0 108.5 32z" />
    <glyph glyph-name="colon" unicode=":" horiz-adv-x="290" 
d="M108 377.5q-15 15.5 -15 37.5t15 37t37 15t37.5 -15t15.5 -37t-15 -37.5t-38 -15.5q-22 0 -37 15.5zM108 4q-15 15 -15 37t15 37.5t37 15.5q23 0 38 -15t15 -38q0 -22 -15.5 -37t-37.5 -15t-37 15zM80 504z" />
    <glyph glyph-name="semicolon" unicode=";" horiz-adv-x="290" 
d="M108 377q-15 15 -15 37t15 37.5t37 15.5q23 0 38 -15t15 -38q0 -22 -15.5 -37t-37.5 -15t-37 15zM124 89h77l-95 -231h-65zM68 504z" />
    <glyph glyph-name="less" unicode="&#x3c;" horiz-adv-x="582" 
d="M516 483l-402 -133l402 -133v-60l-450 156v74l450 155v-59z" />
    <glyph glyph-name="equal" unicode="=" horiz-adv-x="582" 
d="M66 477h450v-59h-450v59zM66 283h450v-59h-450v59z" />
    <glyph glyph-name="greater" unicode="&#x3e;" horiz-adv-x="582" 
d="M516 387v-74l-450 -155v59l402 133l-402 133v60z" />
    <glyph glyph-name="question" unicode="?" horiz-adv-x="497" 
d="M220 266q6 19 23.5 45t56.5 72q42 50 59.5 81t17.5 72q0 53 -33 84.5t-95 31.5q-60 0 -95.5 -30t-47.5 -79l-57 31q14 63 68 103.5t135 40.5q60 0 104 -23t68 -63.5t24 -91.5q0 -57 -23 -99.5t-68 -90.5q-45 -50 -60.5 -76.5t-16.5 -52.5h-66q0 26 6 45zM212.5 4
q-15.5 15 -15.5 37t15.5 37.5t37.5 15.5t37.5 -15.5t15.5 -37.5t-15.5 -37t-37.5 -15t-37.5 15z" />
    <glyph glyph-name="at" unicode="@" horiz-adv-x="979" 
d="M639 78v96q-27 -56 -71.5 -79.5t-95.5 -23.5q-62 0 -111.5 30.5t-77.5 83.5t-28 116q0 62 28 114.5t77.5 83t110.5 30.5q54 0 97.5 -25t70.5 -79v94h63v-383h114q20 38 31 84.5t11 94.5q0 99 -48.5 180t-132.5 127.5t-185 46.5q-103 0 -188 -49t-134 -133t-49 -185
t49 -185.5t133.5 -133.5t188.5 -49q57 0 112.5 14.5t97.5 39.5l9 -61q-35 -22 -95.5 -37t-123.5 -15q-120 0 -219 57t-156 155t-57 215t57 214.5t155.5 154t218.5 56.5q117 0 215.5 -54t155.5 -147.5t57 -207.5q0 -67 -18.5 -131t-46.5 -109h-215zM559 156q37 22 58 60.5
t21 85.5q0 46 -21 84t-58 60t-81 22t-80.5 -22t-57 -60t-20.5 -84t20.5 -84.5t57 -61t80.5 -22.5t81 22z" />
    <glyph glyph-name="A" unicode="A" horiz-adv-x="666" 
d="M480 230h-296l-87 -230h-76l273 710h78l273 -710h-78zM457 293l-125 331l-125 -331h250z" />
    <glyph glyph-name="B" unicode="B" horiz-adv-x="618" 
d="M521.5 312q38.5 -46 38.5 -113q0 -90 -59 -144.5t-160 -54.5h-238v710h198q99 0 156 -49.5t57 -131.5q0 -108 -97 -157q66 -14 104.5 -60zM178 390h129q60 0 97.5 38.5t37.5 94.5q0 55 -38.5 88t-107.5 33h-118v-254zM445 103q40 37 40 99q0 59 -37 91t-101 32h-169v-259
h156q71 0 111 37z" />
    <glyph glyph-name="C" unicode="C" horiz-adv-x="729" 
d="M244.5 37.5q-83.5 47.5 -131 131t-47.5 188.5q0 104 47.5 187t131.5 129.5t188 46.5q68 0 129 -20.5t109 -58.5l-26 -71q-44 37 -98 57.5t-113 20.5q-84 0 -150 -37.5t-103.5 -104t-37.5 -149.5q0 -84 37.5 -151t104 -105.5t149.5 -38.5q64 0 121.5 22t103.5 58l23 -70
q-56 -42 -117 -62t-133 -20q-104 0 -187.5 47.5z" />
    <glyph glyph-name="D" unicode="D" horiz-adv-x="757" 
d="M519 666.5q82 -43.5 126.5 -122.5t44.5 -183q0 -108 -44.5 -189.5t-126.5 -126.5t-192 -45h-224v710h224q110 0 192 -43.5zM478.5 104q65.5 36 100.5 101.5t35 154.5q0 85 -35 149t-100.5 98.5t-154.5 34.5h-146v-574h145q90 0 155.5 36z" />
    <glyph glyph-name="E" unicode="E" horiz-adv-x="578" 
d="M103 710h389v-68h-314v-252h305v-67h-305v-255h322v-68h-397v710z" />
    <glyph glyph-name="F" unicode="F" horiz-adv-x="534" 
d="M103 710h387v-68h-312v-254h298v-68h-298v-320h-75v710z" />
    <glyph glyph-name="G" unicode="G" horiz-adv-x="821" 
d="M741 336v-336h-70v130q-29 -56 -96.5 -98t-163.5 -42q-99 0 -178 47.5t-123 130.5t-44 187t48 187.5t131.5 130.5t186.5 47q78 0 141.5 -22t123.5 -64l-27 -71q-56 42 -112 63.5t-126 21.5q-83 0 -148.5 -37.5t-103 -104.5t-37.5 -152q0 -84 34.5 -150.5t97 -104
t142.5 -37.5q75 0 132 30.5t87.5 79t32.5 100.5h-244v64h316z" />
    <glyph glyph-name="H" unicode="H" horiz-adv-x="759" 
d="M655 710v-710h-75v321h-402v-321h-75v710h75v-320h402v320h75z" />
    <glyph glyph-name="I" unicode="I" horiz-adv-x="282" 
d="M103 710h75v-710h-75v710z" />
    <glyph glyph-name="J" unicode="J" horiz-adv-x="398" 
d="M0 11l15 67q18 -9 40 -14.5t41 -5.5q61 0 96.5 44t35.5 132v476h75v-485q0 -114 -53 -174.5t-147 -60.5q-57 0 -103 21z" />
    <glyph glyph-name="K" unicode="K" horiz-adv-x="619" 
d="M513 0l-335 358v-358h-75v710h75v-350l313 350h94l-313 -345l341 -365h-100z" />
    <glyph glyph-name="L" unicode="L" horiz-adv-x="515" 
d="M495 69v-69h-392v710h75v-641h317z" />
    <glyph glyph-name="M" unicode="M" horiz-adv-x="862" 
d="M103 710h86l240 -365l246 365h84v-710h-74v601l-229 -342h-54l-225 342v-601h-74v710z" />
    <glyph glyph-name="N" unicode="N" horiz-adv-x="776" 
d="M673 710v-710h-71l-425 591v-591h-74v710h71l425 -591v591h74z" />
    <glyph glyph-name="O" unicode="O" horiz-adv-x="871" 
d="M246.5 37q-84.5 47 -132.5 130.5t-48 187.5t48 187.5t132.5 130.5t189.5 47q104 0 188.5 -47t132.5 -130.5t48 -186.5q0 -104 -48 -187.5t-132.5 -131t-189.5 -47.5q-104 0 -188.5 47zM586 100q67 38 105 105t38 150t-38 150.5t-105 105.5t-150 38q-84 0 -151 -38
t-105 -105.5t-38 -150.5t38 -150t105 -105t151 -38q83 0 150 38z" />
    <glyph glyph-name="P" unicode="P" horiz-adv-x="585" 
d="M477 651.5q62 -58.5 62 -159.5q0 -61 -28 -113t-82 -83t-129 -31h-122v-265h-75v710h197q115 0 177 -58.5zM414 374q48 43 48 118q0 80 -46 116t-124 36h-114v-313h114q74 0 122 43z" />
    <glyph glyph-name="Q" unicode="Q" horiz-adv-x="872" 
d="M777 210.5q-28 -67.5 -79 -117.5l99 -105h-92l-59 63q-92 -61 -211 -61q-104 0 -188.5 47t-132.5 130.5t-48 187.5t48 187.5t132.5 130.5t189.5 47q104 0 188.5 -47t132.5 -130.5t48 -186.5q0 -78 -28 -145.5zM595 105l-117 124h91l78 -82q39 40 60.5 93.5t21.5 114.5
q0 83 -38 150.5t-105 105.5t-150 38q-84 0 -151 -38t-105 -105.5t-38 -150.5t38 -150t105 -105t151 -38q87 0 159 43z" />
    <glyph glyph-name="R" unicode="R" horiz-adv-x="632" 
d="M509 0l-194 297h-16h-121v-297h-75v710h204q103 0 163.5 -55t60.5 -148q0 -69 -38 -121.5t-104 -74.5l209 -311h-89zM409.5 396.5q45.5 35.5 45.5 108.5q0 71 -44.5 105t-110.5 34h-122v-283h119q67 0 112.5 35.5z" />
    <glyph glyph-name="S" unicode="S" horiz-adv-x="583" 
d="M166.5 9q-57.5 19 -102.5 52l21 73q41 -35 95 -55t111 -20q70 0 110 33t40 94q0 39 -19 63t-50.5 40t-92.5 38q-65 24 -106 47t-67 60.5t-26 94.5q0 58 28.5 101.5t80 67t118.5 23.5q50 0 98.5 -12.5t86.5 -33.5l-18 -71q-37 22 -82.5 35.5t-89.5 13.5
q-67 0 -107.5 -32.5t-40.5 -86.5q0 -38 19 -63t50 -41t88 -38q9 -4 20 -7q65 -25 101 -44.5t59.5 -55.5t23.5 -94q0 -95 -63 -148t-167 -53q-61 0 -118.5 19z" />
    <glyph glyph-name="T" unicode="T" horiz-adv-x="522" 
d="M497 642h-196v-642h-75v642h-201v68h472v-68z" />
    <glyph glyph-name="U" unicode="U" horiz-adv-x="741" 
d="M224.5 23.5q-61.5 33.5 -94 94.5t-32.5 142v450h75v-437q0 -104 54 -157.5t144 -53.5t144 53.5t54 157.5v437h75v-450q0 -81 -32.5 -142t-94 -94.5t-146.5 -33.5t-146.5 33.5z" />
    <glyph glyph-name="V" unicode="V" horiz-adv-x="621" 
d="M618 710l-268 -710h-79l-268 710h80l229 -618l228 618h78z" />
    <glyph glyph-name="W" unicode="W" horiz-adv-x="971" 
d="M947 710l-204 -710h-77l-180 602l-182 -602h-76l-204 710h80l167 -601l180 601h75l178 -598l167 598h76z" />
    <glyph glyph-name="X" unicode="X" horiz-adv-x="667" 
d="M539 0l-202 300l-202 -300h-83l244 359l-237 351h87l194 -290l196 290h81l-237 -348l246 -362h-87z" />
    <glyph glyph-name="Y" unicode="Y" horiz-adv-x="584" 
d="M329 284v-284h-74v284l-253 426h84l209 -352l208 352h79z" />
    <glyph glyph-name="Z" unicode="Z" horiz-adv-x="621" 
d="M558 68v-68h-488v39l382 603h-372v68h474v-38l-380 -604h384z" />
    <glyph glyph-name="bracketleft" unicode="[" horiz-adv-x="356" 
d="M170 695v-768h144v-57h-211v882h211v-57h-144z" />
    <glyph glyph-name="backslash" unicode="\" horiz-adv-x="420" 
d="M10 752h65l335 -920h-65z" />
    <glyph glyph-name="bracketright" unicode="]" horiz-adv-x="356" 
d="M253 -130h-211v57h144v768h-144v57h211v-882z" />
    <glyph glyph-name="asciicircum" unicode="^" horiz-adv-x="405" 
d="M336 260l-133 401l-134 -401h-59l155 450h75l155 -450h-59z" />
    <glyph glyph-name="underscore" unicode="_" horiz-adv-x="450" 
d="M455 -92v-45h-460v45h460z" />
    <glyph glyph-name="grave" unicode="`" horiz-adv-x="400" 
d="M282 725h74l112 -152h-66z" />
    <glyph glyph-name="a" unicode="a" horiz-adv-x="577" 
d="M438.5 461.5q52.5 -50.5 52.5 -149.5v-312h-69v88q-24 -44 -73.5 -71t-114.5 -27q-80 0 -125.5 40t-45.5 109q0 57 35.5 91.5t113.5 51t209 17.5v13q0 64 -36.5 101t-105.5 37q-89 0 -165 -61l-20 63q35 26 85.5 43t109.5 17q97 0 149.5 -50.5zM329.5 63.5
q39.5 15.5 65.5 49.5t26 85v50q-109 -1 -171 -12.5t-88 -34t-26 -60.5q0 -43 29 -68t83 -25q42 0 81.5 15.5z" />
    <glyph glyph-name="b" unicode="b" horiz-adv-x="648" 
d="M483 478.5q55 -33.5 85.5 -93t30.5 -133.5q0 -75 -31 -134.5t-87 -93.5t-128 -34q-56 0 -108.5 28.5t-81.5 82.5v-101h-70v752h70v-351q31 54 84 82.5t112 28.5q69 0 124 -33.5zM441 81q41 25 64 69.5t23 100.5q0 55 -22 99.5t-62.5 70t-94.5 25.5q-53 0 -97 -25
t-69.5 -69.5t-25.5 -99.5t25 -99.5t68.5 -70.5t96.5 -26t94 25z" />
    <glyph glyph-name="c" unicode="c" horiz-adv-x="520" 
d="M169.5 22.5q-56.5 32.5 -88.5 92t-32 135.5q0 77 32 136.5t90 92.5t132 33q96 0 172 -53l-23 -64q-66 51 -146 51q-83 0 -134 -53.5t-51 -140.5q0 -58 23 -102.5t63.5 -69t92.5 -24.5q44 0 86.5 14.5t77.5 39.5l18 -62q-35 -26 -83 -42t-102 -16q-71 0 -127.5 32.5z" />
    <glyph glyph-name="d" unicode="d" horiz-adv-x="647" 
d="M556 752v-754h-70v105q-32 -58 -82 -85.5t-112 -27.5q-71 0 -126 33.5t-86 92.5t-31 134t31.5 135t86.5 93.5t125 33.5q62 0 113.5 -28t80.5 -82v350h70zM398 82q43 26 68 70.5t25 99.5t-24.5 99t-68 69.5t-96.5 25.5t-94 -24.5t-64 -69t-23 -102.5q0 -86 49.5 -140
t130.5 -54q54 0 97 26z" />
    <glyph glyph-name="e" unicode="e" horiz-adv-x="576" 
d="M532 246h-412q2 -88 54.5 -140t138.5 -52q55 0 103 20t80 50l20 -62q-35 -31 -89.5 -51.5t-117.5 -20.5q-78 0 -137 34.5t-91 94.5t-32 132q0 74 32.5 133.5t88.5 93.5t126 34q69 0 122.5 -33t83.5 -91.5t30 -132.5v-9zM458 301q-8 66 -52 107.5t-110 41.5
q-63 0 -111.5 -41.5t-60.5 -107.5h334z" />
    <glyph glyph-name="f" unicode="f" horiz-adv-x="329" 
d="M116 441h-88v61h88v90q0 80 36 121t100 41q48 0 92 -21l-16 -63q-13 8 -31.5 13.5t-36.5 5.5q-36 0 -55 -23.5t-19 -78.5v-85h123v-61h-123v-441h-70v441z" />
    <glyph glyph-name="g" unicode="g" horiz-adv-x="647" 
d="M556 502v-489q0 -113 -69 -172.5t-187 -59.5q-127 0 -212 69l22 69q80 -73 193 -73q85 0 134 42.5t49 125.5v92q-31 -55 -80 -82t-111 -27q-71 0 -127 33t-87.5 91.5t-31.5 131.5t30.5 132t87 93t129.5 34q124 0 190 -108v98h70zM402.5 87.5q42.5 25.5 65.5 69.5t23 98
q0 51 -24 95t-66.5 70.5t-95.5 26.5q-55 0 -97 -25.5t-65 -69.5t-23 -98q0 -55 23.5 -99t66 -68.5t96.5 -24.5t96.5 25.5z" />
    <glyph glyph-name="h" unicode="h" horiz-adv-x="615" 
d="M480 461q48 -52 48 -153v-308h-70v290q0 78 -34 118.5t-99 40.5q-46 0 -83 -20.5t-58 -57.5t-21 -83v-288h-70v752h70v-341q25 48 72 75t110 27q87 0 135 -52z" />
    <glyph glyph-name="i" unicode="i" horiz-adv-x="255" 
d="M93 502h70v-502h-70v502zM91 627.5q-15 15.5 -15 37.5q0 23 15 38t38 15q22 0 37.5 -15t15.5 -38q0 -22 -15.5 -37.5t-37.5 -15.5q-23 0 -38 15.5z" />
    <glyph glyph-name="j" unicode="j" horiz-adv-x="257" 
d="M-21 -209l10 62q19 -6 39 -6q36 0 50.5 22t14.5 82v551h70v-561q0 -84 -30.5 -122t-91.5 -38q-37 0 -62 10zM91 627.5q-15 15.5 -15 37.5q0 23 15 38t38 15q22 0 37.5 -15t15.5 -38q0 -22 -15.5 -37.5t-37.5 -15.5q-23 0 -38 15.5z" />
    <glyph glyph-name="k" unicode="k" horiz-adv-x="513" 
d="M93 752h70v-488l236 238h94l-243 -237l252 -265h-96l-243 259v-259h-70v752z" />
    <glyph glyph-name="l" unicode="l" horiz-adv-x="286" 
d="M117 19.5q-27 29.5 -27 90.5v642h70v-632q0 -66 49 -66q14 0 28.5 4.5t23.5 8.5l11 -59q-32 -18 -79 -18q-49 0 -76 29.5z" />
    <glyph glyph-name="m" unicode="m" horiz-adv-x="901" 
d="M769.5 461.5q44.5 -51.5 44.5 -153.5v-308h-70v290q0 78 -30.5 118.5t-90.5 40.5q-37 0 -68 -20.5t-49 -55.5t-18 -78v-295h-70v290q0 78 -30 118.5t-89 40.5t-97.5 -45.5t-38.5 -115.5v-288h-70v502h70v-85q22 45 62.5 70.5t94.5 25.5q58 0 98 -28t58 -84
q48 112 168 112q81 0 125.5 -51.5z" />
    <glyph glyph-name="n" unicode="n" horiz-adv-x="615" 
d="M480.5 460q47.5 -52 47.5 -153v-307h-70v288q0 79 -34 119.5t-99 40.5q-46 0 -83 -21t-58 -58t-21 -83v-286h-70v502h70v-93q25 48 73 75.5t111 27.5q86 0 133.5 -52z" />
    <glyph glyph-name="o" unicode="o" horiz-adv-x="624" 
d="M175.5 23.5q-59.5 33.5 -93 92.5t-33.5 135t33.5 135t93 92.5t136.5 33.5t136.5 -33.5t93 -92.5t33.5 -135t-33.5 -135t-93 -92.5t-136.5 -33.5t-136.5 33.5zM412 81.5q44 24.5 68 68.5t24 101t-24.5 101t-68 68.5t-99.5 24.5t-99.5 -24.5t-67.5 -68.5t-24 -100
q0 -58 24.5 -102t67.5 -68.5t99 -24.5t100 24.5z" />
    <glyph glyph-name="p" unicode="p" horiz-adv-x="648" 
d="M483 478.5q55 -33.5 85.5 -93t30.5 -133.5q0 -75 -31 -134.5t-87 -93.5t-128 -34q-56 0 -108.5 28.5t-81.5 82.5v-311h-70v712h70v-101q31 54 84 82.5t112 28.5q69 0 124 -33.5zM441 81q41 25 64 69.5t23 100.5q0 55 -22 99.5t-62.5 70t-94.5 25.5q-53 0 -97 -25
t-69.5 -69.5t-25.5 -99.5t25 -99.5t68.5 -70.5t96.5 -26t94 25z" />
    <glyph glyph-name="q" unicode="q" horiz-adv-x="647" 
d="M556 502v-712h-70v313q-32 -58 -82 -85.5t-112 -27.5q-71 0 -126 33.5t-86 92.5t-31 134t31.5 135t86.5 93.5t125 33.5q62 0 113.5 -28t80.5 -82v100h70zM398 82q43 26 68 70.5t25 99.5t-24.5 99t-68 69.5t-96.5 25.5t-94 -24.5t-64 -69t-23 -102.5q0 -86 49.5 -140
t130.5 -54q54 0 97 26z" />
    <glyph glyph-name="r" unicode="r" horiz-adv-x="364" 
d="M353 502l-17 -68q-30 10 -51 10q-61 0 -92 -48t-31 -129v-267h-69v502h69v-90q21 54 53 77.5t77 23.5q36 0 61 -11z" />
    <glyph glyph-name="s" unicode="s" horiz-adv-x="480" 
d="M135 5q-48 15 -75 39l19 62q28 -24 70.5 -40.5t89.5 -16.5q52 0 82 22.5t30 61.5q0 25 -14 40.5t-38 26t-72 25.5t-79.5 30t-52 42.5t-20.5 70.5q0 67 48.5 105.5t128.5 38.5q45 0 84 -12t68 -30l-15 -62q-69 45 -139 45q-48 0 -76.5 -21t-28.5 -57t28.5 -54.5
t87.5 -34.5q77 -22 118 -52.5t41 -93.5q0 -68 -49.5 -109t-135.5 -41q-52 0 -100 15z" />
    <glyph glyph-name="t" unicode="t" horiz-adv-x="359" 
d="M144.5 24.5q-34.5 34.5 -34.5 101.5v315h-71v61h71v147l70 12v-159h146v-61h-146v-307q0 -39 18.5 -58.5t52.5 -19.5q42 0 90 30l14 -61q-21 -15 -52 -25t-65 -10q-59 0 -93.5 34.5z" />
    <glyph glyph-name="u" unicode="u" horiz-adv-x="615" 
d="M522 502v-502h-70v95q-24 -50 -72 -77.5t-113 -27.5q-85 0 -133 51.5t-48 152.5v308h70v-289q0 -79 34.5 -119.5t99.5 -40.5q46 0 83 21t58 58t21 84v286h70z" />
    <glyph glyph-name="v" unicode="v" horiz-adv-x="488" 
d="M484 502l-204 -502h-72l-204 502h77l163 -422l165 422h75z" />
    <glyph glyph-name="w" unicode="w" horiz-adv-x="778" 
d="M764 502l-166 -502h-73l-134 413l-135 -413h-73l-169 502h77l133 -418l135 418h64l135 -415l131 415h75z" />
    <glyph glyph-name="x" unicode="x" horiz-adv-x="515" 
d="M217 259l-187 243h86l143 -193l144 193h83l-186 -242l197 -260h-83l-156 209l-157 -209h-83z" />
    <glyph glyph-name="y" unicode="y" horiz-adv-x="489" 
d="M485 502l-235 -574q-30 -74 -73 -108.5t-105 -34.5q-33 0 -58 8l10 64q18 -5 38 -5q43 0 72 21t53 78l32 74l-215 477h77l175 -394l154 394h75z" />
    <glyph glyph-name="z" unicode="z" horiz-adv-x="492" 
d="M48 33l287 408h-278v61h377v-35l-283 -406h289v-61h-392v33z" />
    <glyph glyph-name="braceleft" unicode="{" horiz-adv-x="333" 
d="M110 -35q0 28 5 56t16 74q9 38 14 63.5t5 48.5q0 36 -23.5 56t-68.5 20h-29v57h29q45 0 68.5 19.5t23.5 55.5q0 23 -5 48.5t-14 63.5q-11 46 -16 74t-5 56q0 95 116 95h66v-57h-55q-64 0 -64 -50q0 -26 4.5 -53t10 -51.5t7.5 -31.5q18 -68 18 -99q0 -43 -20 -66t-67 -33
q47 -10 67 -33t20 -65q0 -18 -5.5 -45t-12.5 -55q-2 -7 -8.5 -36.5t-10 -54.5t-3.5 -45q0 -50 64 -50h55v-57h-66q-116 0 -116 95z" />
    <glyph glyph-name="bar" unicode="|" horiz-adv-x="217" 
d="M77 752h63v-962h-63v962z" />
    <glyph glyph-name="braceright" unicode="}" horiz-adv-x="333" 
d="M30 -73h55q64 0 64 50q0 26 -4.5 53t-10 51.5t-7.5 31.5q-7 28 -12.5 55t-5.5 45q0 42 20 65t67 33q-47 10 -67 33t-20 66q0 31 18 99q2 7 8.5 36.5t10 54.5t3.5 45q0 50 -64 50h-55v57h66q116 0 116 -95q0 -28 -5 -56t-16 -74q-9 -38 -14 -63.5t-5 -48.5
q0 -36 23.5 -55.5t68.5 -19.5h29v-57h-29q-45 0 -68.5 -20t-23.5 -56q0 -23 5 -48.5t14 -63.5q11 -46 16 -74t5 -56q0 -95 -116 -95h-66v57z" />
    <glyph glyph-name="asciitilde" unicode="~" horiz-adv-x="582" 
d="M128 352q27 25 63 25q30 0 98 -19q7 -1 21 -5q-5 1 27 -7q45 -12 68 -12q17 0 30.5 11t17.5 32h53q-6 -47 -32.5 -74t-60.5 -27q-22 0 -45 5t-44.5 11t-30.5 8q-66 19 -94 19q-38 0 -51 -43h-53q6 51 33 76z" />
    <glyph glyph-name="exclamdown" unicode="&#xa1;" horiz-adv-x="312" 
d="M193 496q15 -15 15 -37t-15 -37.5t-37 -15.5t-37.5 15.5t-15.5 37.5t15.5 37t37.5 15t37 -15zM200 -210h-85l13 492h59z" />
    <glyph glyph-name="cent" unicode="&#xa2;" horiz-adv-x="519" 
d="M414 130q-42 -16 -90 -19v-111h-54v114q-62 8 -112.5 44t-79.5 91.5t-29 121.5q0 69 28.5 125.5t78.5 92t114 42.5v80h54v-79q86 -6 150 -51l-22 -64q-59 44 -128 49v-389q40 3 77.5 17.5t66.5 36.5l18 -62q-30 -23 -72 -39zM163.5 248q42.5 -53 106.5 -67v383
q-67 -11 -108 -64t-41 -129q0 -70 42.5 -123z" />
    <glyph glyph-name="sterling" unicode="&#xa3;" horiz-adv-x="549" 
d="M529 67v-67h-480v67q44 8 67 36.5t23 75.5v141h-90v63h90v101q0 119 54 180t149 61q54 0 96.5 -19.5t77.5 -54.5l-28 -67q-61 72 -145 72q-62 0 -95 -41t-33 -125v-107h190v-63h-190v-138q0 -80 -56 -115h370z" />
    <glyph glyph-name="currency" unicode="&#xa4;" horiz-adv-x="557" 
d="M448 231l59 -59l-50 -50l-59 59q-54 -38 -120 -38q-65 0 -119 38l-59 -59l-50 50l59 58q-38 54 -38 120t38 120l-59 58l50 50l58 -58q54 38 120 38q67 0 120 -39l59 59l50 -50l-59 -58q38 -54 38 -120q0 -67 -38 -119zM159.5 281.5q18.5 -31.5 50 -50t68.5 -18.5t69 18.5
t50.5 50t18.5 68.5t-18.5 69t-50.5 50.5t-69 18.5t-68.5 -18.5t-50 -50.5t-18.5 -69t18.5 -68.5z" />
    <glyph glyph-name="yen" unicode="&#xa5;" horiz-adv-x="578" 
d="M343 317h178v-51h-195v-76h195v-51h-195v-139h-74v139h-195v51h195v76h-195v51h178l-214 393h84l187 -348l187 348h78z" />
    <glyph glyph-name="brokenbar" unicode="&#xa6;" horiz-adv-x="217" 
d="M77 752h63v-371h-63v371zM77 161h63v-371h-63v371z" />
    <glyph glyph-name="section" unicode="&#xa7;" horiz-adv-x="480" 
d="M396.5 209.5q19.5 -29.5 19.5 -72.5q0 -42 -23 -75.5t-63.5 -52.5t-91.5 -19q-61 0 -108 15t-74 39l19 62q29 -25 71 -41t91 -16t79 22.5t30 59.5q0 36 -26.5 55.5t-97.5 39.5q-85 23 -120.5 55t-35.5 91q0 45 25.5 78t69.5 49q-48 20 -69 49t-21 74q0 64 48.5 102
t123.5 38q90 0 159 -42l-16 -62q-68 45 -144 45q-46 0 -73.5 -21.5t-27.5 -54.5q0 -25 11.5 -41t37.5 -27.5t74 -24.5q83 -21 120 -55t37 -92q0 -42 -23 -76t-64 -52q43 -20 62.5 -49.5zM164 446.5q-28 -25.5 -28 -67.5q0 -36 25.5 -57t89.5 -37h1q45 0 72.5 26.5t27.5 68.5
q0 35 -23.5 56t-78.5 36h-4q-54 0 -82 -25.5z" />
    <glyph glyph-name="dieresis" unicode="&#xa8;" horiz-adv-x="400" 
d="M265.5 631.5q-14.5 14.5 -14.5 34.5q0 21 14.5 35.5t35.5 14.5q20 0 34.5 -14.5t14.5 -35.5q0 -20 -14.5 -34.5t-34.5 -14.5q-21 0 -35.5 14.5zM478 631.5q-14 14.5 -14 34.5q0 21 14 35.5t35 14.5t35.5 -14.5t14.5 -35.5q0 -20 -14.5 -34.5t-35.5 -14.5t-35 14.5z" />
    <glyph glyph-name="copyright" unicode="&#xa9;" horiz-adv-x="810" 
d="M222 39q-84 49 -133 133t-49 183t49 183t133 133t183 49t183 -49t133 -133t49 -183t-49 -183t-133 -133t-183 -49t-183 49zM564 80.5q73 42.5 115.5 115.5t42.5 159t-42.5 159t-115.5 115.5t-159 42.5t-159 -42.5t-115.5 -115.5t-42.5 -159t42.5 -159t115.5 -115.5
t159 -42.5t159 42.5zM299 160q-52 30 -81.5 82t-29.5 115q0 62 30 113t81.5 80.5t114.5 29.5q43 0 82 -14t70 -40l-20 -54q-27 25 -61.5 38.5t-70.5 13.5q-47 0 -85.5 -22t-60.5 -60.5t-22 -85.5t22 -86t61 -61.5t86 -22.5q38 0 74.5 14t64.5 38l18 -55q-70 -53 -158 -53
q-63 0 -115 30z" />
    <glyph glyph-name="ordfeminine" unicode="&#xaa;" horiz-adv-x="345" 
d="M61.5 433.5q-27.5 24.5 -27.5 67.5q0 50 49.5 73t160.5 23v7q0 34 -20 53.5t-56 19.5q-55 0 -100 -34l-13 45q49 36 122 36q56 0 88.5 -30.5t32.5 -89.5v-188h-53v48q-16 -24 -44.5 -39.5t-66.5 -15.5q-45 0 -72.5 24.5zM215 472.5q29 20.5 29 59.5v29q-85 0 -119 -14
t-34 -44q0 -24 15 -37.5t43 -13.5q37 0 66 20.5z" />
    <glyph glyph-name="guillemotleft" unicode="&#xab;" horiz-adv-x="513" 
d="M30 260l165 200h82l-170 -200l170 -200h-82zM237 260l165 200h82l-170 -200l170 -200h-82z" />
    <glyph glyph-name="logicalnot" unicode="&#xac;" horiz-adv-x="582" 
d="M516 193h-59v256h-391v59h450v-315z" />
    <glyph glyph-name="uni00AD" unicode="&#xad;" horiz-adv-x="445" 
d="M50 302h345v-61h-345v61z" />
    <glyph glyph-name="registered" unicode="&#xae;" horiz-adv-x="463" 
d="M334.5 684.5q45.5 -25.5 71 -71.5t25.5 -103q0 -58 -25.5 -103.5t-71 -71t-103.5 -25.5q-57 0 -103 25.5t-71.5 71t-25.5 103.5q0 57 26 102.5t71.5 71.5t102.5 26q58 0 103.5 -25.5zM351 390.5q46 45.5 46 119.5t-46 120t-120 46q-73 0 -119 -46t-46 -120q0 -73 46 -119
t119 -46q74 0 120 45.5zM298 519q-11 -17 -30 -26l69 -102h-46l-61 94h-1h-31v-94h-38v238h71q36 0 57 -19.5t21 -51.5q0 -22 -11 -39zM198 518h30q20 0 31.5 10.5t11.5 28.5q0 17 -11 27t-31 10h-31v-76z" />
    <glyph glyph-name="macron" unicode="&#xaf;" horiz-adv-x="400" 
d="M251 679h313v-54h-313v54z" />
    <glyph glyph-name="degree" unicode="&#xb0;" horiz-adv-x="366" 
d="M106 424.5q-35 20.5 -55.5 55.5t-20.5 77t20.5 77t55.5 55.5t77 20.5t77.5 -20.5t56 -55.5t20.5 -77t-20.5 -77t-56 -55.5t-77.5 -20.5t-77 20.5zM251 489q28 28 28 68t-28 68t-68 28t-67.5 -28t-27.5 -68t27.5 -68t67.5 -28t68 28z" />
    <glyph glyph-name="plusminus" unicode="&#xb1;" horiz-adv-x="582" 
d="M516 427v-54h-196v-141h-59v141h-195v54h195v142h59v-142h196zM66 202h450v-54h-450v54z" />
    <glyph glyph-name="uni00B2" unicode="&#xb2;" horiz-adv-x="422" 
d="M61 471l151 156q39 40 56.5 67t17.5 54q0 31 -21 49.5t-59 18.5q-34 0 -62 -13t-54 -39l-26 45q26 29 63.5 45t81.5 16q62 0 99 -33t37 -85q0 -38 -23 -74t-69 -81l-106 -108h213v-54h-299v36z" />
    <glyph glyph-name="uni00B3" unicode="&#xb3;" horiz-adv-x="416" 
d="M111.5 440.5q-38.5 15.5 -61.5 43.5l30 48q48 -53 116 -53q46 0 73 21.5t27 56.5q0 39 -34.5 59t-96.5 20v48q55 0 83.5 22t28.5 52q0 26 -21 42t-56 16q-57 0 -110 -49l-27 47q60 56 140 56q60 0 96 -29t36 -76q0 -37 -23 -63t-64 -37q55 -13 81 -42t26 -70
q0 -56 -44 -92t-116 -36q-45 0 -83.5 15.5z" />
    <glyph glyph-name="acute" unicode="&#xb4;" horiz-adv-x="400" 
d="M319 725h74l-119 -152h-66z" />
    <glyph glyph-name="uni03BC" unicode="&#x3bc;" horiz-adv-x="621" 
d="M528 502v-502h-70v89q-24 -47 -67.5 -73t-102.5 -26q-39 0 -71.5 14.5t-53.5 40.5v-255h-70v712h70v-289q0 -77 34.5 -118.5t100.5 -41.5q45 0 82 21t57.5 58t20.5 84v286h70z" />
    <glyph glyph-name="paragraph" unicode="&#xb6;" horiz-adv-x="649" 
d="M324 151h-40q-76 0 -133.5 35t-89 98.5t-31.5 146.5t31.5 146t89 98t133.5 35h335v-51h-79v-869h-52v869h-111v-869h-53v361z" />
    <glyph glyph-name="periodcentered" unicode="&#xb7;" horiz-adv-x="290" 
d="M108 312q-15 15 -15 37t15 37.5t37 15.5q23 0 38 -15t15 -38q0 -22 -15.5 -37t-37.5 -15t-37 15z" />
    <glyph glyph-name="cedilla" unicode="&#xb8;" horiz-adv-x="400" 
d="M356 -73q17 -20 17 -49q0 -42 -35 -67t-107 -25v52q45 0 64 10.5t19 30.5q0 18 -15 27t-38 9v85h49v-44q29 -9 46 -29z" />
    <glyph glyph-name="uni00B9" unicode="&#xb9;" horiz-adv-x="355" 
d="M214 865v-430h-59v351l-101 -62v58l136 83h24z" />
    <glyph glyph-name="ordmasculine" unicode="&#xba;" horiz-adv-x="374" 
d="M71 450.5q-45 44.5 -45 112.5q0 44 20.5 80t57 56.5t82.5 20.5t83 -20.5t58 -56.5t21 -80q0 -45 -21 -80.5t-58 -56t-83 -20.5q-70 0 -115 44.5zM260.5 487q29.5 30 29.5 76q0 47 -29 76.5t-74 29.5q-46 0 -75.5 -30.5t-29.5 -76.5t29.5 -75.5t74.5 -29.5t74.5 30z" />
    <glyph glyph-name="guillemotright" unicode="&#xbb;" horiz-adv-x="513" 
d="M29 60l170 200l-170 200h82l165 -200l-165 -200h-82zM236 60l170 200l-170 200h82l165 -200l-165 -200h-82z" />
    <glyph glyph-name="onequarter" unicode="&#xbc;" horiz-adv-x="854" 
d="M214 715v-430h-59v351l-101 -62v58l136 83h24zM669 710h66l-557 -710h-66zM688 91h-206v39l217 299h49v-289h64v-49h-64v-91h-60v91zM688 140v196l-142 -196h142z" />
    <glyph glyph-name="onehalf" unicode="&#xbd;" horiz-adv-x="951" 
d="M214 715v-430h-59v351l-101 -62v58l136 83h24zM666 710h66l-557 -710h-66zM590 36l151 156q39 40 56.5 67t17.5 54q0 31 -21 49.5t-59 18.5q-34 0 -62 -13t-54 -39l-26 45q26 29 63.5 45t81.5 16q62 0 99 -33t37 -85q0 -38 -23 -74t-69 -81l-106 -108h213v-54h-299v36z
" />
    <glyph glyph-name="threequarters" unicode="&#xbe;" horiz-adv-x="900" 
d="M111.5 290.5q-38.5 15.5 -61.5 43.5l30 48q48 -53 116 -53q46 0 73 21.5t27 56.5q0 39 -34.5 59t-96.5 20v48q55 0 83.5 22t28.5 52q0 26 -21 42t-56 16q-57 0 -110 -49l-27 47q60 56 140 56q60 0 96 -29t36 -76q0 -37 -23 -63t-64 -37q55 -13 81 -42t26 -70
q0 -56 -44 -92t-116 -36q-45 0 -83.5 15.5zM726 710h66l-557 -710h-66zM734 91h-206v39l217 299h49v-289h64v-49h-64v-91h-60v91zM734 140v196l-142 -196h142z" />
    <glyph glyph-name="questiondown" unicode="&#xbf;" horiz-adv-x="497" 
d="M209.5 421.5q-15.5 15.5 -15.5 37.5t15.5 37.5t37.5 15.5t37.5 -15.5t15.5 -37.5t-15.5 -37.5t-37.5 -15.5t-37.5 15.5zM141 -195q-44 23 -68 63.5t-24 91.5q0 58 23 100.5t68 90.5q46 49 61 75.5t16 53.5h66q0 -26 -6 -45t-23.5 -45t-56.5 -72q-42 -50 -59.5 -81.5
t-17.5 -72.5q0 -53 33 -84.5t95 -31.5q59 0 95 30.5t48 78.5l57 -31q-14 -63 -68 -103.5t-135 -40.5q-60 0 -104 23z" />
    <glyph glyph-name="Agrave" unicode="&#xc0;" horiz-adv-x="666" 
d="M480 230h-296l-87 -230h-76l273 710h78l273 -710h-78zM457 293l-125 331l-125 -331h250zM193 917h80l114 -143h-66z" />
    <glyph glyph-name="Aacute" unicode="&#xc1;" horiz-adv-x="666" 
d="M480 230h-296l-87 -230h-76l273 710h78l273 -710h-78zM457 293l-125 331l-125 -331h250zM390 917h79l-128 -143h-66z" />
    <glyph glyph-name="Acircumflex" unicode="&#xc2;" horiz-adv-x="666" 
d="M480 230h-296l-87 -230h-76l273 710h78l273 -710h-78zM457 293l-125 331l-125 -331h250zM295 904h76l120 -130h-66l-92 84l-92 -84h-66z" />
    <glyph glyph-name="Atilde" unicode="&#xc3;" horiz-adv-x="666" 
d="M480 230h-296l-87 -230h-76l273 710h78l273 -710h-78zM457 293l-125 331l-125 -331h250zM200.5 848q20.5 24 52.5 24q28 0 89 -24l35 -13t28 -6q15 0 22.5 10t10.5 33h51q-6 -47 -26 -72.5t-53 -25.5q-17 0 -36.5 6t-49.5 18q-48 19 -64 19q-15 0 -22 -9.5t-13 -33.5h-51
q6 50 26.5 74z" />
    <glyph glyph-name="Adieresis" unicode="&#xc4;" horiz-adv-x="666" 
d="M480 230h-296l-87 -230h-76l273 710h78l273 -710h-78zM457 293l-125 331l-125 -331h250zM192.5 809.5q-14.5 14.5 -14.5 34.5q0 21 14.5 35.5t35.5 14.5q20 0 34.5 -14.5t14.5 -35.5q0 -20 -14.5 -34.5t-34.5 -14.5q-21 0 -35.5 14.5zM405 809.5q-14 14.5 -14 34.5
q0 21 14 35.5t35 14.5t35.5 -14.5t14.5 -35.5q0 -20 -14.5 -34.5t-35.5 -14.5t-35 14.5z" />
    <glyph glyph-name="Aring" unicode="&#xc5;" horiz-adv-x="666" 
d="M480 230h-296l-87 -230h-76l273 710h78l273 -710h-78zM457 293l-125 331l-125 -331h250zM261 776.5q-27 27.5 -27 67.5q0 41 28 68.5t71 27.5q42 0 70 -27.5t28 -68.5q0 -42 -28.5 -68.5t-70.5 -26.5q-44 0 -71 27.5zM367.5 809.5q13.5 13.5 13.5 34.5t-13 34.5t-35 13.5
t-35.5 -13.5t-13.5 -34.5q0 -20 13.5 -34t35.5 -14q21 0 34.5 13.5zM335 710z" />
    <glyph glyph-name="AE" unicode="&#xc6;" horiz-adv-x="920" 
d="M842 68v-68h-396v230h-260l-89 -230h-76l273 710h541v-68h-314v-252h304v-67h-304v-255h321zM446 293v348h-101l-135 -348h236z" />
    <glyph glyph-name="Ccedilla" unicode="&#xc7;" horiz-adv-x="729" 
d="M480 -73q17 -20 17 -49q0 -42 -35 -67t-107 -25v52q45 0 64 10.5t19 30.5q0 18 -15 27t-38 9v78q-93 10 -165.5 59.5t-113 128.5t-40.5 176q0 104 47.5 187t131.5 129.5t188 46.5q68 0 129 -20.5t109 -58.5l-26 -71q-44 37 -98 57.5t-113 20.5q-84 0 -150 -37.5
t-103.5 -104t-37.5 -149.5q0 -84 37.5 -151t104 -105.5t149.5 -38.5q64 0 121.5 22t103.5 58l23 -70q-109 -82 -248 -82v-34q29 -9 46 -29z" />
    <glyph glyph-name="Egrave" unicode="&#xc8;" horiz-adv-x="578" 
d="M103 710h389v-68h-314v-252h305v-67h-305v-255h322v-68h-397v710zM162 917h80l114 -143h-66z" />
    <glyph glyph-name="Eacute" unicode="&#xc9;" horiz-adv-x="578" 
d="M103 710h389v-68h-314v-252h305v-67h-305v-255h322v-68h-397v710zM359 917h79l-128 -143h-66z" />
    <glyph glyph-name="Ecircumflex" unicode="&#xca;" horiz-adv-x="578" 
d="M103 710h389v-68h-314v-252h305v-67h-305v-255h322v-68h-397v710zM264 904h76l120 -130h-66l-92 84l-92 -84h-66z" />
    <glyph glyph-name="Edieresis" unicode="&#xcb;" horiz-adv-x="578" 
d="M103 710h389v-68h-314v-252h305v-67h-305v-255h322v-68h-397v710zM161.5 809.5q-14.5 14.5 -14.5 34.5q0 21 14.5 35.5t35.5 14.5q20 0 34.5 -14.5t14.5 -35.5q0 -20 -14.5 -34.5t-34.5 -14.5q-21 0 -35.5 14.5zM374 809.5q-14 14.5 -14 34.5q0 21 14 35.5t35 14.5
t35.5 -14.5t14.5 -35.5q0 -20 -14.5 -34.5t-35.5 -14.5t-35 14.5z" />
    <glyph glyph-name="Igrave" unicode="&#xcc;" horiz-adv-x="282" 
d="M103 710h75v-710h-75v710zM1 917h80l114 -143h-66z" />
    <glyph glyph-name="Iacute" unicode="&#xcd;" horiz-adv-x="282" 
d="M103 710h75v-710h-75v710zM198 917h79l-128 -143h-66z" />
    <glyph glyph-name="Icircumflex" unicode="&#xce;" horiz-adv-x="282" 
d="M103 710h75v-710h-75v710zM103 904h76l120 -130h-66l-92 84l-92 -84h-66z" />
    <glyph glyph-name="Idieresis" unicode="&#xcf;" horiz-adv-x="282" 
d="M103 710h75v-710h-75v710zM0.5 809.5q-14.5 14.5 -14.5 34.5q0 21 14.5 35.5t35.5 14.5q20 0 34.5 -14.5t14.5 -35.5q0 -20 -14.5 -34.5t-34.5 -14.5q-21 0 -35.5 14.5zM213 809.5q-14 14.5 -14 34.5q0 21 14 35.5t35 14.5t35.5 -14.5t14.5 -35.5q0 -20 -14.5 -34.5
t-35.5 -14.5t-35 14.5z" />
    <glyph glyph-name="Eth" unicode="&#xd0;" horiz-adv-x="757" 
d="M519 666.5q82 -43.5 126.5 -122.5t44.5 -183q0 -108 -44.5 -189.5t-126.5 -126.5t-192 -45h-224v323h-92v65h92v322h224q110 0 192 -43.5zM478.5 104q65.5 36 100.5 101.5t35 154.5q0 85 -35 149t-100.5 98.5t-154.5 34.5h-146v-254h207v-65h-207v-255h145q90 0 155.5 36
z" />
    <glyph glyph-name="Ntilde" unicode="&#xd1;" horiz-adv-x="776" 
d="M673 710v-710h-71l-425 591v-591h-74v710h71l425 -591v591h74zM263.5 848q20.5 24 52.5 24q28 0 89 -24l35 -13t28 -6q15 0 22.5 10t10.5 33h51q-6 -47 -26 -72.5t-53 -25.5q-17 0 -36.5 6t-49.5 18q-48 19 -64 19q-15 0 -22 -9.5t-13 -33.5h-51q6 50 26.5 74z" />
    <glyph glyph-name="Ograve" unicode="&#xd2;" horiz-adv-x="871" 
d="M246.5 37q-84.5 47 -132.5 130.5t-48 187.5t48 187.5t132.5 130.5t189.5 47q104 0 188.5 -47t132.5 -130.5t48 -186.5q0 -104 -48 -187.5t-132.5 -131t-189.5 -47.5q-104 0 -188.5 47zM586 100q67 38 105 105t38 150t-38 150.5t-105 105.5t-150 38q-84 0 -151 -38
t-105 -105.5t-38 -150.5t38 -150t105 -105t151 -38q83 0 150 38zM295 917h80l114 -143h-66z" />
    <glyph glyph-name="Oacute" unicode="&#xd3;" horiz-adv-x="871" 
d="M246.5 37q-84.5 47 -132.5 130.5t-48 187.5t48 187.5t132.5 130.5t189.5 47q104 0 188.5 -47t132.5 -130.5t48 -186.5q0 -104 -48 -187.5t-132.5 -131t-189.5 -47.5q-104 0 -188.5 47zM586 100q67 38 105 105t38 150t-38 150.5t-105 105.5t-150 38q-84 0 -151 -38
t-105 -105.5t-38 -150.5t38 -150t105 -105t151 -38q83 0 150 38zM492 917h79l-128 -143h-66z" />
    <glyph glyph-name="Ocircumflex" unicode="&#xd4;" horiz-adv-x="871" 
d="M246.5 37q-84.5 47 -132.5 130.5t-48 187.5t48 187.5t132.5 130.5t189.5 47q104 0 188.5 -47t132.5 -130.5t48 -186.5q0 -104 -48 -187.5t-132.5 -131t-189.5 -47.5q-104 0 -188.5 47zM586 100q67 38 105 105t38 150t-38 150.5t-105 105.5t-150 38q-84 0 -151 -38
t-105 -105.5t-38 -150.5t38 -150t105 -105t151 -38q83 0 150 38zM397 904h76l120 -130h-66l-92 84l-92 -84h-66z" />
    <glyph glyph-name="Otilde" unicode="&#xd5;" horiz-adv-x="871" 
d="M246.5 37q-84.5 47 -132.5 130.5t-48 187.5t48 187.5t132.5 130.5t189.5 47q104 0 188.5 -47t132.5 -130.5t48 -186.5q0 -104 -48 -187.5t-132.5 -131t-189.5 -47.5q-104 0 -188.5 47zM586 100q67 38 105 105t38 150t-38 150.5t-105 105.5t-150 38q-84 0 -151 -38
t-105 -105.5t-38 -150.5t38 -150t105 -105t151 -38q83 0 150 38zM302.5 848q20.5 24 52.5 24q28 0 89 -24l35 -13t28 -6q15 0 22.5 10t10.5 33h51q-6 -47 -26 -72.5t-53 -25.5q-17 0 -36.5 6t-49.5 18q-48 19 -64 19q-15 0 -22 -9.5t-13 -33.5h-51q6 50 26.5 74z" />
    <glyph glyph-name="Odieresis" unicode="&#xd6;" horiz-adv-x="871" 
d="M246.5 37q-84.5 47 -132.5 130.5t-48 187.5t48 187.5t132.5 130.5t189.5 47q104 0 188.5 -47t132.5 -130.5t48 -186.5q0 -104 -48 -187.5t-132.5 -131t-189.5 -47.5q-104 0 -188.5 47zM586 100q67 38 105 105t38 150t-38 150.5t-105 105.5t-150 38q-84 0 -151 -38
t-105 -105.5t-38 -150.5t38 -150t105 -105t151 -38q83 0 150 38zM294.5 809.5q-14.5 14.5 -14.5 34.5q0 21 14.5 35.5t35.5 14.5q20 0 34.5 -14.5t14.5 -35.5q0 -20 -14.5 -34.5t-34.5 -14.5q-21 0 -35.5 14.5zM507 809.5q-14 14.5 -14 34.5q0 21 14 35.5t35 14.5
t35.5 -14.5t14.5 -35.5q0 -20 -14.5 -34.5t-35.5 -14.5t-35 14.5z" />
    <glyph glyph-name="multiply" unicode="&#xd7;" horiz-adv-x="582" 
d="M433 167l-142 142l-142 -142l-41 42l142 142l-142 141l42 41l141 -141l142 142l41 -41l-142 -142l143 -143z" />
    <glyph glyph-name="Oslash" unicode="&#xd8;" horiz-adv-x="871" 
d="M769 519.5q36 -74.5 36 -163.5q0 -104 -48 -187.5t-132.5 -131t-189.5 -47.5q-97 0 -179 42l-55 -82h-69l76 112q-67 50 -104.5 125.5t-37.5 167.5q0 104 48 187.5t132.5 130.5t189.5 47q102 0 184 -45l57 85h69l-78 -116q65 -50 101 -124.5zM170.5 224
q28.5 -60 78.5 -100l330 491q-63 34 -143 34q-84 0 -151 -38t-105 -105.5t-38 -150.5q0 -71 28.5 -131zM586 100q67 38 105 105t38 150q0 69 -27 128.5t-75 99.5l-329 -489q61 -32 138 -32q83 0 150 38z" />
    <glyph glyph-name="Ugrave" unicode="&#xd9;" horiz-adv-x="741" 
d="M224.5 23.5q-61.5 33.5 -94 94.5t-32.5 142v450h75v-437q0 -104 54 -157.5t144 -53.5t144 53.5t54 157.5v437h75v-450q0 -81 -32.5 -142t-94 -94.5t-146.5 -33.5t-146.5 33.5zM232 917h80l114 -143h-66z" />
    <glyph glyph-name="Uacute" unicode="&#xda;" horiz-adv-x="741" 
d="M224.5 23.5q-61.5 33.5 -94 94.5t-32.5 142v450h75v-437q0 -104 54 -157.5t144 -53.5t144 53.5t54 157.5v437h75v-450q0 -81 -32.5 -142t-94 -94.5t-146.5 -33.5t-146.5 33.5zM429 917h79l-128 -143h-66z" />
    <glyph glyph-name="Ucircumflex" unicode="&#xdb;" horiz-adv-x="741" 
d="M224.5 23.5q-61.5 33.5 -94 94.5t-32.5 142v450h75v-437q0 -104 54 -157.5t144 -53.5t144 53.5t54 157.5v437h75v-450q0 -81 -32.5 -142t-94 -94.5t-146.5 -33.5t-146.5 33.5zM334 904h76l120 -130h-66l-92 84l-92 -84h-66z" />
    <glyph glyph-name="Udieresis" unicode="&#xdc;" horiz-adv-x="741" 
d="M224.5 23.5q-61.5 33.5 -94 94.5t-32.5 142v450h75v-437q0 -104 54 -157.5t144 -53.5t144 53.5t54 157.5v437h75v-450q0 -81 -32.5 -142t-94 -94.5t-146.5 -33.5t-146.5 33.5zM231.5 809.5q-14.5 14.5 -14.5 34.5q0 21 14.5 35.5t35.5 14.5q20 0 34.5 -14.5t14.5 -35.5
q0 -20 -14.5 -34.5t-34.5 -14.5q-21 0 -35.5 14.5zM444 809.5q-14 14.5 -14 34.5q0 21 14 35.5t35 14.5t35.5 -14.5t14.5 -35.5q0 -20 -14.5 -34.5t-35.5 -14.5t-35 14.5z" />
    <glyph glyph-name="Yacute" unicode="&#xdd;" horiz-adv-x="584" 
d="M329 284v-284h-74v284l-253 426h84l209 -352l208 352h79zM347 917h79l-128 -143h-66z" />
    <glyph glyph-name="Thorn" unicode="&#xde;" horiz-adv-x="585" 
d="M477 516.5q62 -58.5 62 -159.5q0 -61 -28 -113t-82 -83t-129 -31h-122v-130h-75v710h75v-135h122q115 0 177 -58.5zM414 239q48 43 48 118q0 80 -46 116t-124 36h-114v-313h114q74 0 122 43z" />
    <glyph glyph-name="germandbls" unicode="&#xdf;" horiz-adv-x="610" 
d="M509.5 351.5q51.5 -51.5 51.5 -137.5q0 -103 -63 -162.5t-168 -59.5q-69 0 -106 17l10 69q37 -21 89 -21q76 0 121 41.5t45 118.5t-56 118.5t-153 41.5h-17v56l23 1q33 2 66.5 18t55.5 48t22 78q0 50 -33 80t-91 30q-62 0 -103.5 -37.5t-41.5 -126.5v-524h-68v533
q0 107 59 163.5t151 56.5q93 0 145.5 -47.5t52.5 -126.5q0 -57 -32 -100.5t-82 -63.5q71 -12 122.5 -63.5z" />
    <glyph glyph-name="agrave" unicode="&#xe0;" horiz-adv-x="577" 
d="M438.5 461.5q52.5 -50.5 52.5 -149.5v-312h-69v88q-24 -44 -73.5 -71t-114.5 -27q-80 0 -125.5 40t-45.5 109q0 57 35.5 91.5t113.5 51t209 17.5v13q0 64 -36.5 101t-105.5 37q-89 0 -165 -61l-20 63q35 26 85.5 43t109.5 17q97 0 149.5 -50.5zM329.5 63.5
q39.5 15.5 65.5 49.5t26 85v50q-109 -1 -171 -12.5t-88 -34t-26 -60.5q0 -43 29 -68t83 -25q42 0 81.5 15.5zM173 725h74l112 -152h-66z" />
    <glyph glyph-name="aacute" unicode="&#xe1;" horiz-adv-x="577" 
d="M438.5 461.5q52.5 -50.5 52.5 -149.5v-312h-69v88q-24 -44 -73.5 -71t-114.5 -27q-80 0 -125.5 40t-45.5 109q0 57 35.5 91.5t113.5 51t209 17.5v13q0 64 -36.5 101t-105.5 37q-89 0 -165 -61l-20 63q35 26 85.5 43t109.5 17q97 0 149.5 -50.5zM329.5 63.5
q39.5 15.5 65.5 49.5t26 85v50q-109 -1 -171 -12.5t-88 -34t-26 -60.5q0 -43 29 -68t83 -25q42 0 81.5 15.5zM349 725h74l-119 -152h-66z" />
    <glyph glyph-name="acircumflex" unicode="&#xe2;" horiz-adv-x="577" 
d="M438.5 461.5q52.5 -50.5 52.5 -149.5v-312h-69v88q-24 -44 -73.5 -71t-114.5 -27q-80 0 -125.5 40t-45.5 109q0 57 35.5 91.5t113.5 51t209 17.5v13q0 64 -36.5 101t-105.5 37q-89 0 -165 -61l-20 63q35 26 85.5 43t109.5 17q97 0 149.5 -50.5zM329.5 63.5
q39.5 15.5 65.5 49.5t26 85v50q-109 -1 -171 -12.5t-88 -34t-26 -60.5q0 -43 29 -68t83 -25q42 0 81.5 15.5zM255 725h76l120 -152h-66l-92 107l-92 -107h-66z" />
    <glyph glyph-name="atilde" unicode="&#xe3;" horiz-adv-x="577" 
d="M438.5 461.5q52.5 -50.5 52.5 -149.5v-312h-69v88q-24 -44 -73.5 -71t-114.5 -27q-80 0 -125.5 40t-45.5 109q0 57 35.5 91.5t113.5 51t209 17.5v13q0 64 -36.5 101t-105.5 37q-89 0 -165 -61l-20 63q35 26 85.5 43t109.5 17q97 0 149.5 -50.5zM329.5 63.5
q39.5 15.5 65.5 49.5t26 85v50q-109 -1 -171 -12.5t-88 -34t-26 -60.5q0 -43 29 -68t83 -25q42 0 81.5 15.5zM162 671q22 24 53 24q28 0 87 -24q19 -8 34 -13.5t25 -5.5q31 0 37 43h51q-6 -49 -28.5 -73.5t-53.5 -24.5q-16 0 -35.5 6t-47.5 18q-45 19 -63 19q-13 0 -21.5 -9
t-14.5 -34h-51q6 50 28 74z" />
    <glyph glyph-name="adieresis" unicode="&#xe4;" horiz-adv-x="577" 
d="M438.5 461.5q52.5 -50.5 52.5 -149.5v-312h-69v88q-24 -44 -73.5 -71t-114.5 -27q-80 0 -125.5 40t-45.5 109q0 57 35.5 91.5t113.5 51t209 17.5v13q0 64 -36.5 101t-105.5 37q-89 0 -165 -61l-20 63q35 26 85.5 43t109.5 17q97 0 149.5 -50.5zM329.5 63.5
q39.5 15.5 65.5 49.5t26 85v50q-109 -1 -171 -12.5t-88 -34t-26 -60.5q0 -43 29 -68t83 -25q42 0 81.5 15.5zM150.5 631.5q-14.5 14.5 -14.5 34.5q0 21 14.5 35.5t35.5 14.5q20 0 34.5 -14.5t14.5 -35.5q0 -20 -14.5 -34.5t-34.5 -14.5q-21 0 -35.5 14.5zM363 631.5
q-14 14.5 -14 34.5q0 21 14 35.5t35 14.5t35.5 -14.5t14.5 -35.5q0 -20 -14.5 -34.5t-35.5 -14.5t-35 14.5z" />
    <glyph glyph-name="aring" unicode="&#xe5;" horiz-adv-x="577" 
d="M438.5 461.5q52.5 -50.5 52.5 -149.5v-312h-69v88q-24 -44 -73.5 -71t-114.5 -27q-80 0 -125.5 40t-45.5 109q0 57 35.5 91.5t113.5 51t209 17.5v13q0 64 -36.5 101t-105.5 37q-89 0 -165 -61l-20 63q35 26 85.5 43t109.5 17q97 0 149.5 -50.5zM329.5 63.5
q39.5 15.5 65.5 49.5t26 85v50q-109 -1 -171 -12.5t-88 -34t-26 -60.5q0 -43 29 -68t83 -25q42 0 81.5 15.5zM221 590q-27 28 -27 69q0 42 28.5 69.5t71.5 27.5t71 -27.5t28 -69.5q0 -43 -29 -70t-72 -27q-44 0 -71 28zM329 624q13 13 13 35t-13 35t-35 13t-35.5 -13
t-13.5 -35t13.5 -35t35.5 -13t35 13z" />
    <glyph glyph-name="ae" unicode="&#xe6;" horiz-adv-x="950" 
d="M906 246h-412q2 -88 54.5 -140t138.5 -52q55 0 103 20t80 50l20 -62q-35 -31 -89.5 -51.5t-117.5 -20.5q-77 0 -135 33.5t-91 90.5q-29 -55 -85 -89.5t-136 -34.5q-81 0 -127 39t-46 109q0 57 35.5 92t113.5 51.5t209 17.5v13q0 64 -36.5 101t-105.5 37q-89 0 -165 -61
l-20 63q35 26 85 43t111 17q67 0 113.5 -25t68.5 -75q34 47 85.5 73.5t112.5 26.5q69 0 122.5 -33t83.5 -91.5t30 -132.5v-9zM832 301q-8 66 -52 107.5t-110 41.5q-63 0 -111.5 -41.5t-60.5 -107.5h334zM329.5 64q39.5 16 65.5 51t26 88v45q-108 -2 -170 -13t-88.5 -34
t-26.5 -61q0 -43 29 -67.5t83 -24.5q42 0 81.5 16z" />
    <glyph glyph-name="ccedilla" unicode="&#xe7;" horiz-adv-x="520" 
d="M356 -73q17 -20 17 -49q0 -42 -35 -67t-107 -25v52q45 0 64 10.5t19 30.5q0 18 -15 27t-38 9v77q-62 8 -110 42.5t-75 90t-27 125.5q0 77 32 136.5t90 92.5t132 33q96 0 172 -53l-23 -64q-66 51 -146 51q-83 0 -134 -53.5t-51 -140.5q0 -58 23 -102.5t63.5 -69
t92.5 -24.5q44 0 86.5 14.5t77.5 39.5l18 -62q-32 -24 -77 -40t-95 -18v-34q29 -9 46 -29z" />
    <glyph glyph-name="egrave" unicode="&#xe8;" horiz-adv-x="576" 
d="M532 246h-412q2 -88 54.5 -140t138.5 -52q55 0 103 20t80 50l20 -62q-35 -31 -89.5 -51.5t-117.5 -20.5q-78 0 -137 34.5t-91 94.5t-32 132q0 74 32.5 133.5t88.5 93.5t126 34q69 0 122.5 -33t83.5 -91.5t30 -132.5v-9zM458 301q-8 66 -52 107.5t-110 41.5
q-63 0 -111.5 -41.5t-60.5 -107.5h334zM180 725h74l112 -152h-66z" />
    <glyph glyph-name="eacute" unicode="&#xe9;" horiz-adv-x="576" 
d="M532 246h-412q2 -88 54.5 -140t138.5 -52q55 0 103 20t80 50l20 -62q-35 -31 -89.5 -51.5t-117.5 -20.5q-78 0 -137 34.5t-91 94.5t-32 132q0 74 32.5 133.5t88.5 93.5t126 34q69 0 122.5 -33t83.5 -91.5t30 -132.5v-9zM458 301q-8 66 -52 107.5t-110 41.5
q-63 0 -111.5 -41.5t-60.5 -107.5h334zM356 725h74l-119 -152h-66z" />
    <glyph glyph-name="ecircumflex" unicode="&#xea;" horiz-adv-x="576" 
d="M532 246h-412q2 -88 54.5 -140t138.5 -52q55 0 103 20t80 50l20 -62q-35 -31 -89.5 -51.5t-117.5 -20.5q-78 0 -137 34.5t-91 94.5t-32 132q0 74 32.5 133.5t88.5 93.5t126 34q69 0 122.5 -33t83.5 -91.5t30 -132.5v-9zM458 301q-8 66 -52 107.5t-110 41.5
q-63 0 -111.5 -41.5t-60.5 -107.5h334zM262 725h76l120 -152h-66l-92 107l-92 -107h-66z" />
    <glyph glyph-name="edieresis" unicode="&#xeb;" horiz-adv-x="576" 
d="M532 246h-412q2 -88 54.5 -140t138.5 -52q55 0 103 20t80 50l20 -62q-35 -31 -89.5 -51.5t-117.5 -20.5q-78 0 -137 34.5t-91 94.5t-32 132q0 74 32.5 133.5t88.5 93.5t126 34q69 0 122.5 -33t83.5 -91.5t30 -132.5v-9zM458 301q-8 66 -52 107.5t-110 41.5
q-63 0 -111.5 -41.5t-60.5 -107.5h334zM157.5 631.5q-14.5 14.5 -14.5 34.5q0 21 14.5 35.5t35.5 14.5q20 0 34.5 -14.5t14.5 -35.5q0 -20 -14.5 -34.5t-34.5 -14.5q-21 0 -35.5 14.5zM370 631.5q-14 14.5 -14 34.5q0 21 14 35.5t35 14.5t35.5 -14.5t14.5 -35.5
q0 -20 -14.5 -34.5t-35.5 -14.5t-35 14.5z" />
    <glyph glyph-name="igrave" unicode="&#xec;" horiz-adv-x="255" 
d="M93 502h70v-502h-70v502zM9 725h74l112 -152h-66z" />
    <glyph glyph-name="iacute" unicode="&#xed;" horiz-adv-x="255" 
d="M93 502h70v-502h-70v502zM185 725h74l-119 -152h-66z" />
    <glyph glyph-name="icircumflex" unicode="&#xee;" horiz-adv-x="255" 
d="M93 502h70v-502h-70v502zM91 725h76l100 -152h-66l-72 106l-72 -106h-66z" />
    <glyph glyph-name="idieresis" unicode="&#xef;" horiz-adv-x="255" 
d="M93 502h70v-502h-70v502zM7.5 630q-14.5 15 -14.5 36q0 22 14.5 36.5t36.5 14.5q21 0 36 -14.5t15 -36.5q0 -21 -15 -36t-36 -15q-22 0 -36.5 15zM176 630q-15 15 -15 36q0 22 15 36.5t36 14.5q22 0 36.5 -14.5t14.5 -36.5q0 -21 -14.5 -36t-36.5 -15q-21 0 -36 15z" />
    <glyph glyph-name="eth" unicode="&#xf0;" horiz-adv-x="624" 
d="M520 470.5q55 -98.5 55 -208.5q0 -81 -33.5 -143t-93 -95.5t-135.5 -33.5t-136 33t-94 92t-34 134t35 134t94.5 92t131.5 33q84 0 151 -62q-51 94 -157 177l-152 -63l-21 50l121 49q-56 37 -106 61l45 40q75 -37 127 -74l135 55l22 -48l-108 -44q98 -80 153 -178.5z
M411 80.5q44 25.5 69 69.5t25 99t-24.5 100t-68 70.5t-97.5 25.5q-55 0 -100 -25t-70.5 -69t-25.5 -100q0 -57 25 -101.5t69 -69.5t99 -25t99 25.5z" />
    <glyph glyph-name="ntilde" unicode="&#xf1;" horiz-adv-x="615" 
d="M480.5 460q47.5 -52 47.5 -153v-307h-70v288q0 79 -34 119.5t-99 40.5q-46 0 -83 -21t-58 -58t-21 -83v-286h-70v502h70v-93q25 48 73 75.5t111 27.5q86 0 133.5 -52zM192 671q22 24 53 24q28 0 87 -24q19 -8 34 -13.5t25 -5.5q31 0 37 43h51q-6 -49 -28.5 -73.5
t-53.5 -24.5q-16 0 -35.5 6t-47.5 18q-45 19 -63 19q-13 0 -21.5 -9t-14.5 -34h-51q6 50 28 74z" />
    <glyph glyph-name="ograve" unicode="&#xf2;" horiz-adv-x="624" 
d="M175.5 23.5q-59.5 33.5 -93 92.5t-33.5 135t33.5 135t93 92.5t136.5 33.5t136.5 -33.5t93 -92.5t33.5 -135t-33.5 -135t-93 -92.5t-136.5 -33.5t-136.5 33.5zM412 81.5q44 24.5 68 68.5t24 101t-24.5 101t-68 68.5t-99.5 24.5t-99.5 -24.5t-67.5 -68.5t-24 -100
q0 -58 24.5 -102t67.5 -68.5t99 -24.5t100 24.5zM192 725h74l112 -152h-66z" />
    <glyph glyph-name="oacute" unicode="&#xf3;" horiz-adv-x="624" 
d="M175.5 23.5q-59.5 33.5 -93 92.5t-33.5 135t33.5 135t93 92.5t136.5 33.5t136.5 -33.5t93 -92.5t33.5 -135t-33.5 -135t-93 -92.5t-136.5 -33.5t-136.5 33.5zM412 81.5q44 24.5 68 68.5t24 101t-24.5 101t-68 68.5t-99.5 24.5t-99.5 -24.5t-67.5 -68.5t-24 -100
q0 -58 24.5 -102t67.5 -68.5t99 -24.5t100 24.5zM368 725h74l-119 -152h-66z" />
    <glyph glyph-name="ocircumflex" unicode="&#xf4;" horiz-adv-x="624" 
d="M175.5 23.5q-59.5 33.5 -93 92.5t-33.5 135t33.5 135t93 92.5t136.5 33.5t136.5 -33.5t93 -92.5t33.5 -135t-33.5 -135t-93 -92.5t-136.5 -33.5t-136.5 33.5zM412 81.5q44 24.5 68 68.5t24 101t-24.5 101t-68 68.5t-99.5 24.5t-99.5 -24.5t-67.5 -68.5t-24 -100
q0 -58 24.5 -102t67.5 -68.5t99 -24.5t100 24.5zM274 725h76l120 -152h-66l-92 107l-92 -107h-66z" />
    <glyph glyph-name="otilde" unicode="&#xf5;" horiz-adv-x="624" 
d="M175.5 23.5q-59.5 33.5 -93 92.5t-33.5 135t33.5 135t93 92.5t136.5 33.5t136.5 -33.5t93 -92.5t33.5 -135t-33.5 -135t-93 -92.5t-136.5 -33.5t-136.5 33.5zM412 81.5q44 24.5 68 68.5t24 101t-24.5 101t-68 68.5t-99.5 24.5t-99.5 -24.5t-67.5 -68.5t-24 -100
q0 -58 24.5 -102t67.5 -68.5t99 -24.5t100 24.5zM181 671q22 24 53 24q28 0 87 -24q19 -8 34 -13.5t25 -5.5q31 0 37 43h51q-6 -49 -28.5 -73.5t-53.5 -24.5q-16 0 -35.5 6t-47.5 18q-45 19 -63 19q-13 0 -21.5 -9t-14.5 -34h-51q6 50 28 74z" />
    <glyph glyph-name="odieresis" unicode="&#xf6;" horiz-adv-x="624" 
d="M175.5 23.5q-59.5 33.5 -93 92.5t-33.5 135t33.5 135t93 92.5t136.5 33.5t136.5 -33.5t93 -92.5t33.5 -135t-33.5 -135t-93 -92.5t-136.5 -33.5t-136.5 33.5zM412 81.5q44 24.5 68 68.5t24 101t-24.5 101t-68 68.5t-99.5 24.5t-99.5 -24.5t-67.5 -68.5t-24 -100
q0 -58 24.5 -102t67.5 -68.5t99 -24.5t100 24.5zM169.5 631.5q-14.5 14.5 -14.5 34.5q0 21 14.5 35.5t35.5 14.5q20 0 34.5 -14.5t14.5 -35.5q0 -20 -14.5 -34.5t-34.5 -14.5q-21 0 -35.5 14.5zM382 631.5q-14 14.5 -14 34.5q0 21 14 35.5t35 14.5t35.5 -14.5t14.5 -35.5
q0 -20 -14.5 -34.5t-35.5 -14.5t-35 14.5z" />
    <glyph glyph-name="divide" unicode="&#xf7;" horiz-adv-x="582" 
d="M255.5 467.5q-14.5 14.5 -14.5 35.5t14.5 35.5t35.5 14.5t35.5 -14.5t14.5 -35.5t-14.5 -35.5t-35.5 -14.5t-35.5 14.5zM66 380h450v-59h-450v59zM255.5 162.5q-14.5 14.5 -14.5 35.5t14.5 35.5t35.5 14.5t35.5 -14.5t14.5 -35.5t-14.5 -35.5t-35.5 -14.5t-35.5 14.5z
" />
    <glyph glyph-name="oslash" unicode="&#xf8;" horiz-adv-x="624" 
d="M552 364.5q23 -51.5 23 -113.5q0 -75 -34 -134.5t-93.5 -93t-135.5 -33.5q-71 0 -129 30l-52 -74h-64l72 103q-43 35 -66.5 87.5t-23.5 114.5q0 75 34 134.5t93.5 93t135.5 33.5q72 0 131 -31l52 73h64l-72 -103q42 -35 65 -86.5zM134.5 169q15.5 -38 44.5 -64l226 321
q-40 21 -93 21q-56 0 -100 -25t-68.5 -69t-24.5 -101q0 -45 15.5 -83zM412 80q44 25 68.5 69.5t24.5 101.5q0 44 -15 81t-42 64l-226 -321q40 -20 90 -20q56 0 100 25z" />
    <glyph glyph-name="ugrave" unicode="&#xf9;" horiz-adv-x="615" 
d="M522 502v-502h-70v95q-24 -50 -72 -77.5t-113 -27.5q-85 0 -133 51.5t-48 152.5v308h70v-289q0 -79 34.5 -119.5t99.5 -40.5q46 0 83 21t58 58t21 84v286h70zM190 725h74l112 -152h-66z" />
    <glyph glyph-name="uacute" unicode="&#xfa;" horiz-adv-x="615" 
d="M522 502v-502h-70v95q-24 -50 -72 -77.5t-113 -27.5q-85 0 -133 51.5t-48 152.5v308h70v-289q0 -79 34.5 -119.5t99.5 -40.5q46 0 83 21t58 58t21 84v286h70zM366 725h74l-119 -152h-66z" />
    <glyph glyph-name="ucircumflex" unicode="&#xfb;" horiz-adv-x="615" 
d="M522 502v-502h-70v95q-24 -50 -72 -77.5t-113 -27.5q-85 0 -133 51.5t-48 152.5v308h70v-289q0 -79 34.5 -119.5t99.5 -40.5q46 0 83 21t58 58t21 84v286h70zM272 725h76l120 -152h-66l-92 107l-92 -107h-66z" />
    <glyph glyph-name="udieresis" unicode="&#xfc;" horiz-adv-x="615" 
d="M522 502v-502h-70v95q-24 -50 -72 -77.5t-113 -27.5q-85 0 -133 51.5t-48 152.5v308h70v-289q0 -79 34.5 -119.5t99.5 -40.5q46 0 83 21t58 58t21 84v286h70zM167.5 631.5q-14.5 14.5 -14.5 34.5q0 21 14.5 35.5t35.5 14.5q20 0 34.5 -14.5t14.5 -35.5q0 -20 -14.5 -34.5
t-34.5 -14.5q-21 0 -35.5 14.5zM380 631.5q-14 14.5 -14 34.5q0 21 14 35.5t35 14.5t35.5 -14.5t14.5 -35.5q0 -20 -14.5 -34.5t-35.5 -14.5t-35 14.5z" />
    <glyph glyph-name="yacute" unicode="&#xfd;" horiz-adv-x="489" 
d="M485 502l-235 -574q-30 -74 -73 -108.5t-105 -34.5q-33 0 -58 8l10 64q18 -5 38 -5q43 0 72 21t53 78l32 74l-215 477h77l175 -394l154 394h75zM302 725h74l-119 -152h-66z" />
    <glyph glyph-name="thorn" unicode="&#xfe;" horiz-adv-x="648" 
d="M483 478.5q55 -33.5 85.5 -93t30.5 -133.5q0 -75 -31 -134.5t-87 -93.5t-128 -34q-56 0 -108.5 28.5t-81.5 82.5v-311h-70v962h70v-351q31 54 84 82.5t112 28.5q69 0 124 -33.5zM441 81q41 25 64 69.5t23 100.5q0 55 -22 99.5t-62.5 70t-94.5 25.5q-53 0 -97 -25
t-69.5 -69.5t-25.5 -99.5t25 -99.5t68.5 -70.5t96.5 -26t94 25z" />
    <glyph glyph-name="ydieresis" unicode="&#xff;" horiz-adv-x="489" 
d="M485 502l-235 -574q-30 -74 -73 -108.5t-105 -34.5q-33 0 -58 8l10 64q18 -5 38 -5q43 0 72 21t53 78l32 74l-215 477h77l175 -394l154 394h75zM103.5 631.5q-14.5 14.5 -14.5 34.5q0 21 14.5 35.5t35.5 14.5q20 0 34.5 -14.5t14.5 -35.5q0 -20 -14.5 -34.5t-34.5 -14.5
q-21 0 -35.5 14.5zM316 631.5q-14 14.5 -14 34.5q0 21 14 35.5t35 14.5t35.5 -14.5t14.5 -35.5q0 -20 -14.5 -34.5t-35.5 -14.5t-35 14.5z" />
    <glyph glyph-name="Amacron" unicode="&#x100;" horiz-adv-x="666" 
d="M480 230h-296l-87 -230h-76l273 710h78l273 -710h-78zM457 293l-125 331l-125 -331h250zM175 863h313v-53h-313v53zM320 710z" />
    <glyph glyph-name="amacron" unicode="&#x101;" horiz-adv-x="577" 
d="M438.5 461.5q52.5 -50.5 52.5 -149.5v-312h-69v88q-24 -44 -73.5 -71t-114.5 -27q-80 0 -125.5 40t-45.5 109q0 57 35.5 91.5t113.5 51t209 17.5v13q0 64 -36.5 101t-105.5 37q-89 0 -165 -61l-20 63q35 26 85.5 43t109.5 17q97 0 149.5 -50.5zM329.5 63.5
q39.5 15.5 65.5 49.5t26 85v50q-109 -1 -171 -12.5t-88 -34t-26 -60.5q0 -43 29 -68t83 -25q42 0 81.5 15.5zM135 679h313v-54h-313v54z" />
    <glyph glyph-name="Abreve" unicode="&#x102;" horiz-adv-x="666" 
d="M480 230h-296l-87 -230h-76l273 710h78l273 -710h-78zM457 293l-125 331l-125 -331h250zM231 807q-37 31 -40 85h55q3 -32 26.5 -49t62.5 -17q37 0 59.5 17.5t26.5 48.5h54q-4 -53 -42.5 -84.5t-98.5 -31.5q-66 0 -103 31z" />
    <glyph glyph-name="abreve" unicode="&#x103;" horiz-adv-x="577" 
d="M438.5 461.5q52.5 -50.5 52.5 -149.5v-312h-69v88q-24 -44 -73.5 -71t-114.5 -27q-80 0 -125.5 40t-45.5 109q0 57 35.5 91.5t113.5 51t209 17.5v13q0 64 -36.5 101t-105.5 37q-89 0 -165 -61l-20 63q35 26 85.5 43t109.5 17q97 0 149.5 -50.5zM329.5 63.5
q39.5 15.5 65.5 49.5t26 85v50q-109 -1 -171 -12.5t-88 -34t-26 -60.5q0 -43 29 -68t83 -25q42 0 81.5 15.5zM191.5 621.5q-37.5 37.5 -39.5 103.5h55q1 -45 24 -68t62 -23q40 0 62 23.5t24 67.5h54q-1 -65 -39.5 -103t-101.5 -38t-100.5 37.5z" />
    <glyph glyph-name="Aogonek" unicode="&#x104;" horiz-adv-x="666" 
d="M480 230h-296l-87 -230h-76l273 710h78l273 -710h-78zM457 293l-125 331l-125 -331h250zM540.5 -170q-27.5 25 -27.5 66q0 32 17 59t48 45h61q-65 -35 -65 -90q0 -27 14 -39.5t38 -12.5q21 0 42 8l12 -47q-12 -6 -30.5 -10t-36.5 -4q-45 0 -72.5 25z" />
    <glyph glyph-name="aogonek" unicode="&#x105;" horiz-adv-x="577" 
d="M526 -181q-12 -6 -30.5 -10t-36.5 -4q-45 0 -72.5 25t-27.5 66q0 32 17 59t48 45h-2v88q-24 -44 -73.5 -71t-114.5 -27q-80 0 -125.5 40t-45.5 109q0 57 35.5 91.5t113.5 51t209 17.5v13q0 64 -36.5 101t-105.5 37q-89 0 -165 -61l-20 63q35 26 85.5 43t109.5 17
q97 0 149.5 -50.5t52.5 -149.5v-312h-6q-65 -35 -65 -90q0 -27 14 -39.5t38 -12.5q21 0 42 8zM329.5 63.5q39.5 15.5 65.5 49.5t26 85v50q-109 -1 -171 -12.5t-88 -34t-26 -60.5q0 -43 29 -68t83 -25q42 0 81.5 15.5z" />
    <glyph glyph-name="Cacute" unicode="&#x106;" horiz-adv-x="729" 
d="M244.5 37.5q-83.5 47.5 -131 131t-47.5 188.5q0 104 47.5 187t131.5 129.5t188 46.5q68 0 129 -20.5t109 -58.5l-26 -71q-44 37 -98 57.5t-113 20.5q-84 0 -150 -37.5t-103.5 -104t-37.5 -149.5q0 -84 37.5 -151t104 -105.5t149.5 -38.5q64 0 121.5 22t103.5 58l23 -70
q-56 -42 -117 -62t-133 -20q-104 0 -187.5 47.5zM486 917h79l-128 -143h-66z" />
    <glyph glyph-name="cacute" unicode="&#x107;" horiz-adv-x="520" 
d="M169.5 22.5q-56.5 32.5 -88.5 92t-32 135.5q0 77 32 136.5t90 92.5t132 33q96 0 172 -53l-23 -64q-66 51 -146 51q-83 0 -134 -53.5t-51 -140.5q0 -58 23 -102.5t63.5 -69t92.5 -24.5q44 0 86.5 14.5t77.5 39.5l18 -62q-35 -26 -83 -42t-102 -16q-71 0 -127.5 32.5z
M355 725h74l-119 -152h-66z" />
    <glyph glyph-name="Ccircumflex" unicode="&#x108;" horiz-adv-x="729" 
d="M244.5 37.5q-83.5 47.5 -131 131t-47.5 188.5q0 104 47.5 187t131.5 129.5t188 46.5q68 0 129 -20.5t109 -58.5l-26 -71q-44 37 -98 57.5t-113 20.5q-84 0 -150 -37.5t-103.5 -104t-37.5 -149.5q0 -84 37.5 -151t104 -105.5t149.5 -38.5q64 0 121.5 22t103.5 58l23 -70
q-56 -42 -117 -62t-133 -20q-104 0 -187.5 47.5zM391 904h76l120 -130h-66l-92 84l-92 -84h-66z" />
    <glyph glyph-name="ccircumflex" unicode="&#x109;" horiz-adv-x="520" 
d="M169.5 22.5q-56.5 32.5 -88.5 92t-32 135.5q0 77 32 136.5t90 92.5t132 33q96 0 172 -53l-23 -64q-66 51 -146 51q-83 0 -134 -53.5t-51 -140.5q0 -58 23 -102.5t63.5 -69t92.5 -24.5q44 0 86.5 14.5t77.5 39.5l18 -62q-35 -26 -83 -42t-102 -16q-71 0 -127.5 32.5z
M261 725h76l120 -152h-66l-92 107l-92 -107h-66z" />
    <glyph glyph-name="Cdotaccent" unicode="&#x10a;" horiz-adv-x="729" 
d="M244.5 37.5q-83.5 47.5 -131 131t-47.5 188.5q0 104 47.5 187t131.5 129.5t188 46.5q68 0 129 -20.5t109 -58.5l-26 -71q-44 37 -98 57.5t-113 20.5q-84 0 -150 -37.5t-103.5 -104t-37.5 -149.5q0 -84 37.5 -151t104 -105.5t149.5 -38.5q64 0 121.5 22t103.5 58l23 -70
q-56 -42 -117 -62t-133 -20q-104 0 -187.5 47.5zM391 805.5q-15 15.5 -15 37.5q0 23 15 38t38 15q22 0 37.5 -15t15.5 -38q0 -22 -15.5 -37.5t-37.5 -15.5q-23 0 -38 15.5z" />
    <glyph glyph-name="cdotaccent" unicode="&#x10b;" horiz-adv-x="520" 
d="M169.5 22.5q-56.5 32.5 -88.5 92t-32 135.5q0 77 32 136.5t90 92.5t132 33q96 0 172 -53l-23 -64q-66 51 -146 51q-83 0 -134 -53.5t-51 -140.5q0 -58 23 -102.5t63.5 -69t92.5 -24.5q44 0 86.5 14.5t77.5 39.5l18 -62q-35 -26 -83 -42t-102 -16q-71 0 -127.5 32.5z
M261 627.5q-15 15.5 -15 37.5q0 23 15 38t38 15q22 0 37.5 -15t15.5 -38q0 -22 -15.5 -37.5t-37.5 -15.5q-23 0 -38 15.5z" />
    <glyph glyph-name="Ccaron" unicode="&#x10c;" horiz-adv-x="729" 
d="M244.5 37.5q-83.5 47.5 -131 131t-47.5 188.5q0 104 47.5 187t131.5 129.5t188 46.5q68 0 129 -20.5t109 -58.5l-26 -71q-44 37 -98 57.5t-113 20.5q-84 0 -150 -37.5t-103.5 -104t-37.5 -149.5q0 -84 37.5 -151t104 -105.5t149.5 -38.5q64 0 121.5 22t103.5 58l23 -70
q-56 -42 -117 -62t-133 -20q-104 0 -187.5 47.5zM467 774h-76l-120 130h66l92 -84l92 84h66z" />
    <glyph glyph-name="ccaron" unicode="&#x10d;" horiz-adv-x="520" 
d="M169.5 22.5q-56.5 32.5 -88.5 92t-32 135.5q0 77 32 136.5t90 92.5t132 33q96 0 172 -53l-23 -64q-66 51 -146 51q-83 0 -134 -53.5t-51 -140.5q0 -58 23 -102.5t63.5 -69t92.5 -24.5q44 0 86.5 14.5t77.5 39.5l18 -62q-35 -26 -83 -42t-102 -16q-71 0 -127.5 32.5z
M146 725h66l88 -106l87 106h66l-116 -152h-75z" />
    <glyph glyph-name="Dcaron" unicode="&#x10e;" horiz-adv-x="757" 
d="M519 666.5q82 -43.5 126.5 -122.5t44.5 -183q0 -108 -44.5 -189.5t-126.5 -126.5t-192 -45h-224v710h224q110 0 192 -43.5zM478.5 104q65.5 36 100.5 101.5t35 154.5q0 85 -35 149t-100.5 98.5t-154.5 34.5h-146v-574h145q90 0 155.5 36zM408 774h-76l-120 130h66l92 -84
l92 84h66z" />
    <glyph glyph-name="dcaron" unicode="&#x10f;" horiz-adv-x="736" 
d="M556 752v-754h-70v105q-32 -58 -82 -85.5t-112 -27.5q-71 0 -126 33.5t-86 92.5t-31 134t31.5 135t86.5 93.5t125 33.5q62 0 113.5 -28t80.5 -82v350h70zM398 82q43 26 68 70.5t25 99.5t-24.5 99t-68 69.5t-96.5 25.5t-94 -24.5t-64 -69t-23 -102.5q0 -86 49.5 -140
t130.5 -54q54 0 97 26zM692 752h73l-77 -210h-58z" />
    <glyph glyph-name="Dcroat" unicode="&#x110;" horiz-adv-x="757" 
d="M519 666.5q82 -43.5 126.5 -122.5t44.5 -183q0 -108 -44.5 -189.5t-126.5 -126.5t-192 -45h-224v323h-92v65h92v322h224q110 0 192 -43.5zM478.5 104q65.5 36 100.5 101.5t35 154.5q0 85 -35 149t-100.5 98.5t-154.5 34.5h-146v-254h207v-65h-207v-255h145q90 0 155.5 36
z" />
    <glyph glyph-name="dcroat" unicode="&#x111;" horiz-adv-x="647" 
d="M628 597h-72v-599h-70v104q-32 -58 -82 -85t-112 -27q-71 0 -126 33t-86 92t-31 133q0 75 31.5 134t86.5 92t125 33q62 0 113.5 -28t80.5 -82v200h-171v56h171v99h70v-99h72v-56zM398 80.5q43 25.5 68 70t25 98.5t-24.5 98t-68 69.5t-96.5 25.5q-52 0 -93.5 -24.5
t-64.5 -68.5t-23 -101q0 -86 49.5 -139.5t130.5 -53.5q54 0 97 25.5z" />
    <glyph glyph-name="Emacron" unicode="&#x112;" horiz-adv-x="578" 
d="M103 710h389v-68h-314v-252h305v-67h-305v-255h322v-68h-397v710zM144 863h313v-53h-313v53zM289 710z" />
    <glyph glyph-name="emacron" unicode="&#x113;" horiz-adv-x="576" 
d="M532 246h-412q2 -88 54.5 -140t138.5 -52q55 0 103 20t80 50l20 -62q-35 -31 -89.5 -51.5t-117.5 -20.5q-78 0 -137 34.5t-91 94.5t-32 132q0 74 32.5 133.5t88.5 93.5t126 34q69 0 122.5 -33t83.5 -91.5t30 -132.5v-9zM458 301q-8 66 -52 107.5t-110 41.5
q-63 0 -111.5 -41.5t-60.5 -107.5h334zM142 679h313v-54h-313v54z" />
    <glyph glyph-name="Ebreve" unicode="&#x114;" horiz-adv-x="578" 
d="M103 710h389v-68h-314v-252h305v-67h-305v-255h322v-68h-397v710zM200 807q-37 31 -40 85h55q3 -32 26.5 -49t62.5 -17q37 0 59.5 17.5t26.5 48.5h54q-4 -53 -42.5 -84.5t-98.5 -31.5q-66 0 -103 31z" />
    <glyph glyph-name="ebreve" unicode="&#x115;" horiz-adv-x="576" 
d="M532 246h-412q2 -88 54.5 -140t138.5 -52q55 0 103 20t80 50l20 -62q-35 -31 -89.5 -51.5t-117.5 -20.5q-78 0 -137 34.5t-91 94.5t-32 132q0 74 32.5 133.5t88.5 93.5t126 34q69 0 122.5 -33t83.5 -91.5t30 -132.5v-9zM458 301q-8 66 -52 107.5t-110 41.5
q-63 0 -111.5 -41.5t-60.5 -107.5h334zM198.5 621.5q-37.5 37.5 -39.5 103.5h55q1 -45 24 -68t62 -23q40 0 62 23.5t24 67.5h54q-1 -65 -39.5 -103t-101.5 -38t-100.5 37.5z" />
    <glyph glyph-name="Edotaccent" unicode="&#x116;" horiz-adv-x="578" 
d="M103 710h389v-68h-314v-252h305v-67h-305v-255h322v-68h-397v710zM264 805.5q-15 15.5 -15 37.5q0 23 15 38t38 15q22 0 37.5 -15t15.5 -38q0 -22 -15.5 -37.5t-37.5 -15.5q-23 0 -38 15.5z" />
    <glyph glyph-name="edotaccent" unicode="&#x117;" horiz-adv-x="576" 
d="M532 246h-412q2 -88 54.5 -140t138.5 -52q55 0 103 20t80 50l20 -62q-35 -31 -89.5 -51.5t-117.5 -20.5q-78 0 -137 34.5t-91 94.5t-32 132q0 74 32.5 133.5t88.5 93.5t126 34q69 0 122.5 -33t83.5 -91.5t30 -132.5v-9zM458 301q-8 66 -52 107.5t-110 41.5
q-63 0 -111.5 -41.5t-60.5 -107.5h334zM262 627.5q-15 15.5 -15 37.5q0 23 15 38t38 15q22 0 37.5 -15t15.5 -38q0 -22 -15.5 -37.5t-37.5 -15.5q-23 0 -38 15.5z" />
    <glyph glyph-name="Eogonek" unicode="&#x118;" horiz-adv-x="578" 
d="M103 710h389v-68h-314v-252h305v-67h-305v-255h322v-68h-397v710zM358.5 -170q-27.5 25 -27.5 66q0 32 17 59t48 45h61q-65 -35 -65 -90q0 -27 14 -39.5t38 -12.5q21 0 42 8l12 -47q-12 -6 -30.5 -10t-36.5 -4q-45 0 -72.5 25z" />
    <glyph glyph-name="eogonek" unicode="&#x119;" horiz-adv-x="576" 
d="M532 246h-412q2 -87 54 -139.5t140 -52.5q54 0 102 20t80 49l20 -61q-19 -18 -54 -40q-45 -30 -66.5 -53.5t-21.5 -58.5q0 -27 13.5 -39.5t37.5 -12.5q21 0 42 8l12 -47q-12 -6 -30.5 -10t-36.5 -4q-44 0 -71.5 25t-27.5 66q0 29 14.5 54.5t40.5 43.5q-25 -4 -58 -4
q-79 0 -138 34.5t-91 94t-32 132.5q0 74 32.5 133.5t88.5 93.5t126 34q69 0 122.5 -33t83.5 -91.5t30 -132.5v-9zM458 301q-8 66 -52 107.5t-110 41.5q-63 0 -111.5 -41.5t-60.5 -107.5h334z" />
    <glyph glyph-name="Ecaron" unicode="&#x11a;" horiz-adv-x="578" 
d="M103 710h389v-68h-314v-252h305v-67h-305v-255h322v-68h-397v710zM340 774h-76l-120 130h66l92 -84l92 84h66z" />
    <glyph glyph-name="ecaron" unicode="&#x11b;" horiz-adv-x="576" 
d="M532 246h-412q2 -88 54.5 -140t138.5 -52q55 0 103 20t80 50l20 -62q-35 -31 -89.5 -51.5t-117.5 -20.5q-78 0 -137 34.5t-91 94.5t-32 132q0 74 32.5 133.5t88.5 93.5t126 34q69 0 122.5 -33t83.5 -91.5t30 -132.5v-9zM458 301q-8 66 -52 107.5t-110 41.5
q-63 0 -111.5 -41.5t-60.5 -107.5h334zM147 725h66l88 -106l87 106h66l-116 -152h-75z" />
    <glyph glyph-name="Gcircumflex" unicode="&#x11c;" horiz-adv-x="821" 
d="M741 336v-336h-70v130q-29 -56 -96.5 -98t-163.5 -42q-99 0 -178 47.5t-123 130.5t-44 187t48 187.5t131.5 130.5t186.5 47q78 0 141.5 -22t123.5 -64l-27 -71q-56 42 -112 63.5t-126 21.5q-83 0 -148.5 -37.5t-103 -104.5t-37.5 -152q0 -84 34.5 -150.5t97 -104
t142.5 -37.5q75 0 132 30.5t87.5 79t32.5 100.5h-244v64h316zM388 904h76l120 -130h-66l-92 84l-92 -84h-66z" />
    <glyph glyph-name="gcircumflex" unicode="&#x11d;" horiz-adv-x="647" 
d="M556 502v-489q0 -113 -69 -172.5t-187 -59.5q-127 0 -212 69l22 69q80 -73 193 -73q85 0 134 42.5t49 125.5v92q-31 -55 -80 -82t-111 -27q-71 0 -127 33t-87.5 91.5t-31.5 131.5t30.5 132t87 93t129.5 34q124 0 190 -108v98h70zM402.5 87.5q42.5 25.5 65.5 69.5t23 98
q0 51 -24 95t-66.5 70.5t-95.5 26.5q-55 0 -97 -25.5t-65 -69.5t-23 -98q0 -55 23.5 -99t66 -68.5t96.5 -24.5t96.5 25.5zM273 725h76l120 -152h-66l-92 107l-92 -107h-66z" />
    <glyph glyph-name="Gbreve" unicode="&#x11e;" horiz-adv-x="821" 
d="M741 336v-336h-70v130q-29 -56 -96.5 -98t-163.5 -42q-99 0 -178 47.5t-123 130.5t-44 187t48 187.5t131.5 130.5t186.5 47q78 0 141.5 -22t123.5 -64l-27 -71q-56 42 -112 63.5t-126 21.5q-83 0 -148.5 -37.5t-103 -104.5t-37.5 -152q0 -84 34.5 -150.5t97 -104
t142.5 -37.5q75 0 132 30.5t87.5 79t32.5 100.5h-244v64h316zM324 807q-37 31 -40 85h55q3 -32 26.5 -49t62.5 -17q37 0 59.5 17.5t26.5 48.5h54q-4 -53 -42.5 -84.5t-98.5 -31.5q-66 0 -103 31z" />
    <glyph glyph-name="gbreve" unicode="&#x11f;" horiz-adv-x="647" 
d="M556 502v-489q0 -113 -69 -172.5t-187 -59.5q-127 0 -212 69l22 69q80 -73 193 -73q85 0 134 42.5t49 125.5v92q-31 -55 -80 -82t-111 -27q-71 0 -127 33t-87.5 91.5t-31.5 131.5t30.5 132t87 93t129.5 34q124 0 190 -108v98h70zM402.5 87.5q42.5 25.5 65.5 69.5t23 98
q0 51 -24 95t-66.5 70.5t-95.5 26.5q-55 0 -97 -25.5t-65 -69.5t-23 -98q0 -55 23.5 -99t66 -68.5t96.5 -24.5t96.5 25.5zM209.5 621.5q-37.5 37.5 -39.5 103.5h55q1 -45 24 -68t62 -23q40 0 62 23.5t24 67.5h54q-1 -65 -39.5 -103t-101.5 -38t-100.5 37.5z" />
    <glyph glyph-name="Gdotaccent" unicode="&#x120;" horiz-adv-x="821" 
d="M741 336v-336h-70v130q-29 -56 -96.5 -98t-163.5 -42q-99 0 -178 47.5t-123 130.5t-44 187t48 187.5t131.5 130.5t186.5 47q78 0 141.5 -22t123.5 -64l-27 -71q-56 42 -112 63.5t-126 21.5q-83 0 -148.5 -37.5t-103 -104.5t-37.5 -152q0 -84 34.5 -150.5t97 -104
t142.5 -37.5q75 0 132 30.5t87.5 79t32.5 100.5h-244v64h316zM388 805.5q-15 15.5 -15 37.5q0 23 15 38t38 15q22 0 37.5 -15t15.5 -38q0 -22 -15.5 -37.5t-37.5 -15.5q-23 0 -38 15.5z" />
    <glyph glyph-name="gdotaccent" unicode="&#x121;" horiz-adv-x="647" 
d="M556 502v-489q0 -113 -69 -172.5t-187 -59.5q-127 0 -212 69l22 69q80 -73 193 -73q85 0 134 42.5t49 125.5v92q-31 -55 -80 -82t-111 -27q-71 0 -127 33t-87.5 91.5t-31.5 131.5t30.5 132t87 93t129.5 34q124 0 190 -108v98h70zM402.5 87.5q42.5 25.5 65.5 69.5t23 98
q0 51 -24 95t-66.5 70.5t-95.5 26.5q-55 0 -97 -25.5t-65 -69.5t-23 -98q0 -55 23.5 -99t66 -68.5t96.5 -24.5t96.5 25.5zM273 627.5q-15 15.5 -15 37.5q0 23 15 38t38 15q22 0 37.5 -15t15.5 -38q0 -22 -15.5 -37.5t-37.5 -15.5q-23 0 -38 15.5z" />
    <glyph glyph-name="Gcommaaccent" unicode="&#x122;" horiz-adv-x="821" 
d="M741 336v-336h-70v130q-29 -56 -96.5 -98t-163.5 -42q-99 0 -178 47.5t-123 130.5t-44 187t48 187.5t131.5 130.5t186.5 47q78 0 141.5 -22t123.5 -64l-27 -71q-56 42 -112 63.5t-126 21.5q-83 0 -148.5 -37.5t-103 -104.5t-37.5 -152q0 -84 34.5 -150.5t97 -104
t142.5 -37.5q75 0 132 30.5t87.5 79t32.5 100.5h-244v64h316zM373 -56h74l-71 -163h-62z" />
    <glyph glyph-name="gcommaaccent" unicode="&#x123;" horiz-adv-x="647" 
d="M556 502v-489q0 -113 -69 -172.5t-187 -59.5q-127 0 -212 69l22 69q80 -73 193 -73q85 0 134 42.5t49 125.5v92q-31 -55 -80 -82t-111 -27q-71 0 -127 33t-87.5 91.5t-31.5 131.5t30.5 132t87 93t129.5 34q124 0 190 -108v98h70zM402.5 87.5q42.5 25.5 65.5 69.5t23 98
q0 51 -24 95t-66.5 70.5t-95.5 26.5q-55 0 -97 -25.5t-65 -69.5t-23 -98q0 -55 23.5 -99t66 -68.5t96.5 -24.5t96.5 25.5zM331 738h62l-65 -165h-74z" />
    <glyph glyph-name="Hcircumflex" unicode="&#x124;" horiz-adv-x="759" 
d="M655 710v-710h-75v321h-402v-321h-75v710h75v-320h402v320h75zM342 904h76l120 -130h-66l-92 84l-92 -84h-66z" />
    <glyph glyph-name="hcircumflex" unicode="&#x125;" horiz-adv-x="615" 
d="M480 461q48 -52 48 -153v-308h-70v290q0 78 -34 118.5t-99 40.5q-46 0 -83 -20.5t-58 -57.5t-21 -83v-288h-70v752h70v-341q25 48 72 75t110 27q87 0 135 -52zM90 924h76l120 -130h-66l-92 84l-92 -84h-66z" />
    <glyph glyph-name="Hbar" unicode="&#x126;" horiz-adv-x="759" 
d="M655 710v-710h-75v321h-402v-321h-75v710h75v-123h402v123h75zM580 390v132h-402v-132h402z" />
    <glyph glyph-name="hbar" unicode="&#x127;" horiz-adv-x="615" 
d="M480 456q48 -52 48 -153v-303h-70v285q0 78 -34 118.5t-99 40.5q-46 0 -83 -20.5t-58 -57.5t-21 -83v-283h-70v596h-73v57h73v99h70v-99h169v-57h-169v-190q25 48 72 75t110 27q87 0 135 -52z" />
    <glyph glyph-name="Itilde" unicode="&#x128;" horiz-adv-x="282" 
d="M103 710h75v-710h-75v710zM8.5 848q20.5 24 52.5 24q28 0 89 -24l35 -13t28 -6q15 0 22.5 10t10.5 33h51q-6 -47 -26 -72.5t-53 -25.5q-17 0 -36.5 6t-49.5 18q-48 19 -64 19q-15 0 -22 -9.5t-13 -33.5h-51q6 50 26.5 74z" />
    <glyph glyph-name="itilde" unicode="&#x129;" horiz-adv-x="255" 
d="M93 502h70v-502h-70v502zM64 695q15 0 30.5 -6t41.5 -18l16.5 -8t20 -8.5t13.5 -2.5q26 0 30 43h51q-11 -98 -73 -98q-15 0 -29.5 5.5t-42.5 18.5q-38 19 -52 19q-11 0 -18 -10t-11 -33h-50q9 98 73 98z" />
    <glyph glyph-name="Imacron" unicode="&#x12a;" horiz-adv-x="282" 
d="M103 710h75v-710h-75v710zM-17 863h313v-53h-313v53zM128 710z" />
    <glyph glyph-name="imacron" unicode="&#x12b;" horiz-adv-x="255" 
d="M93 502h70v-502h-70v502zM1 679h253v-54h-253v54z" />
    <glyph glyph-name="Ibreve" unicode="&#x12c;" horiz-adv-x="282" 
d="M103 710h75v-710h-75v710zM39 807q-37 31 -40 85h55q3 -32 26.5 -49t62.5 -17q37 0 59.5 17.5t26.5 48.5h54q-4 -53 -42.5 -84.5t-98.5 -31.5q-66 0 -103 31z" />
    <glyph glyph-name="ibreve" unicode="&#x12d;" horiz-adv-x="255" 
d="M93 502h70v-502h-70v502zM34.5 620.5q-34.5 36.5 -36.5 104.5h55q3 -91 76 -91q72 0 76 91h54q-1 -67 -36.5 -104t-94.5 -37t-93.5 36.5z" />
    <glyph glyph-name="Iogonek" unicode="&#x12e;" horiz-adv-x="282" 
d="M103 710h75v-710h-75v710zM73.5 -170q-27.5 25 -27.5 66q0 32 17 59t48 45h61q-65 -35 -65 -90q0 -27 14 -39.5t38 -12.5q21 0 42 8l12 -47q-12 -6 -30.5 -10t-36.5 -4q-45 0 -72.5 25z" />
    <glyph glyph-name="iogonek" unicode="&#x12f;" horiz-adv-x="255" 
d="M93 502h70v-502h-70v502zM91 627.5q-15 15.5 -15 37.5q0 23 15 38t38 15q22 0 37.5 -15t15.5 -38q0 -22 -15.5 -37.5t-37.5 -15.5q-23 0 -38 15.5zM57.5 -170q-27.5 25 -27.5 66q0 32 17 59t48 45h61q-65 -35 -65 -90q0 -27 14 -39.5t38 -12.5q21 0 42 8l12 -47
q-12 -6 -30.5 -10t-36.5 -4q-45 0 -72.5 25z" />
    <glyph glyph-name="Idotaccent" unicode="&#x130;" horiz-adv-x="282" 
d="M103 710h75v-710h-75v710zM103 805.5q-15 15.5 -15 37.5q0 23 15 38t38 15q22 0 37.5 -15t15.5 -38q0 -22 -15.5 -37.5t-37.5 -15.5q-23 0 -38 15.5z" />
    <glyph glyph-name="dotlessi" unicode="&#x131;" horiz-adv-x="255" 
d="M93 502h70v-502h-70v502z" />
    <glyph glyph-name="IJ" unicode="&#x132;" horiz-adv-x="680" 
d="M103 710h75v-710h-75v710zM282 11l15 67q18 -9 40 -14.5t41 -5.5q61 0 96.5 44t35.5 132v476h75v-485q0 -114 -53 -174.5t-147 -60.5q-57 0 -103 21z" />
    <glyph glyph-name="ij" unicode="&#x133;" horiz-adv-x="512" 
d="M93 502h70v-502h-70v502zM91 627.5q-15 15.5 -15 37.5q0 23 15 38t38 15q22 0 37.5 -15t15.5 -38q0 -22 -15.5 -37.5t-37.5 -15.5q-23 0 -38 15.5zM234 -209l10 62q19 -6 39 -6q36 0 50.5 22t14.5 82v551h70v-561q0 -84 -30.5 -122t-91.5 -38q-37 0 -62 10zM346 627.5
q-15 15.5 -15 37.5q0 23 15 38t38 15q22 0 37.5 -15t15.5 -38q0 -22 -15.5 -37.5t-37.5 -15.5q-23 0 -38 15.5z" />
    <glyph glyph-name="Jcircumflex" unicode="&#x134;" horiz-adv-x="398" 
d="M0 11l15 67q18 -9 40 -14.5t41 -5.5q61 0 96.5 44t35.5 132v476h75v-485q0 -114 -53 -174.5t-147 -60.5q-57 0 -103 21zM227 904h76l120 -130h-66l-92 84l-92 -84h-66z" />
    <glyph glyph-name="jcircumflex" unicode="&#x135;" horiz-adv-x="257" 
d="M-21 -209l10 62q19 -6 39 -6q36 0 50.5 22t14.5 82v551h70v-561q0 -84 -30.5 -122t-91.5 -38q-37 0 -62 10zM91 725h76l100 -152h-66l-72 106l-72 -106h-66z" />
    <glyph glyph-name="Kcommaaccent" unicode="&#x136;" horiz-adv-x="619" 
d="M513 0l-335 358v-358h-75v710h75v-350l313 350h94l-313 -345l341 -365h-100zM298 -56h74l-71 -163h-62z" />
    <glyph glyph-name="kcommaaccent" unicode="&#x137;" horiz-adv-x="513" 
d="M93 752h70v-488l236 238h94l-243 -237l252 -265h-96l-243 259v-259h-70v752zM238 -56h74l-71 -163h-62z" />
    <glyph glyph-name="kgreenlandic" unicode="&#x138;" horiz-adv-x="513" 
d="M93 502h70v-238l236 238h94l-243 -237l252 -265h-96l-243 259v-259h-70v502z" />
    <glyph glyph-name="Lacute" unicode="&#x139;" horiz-adv-x="515" 
d="M495 69v-69h-392v710h75v-641h317zM220 917h79l-128 -143h-66z" />
    <glyph glyph-name="lacute" unicode="&#x13a;" horiz-adv-x="286" 
d="M117 19.5q-27 29.5 -27 90.5v642h70v-632q0 -66 49 -66q14 0 28.5 4.5t23.5 8.5l11 -59q-32 -18 -79 -18q-49 0 -76 29.5zM209 938h79l-128 -143h-66z" />
    <glyph glyph-name="Lcommaaccent" unicode="&#x13b;" horiz-adv-x="515" 
d="M495 69v-69h-392v710h75v-641h317zM265 -56h74l-71 -163h-62z" />
    <glyph glyph-name="lcommaaccent" unicode="&#x13c;" horiz-adv-x="286" 
d="M117 19.5q-27 29.5 -27 90.5v642h70v-632q0 -66 49 -66q14 0 28.5 4.5t23.5 8.5l11 -59q-32 -18 -79 -18q-49 0 -76 29.5zM136 -56h74l-71 -163h-62z" />
    <glyph glyph-name="Lcaron" unicode="&#x13d;" horiz-adv-x="515" 
d="M495 69v-69h-392v710h75v-641h317zM395 710h73l-77 -210h-58z" />
    <glyph glyph-name="lcaron" unicode="&#x13e;" horiz-adv-x="340" 
d="M117 19.5q-27 29.5 -27 90.5v642h70v-632q0 -66 49 -66q14 0 28.5 4.5t23.5 8.5l11 -59q-32 -18 -79 -18q-49 0 -76 29.5zM296 752h73l-77 -210h-58z" />
    <glyph glyph-name="Ldot" unicode="&#x13f;" horiz-adv-x="515" 
d="M495 69v-69h-392v710h75v-641h317zM363 352.5q-15 15.5 -15 37.5q0 23 15 38t38 15q22 0 37.5 -15t15.5 -38q0 -22 -15.5 -37.5t-37.5 -15.5q-23 0 -38 15.5z" />
    <glyph glyph-name="ldot" unicode="&#x140;" horiz-adv-x="301" 
d="M117 19.5q-27 29.5 -27 90.5v642h70v-632q0 -66 49 -66q14 0 28.5 4.5t23.5 8.5l11 -59q-32 -18 -79 -18q-49 0 -76 29.5zM239 361.5q-15 15.5 -15 37.5q0 23 15 38t38 15q22 0 37.5 -15t15.5 -38q0 -22 -15.5 -37.5t-37.5 -15.5q-23 0 -38 15.5z" />
    <glyph glyph-name="Lslash" unicode="&#x141;" horiz-adv-x="515" 
d="M495 69v-69h-392v279l-78 -45v72l78 45v359h75v-315l153 88v-73l-153 -88v-253h317z" />
    <glyph glyph-name="lslash" unicode="&#x142;" horiz-adv-x="289" 
d="M274 8q-32 -18 -79 -18q-49 0 -76 29.5t-27 90.5v218l-71 -41v66l71 41v358h70v-318l98 57v-66l-98 -57v-248q0 -66 49 -66q14 0 28.5 4.5t23.5 8.5z" />
    <glyph glyph-name="Nacute" unicode="&#x143;" horiz-adv-x="776" 
d="M673 710v-710h-71l-425 591v-591h-74v710h71l425 -591v591h74zM453 917h79l-128 -143h-66z" />
    <glyph glyph-name="nacute" unicode="&#x144;" horiz-adv-x="615" 
d="M480.5 460q47.5 -52 47.5 -153v-307h-70v288q0 79 -34 119.5t-99 40.5q-46 0 -83 -21t-58 -58t-21 -83v-286h-70v502h70v-93q25 48 73 75.5t111 27.5q86 0 133.5 -52zM379 725h74l-119 -152h-66z" />
    <glyph glyph-name="Ncommaaccent" unicode="&#x145;" horiz-adv-x="776" 
d="M673 710v-710h-71l-425 591v-591h-74v710h71l425 -591v591h74zM350 -56h74l-71 -163h-62z" />
    <glyph glyph-name="ncommaaccent" unicode="&#x146;" horiz-adv-x="615" 
d="M480.5 460q47.5 -52 47.5 -153v-307h-70v288q0 79 -34 119.5t-99 40.5q-46 0 -83 -21t-58 -58t-21 -83v-286h-70v502h70v-93q25 48 73 75.5t111 27.5q86 0 133.5 -52zM284 -56h74l-71 -163h-62z" />
    <glyph glyph-name="Ncaron" unicode="&#x147;" horiz-adv-x="776" 
d="M673 710v-710h-71l-425 591v-591h-74v710h71l425 -591v591h74zM434 774h-76l-120 130h66l92 -84l92 84h66z" />
    <glyph glyph-name="ncaron" unicode="&#x148;" horiz-adv-x="615" 
d="M480.5 460q47.5 -52 47.5 -153v-307h-70v288q0 79 -34 119.5t-99 40.5q-46 0 -83 -21t-58 -58t-21 -83v-286h-70v502h70v-93q25 48 73 75.5t111 27.5q86 0 133.5 -52zM170 725h66l88 -106l87 106h66l-116 -152h-75z" />
    <glyph glyph-name="napostrophe" unicode="&#x149;" horiz-adv-x="638" 
d="M503.5 460q47.5 -52 47.5 -153v-307h-70v288q0 79 -34 119.5t-99 40.5q-46 0 -83 -21t-58 -58t-21 -83v-286h-70v502h70v-93q25 48 73 75.5t111 27.5q86 0 133.5 -52zM31 710h78l-83 -203h-62z" />
    <glyph glyph-name="Eng" unicode="&#x14a;" horiz-adv-x="776" 
d="M673 710v-713q0 -101 -53.5 -159.5t-143.5 -58.5q-58 0 -104 21l15 65q40 -20 79 -20q65 0 99 38.5t34 110.5v26l-422 572v-592h-74v710h71l425 -575v575h74z" />
    <glyph glyph-name="eng" unicode="&#x14b;" horiz-adv-x="615" 
d="M345 -209l10 62q20 -6 39 -6q36 0 50 21.5t14 82.5v337q0 79 -34 119.5t-99 40.5q-46 0 -83 -21t-58 -58t-21 -83v-286h-70v502h70v-95q25 49 72 77t112 28q86 0 133.5 -52t47.5 -153v-366q0 -86 -29 -123t-93 -37q-36 0 -61 10z" />
    <glyph glyph-name="Omacron" unicode="&#x14c;" horiz-adv-x="871" 
d="M246.5 37q-84.5 47 -132.5 130.5t-48 187.5t48 187.5t132.5 130.5t189.5 47q104 0 188.5 -47t132.5 -130.5t48 -186.5q0 -104 -48 -187.5t-132.5 -131t-189.5 -47.5q-104 0 -188.5 47zM586 100q67 38 105 105t38 150t-38 150.5t-105 105.5t-150 38q-84 0 -151 -38
t-105 -105.5t-38 -150.5t38 -150t105 -105t151 -38q83 0 150 38zM277 863h313v-53h-313v53zM422 710z" />
    <glyph glyph-name="omacron" unicode="&#x14d;" horiz-adv-x="624" 
d="M175.5 23.5q-59.5 33.5 -93 92.5t-33.5 135t33.5 135t93 92.5t136.5 33.5t136.5 -33.5t93 -92.5t33.5 -135t-33.5 -135t-93 -92.5t-136.5 -33.5t-136.5 33.5zM412 81.5q44 24.5 68 68.5t24 101t-24.5 101t-68 68.5t-99.5 24.5t-99.5 -24.5t-67.5 -68.5t-24 -100
q0 -58 24.5 -102t67.5 -68.5t99 -24.5t100 24.5zM154 679h313v-54h-313v54z" />
    <glyph glyph-name="Obreve" unicode="&#x14e;" horiz-adv-x="871" 
d="M246.5 37q-84.5 47 -132.5 130.5t-48 187.5t48 187.5t132.5 130.5t189.5 47q104 0 188.5 -47t132.5 -130.5t48 -186.5q0 -104 -48 -187.5t-132.5 -131t-189.5 -47.5q-104 0 -188.5 47zM586 100q67 38 105 105t38 150t-38 150.5t-105 105.5t-150 38q-84 0 -151 -38
t-105 -105.5t-38 -150.5t38 -150t105 -105t151 -38q83 0 150 38zM333 807q-37 31 -40 85h55q3 -32 26.5 -49t62.5 -17q37 0 59.5 17.5t26.5 48.5h54q-4 -53 -42.5 -84.5t-98.5 -31.5q-66 0 -103 31z" />
    <glyph glyph-name="obreve" unicode="&#x14f;" horiz-adv-x="624" 
d="M175.5 23.5q-59.5 33.5 -93 92.5t-33.5 135t33.5 135t93 92.5t136.5 33.5t136.5 -33.5t93 -92.5t33.5 -135t-33.5 -135t-93 -92.5t-136.5 -33.5t-136.5 33.5zM412 81.5q44 24.5 68 68.5t24 101t-24.5 101t-68 68.5t-99.5 24.5t-99.5 -24.5t-67.5 -68.5t-24 -100
q0 -58 24.5 -102t67.5 -68.5t99 -24.5t100 24.5zM210.5 621.5q-37.5 37.5 -39.5 103.5h55q1 -45 24 -68t62 -23q40 0 62 23.5t24 67.5h54q-1 -65 -39.5 -103t-101.5 -38t-100.5 37.5z" />
    <glyph glyph-name="Ohungarumlaut" unicode="&#x150;" horiz-adv-x="871" 
d="M246.5 37q-84.5 47 -132.5 130.5t-48 187.5t48 187.5t132.5 130.5t189.5 47q104 0 188.5 -47t132.5 -130.5t48 -186.5q0 -104 -48 -187.5t-132.5 -131t-189.5 -47.5q-104 0 -188.5 47zM586 100q67 38 105 105t38 150t-38 150.5t-105 105.5t-150 38q-84 0 -151 -38
t-105 -105.5t-38 -150.5t38 -150t105 -105t151 -38q83 0 150 38zM434 918h74l-124 -144h-66zM580 918h74l-124 -144h-66z" />
    <glyph glyph-name="ohungarumlaut" unicode="&#x151;" horiz-adv-x="624" 
d="M175.5 23.5q-59.5 33.5 -93 92.5t-33.5 135t33.5 135t93 92.5t136.5 33.5t136.5 -33.5t93 -92.5t33.5 -135t-33.5 -135t-93 -92.5t-136.5 -33.5t-136.5 33.5zM412 81.5q44 24.5 68 68.5t24 101t-24.5 101t-68 68.5t-99.5 24.5t-99.5 -24.5t-67.5 -68.5t-24 -100
q0 -58 24.5 -102t67.5 -68.5t99 -24.5t100 24.5zM297 725h74l-120 -152h-66zM443 725h74l-120 -152h-66z" />
    <glyph glyph-name="OE" unicode="&#x152;" horiz-adv-x="1204" 
d="M1126 68v-68h-396v136q-49 -68 -126 -107t-171 -39q-103 0 -187 47t-132 130.5t-48 187.5t48 187.5t132.5 130.5t187.5 47q93 0 170 -38.5t126 -105.5v134h388v-68h-313v-252h304v-67h-304v-255h321zM585.5 100q67.5 38 105.5 105t38 150t-38 150t-105 105t-150 38
t-150 -38t-105 -105t-38 -150t38 -150t104.5 -105t149.5 -38t150.5 38z" />
    <glyph glyph-name="oe" unicode="&#x153;" horiz-adv-x="1031" 
d="M987 246h-412q2 -88 54.5 -140t138.5 -52q55 0 103 20t80 50l20 -62q-35 -31 -89.5 -51.5t-117.5 -20.5q-76 0 -133.5 32.5t-90.5 89.5q-33 -57 -93 -89.5t-135 -32.5q-77 0 -136.5 33.5t-93 92.5t-33.5 135t33.5 135t93 92.5t136.5 33.5q75 0 134 -32.5t93 -89.5
q33 57 88.5 89.5t123.5 32.5q69 0 122.5 -33t83.5 -91.5t30 -132.5v-9zM913 301q-8 66 -52 107.5t-110 41.5q-63 0 -111.5 -41.5t-60.5 -107.5h334zM412 81.5q44 24.5 68 68.5t24 101t-24.5 101t-68 68.5t-99.5 24.5t-99.5 -24.5t-67.5 -68.5t-24 -100q0 -58 24.5 -102
t67.5 -68.5t99 -24.5t100 24.5z" />
    <glyph glyph-name="Racute" unicode="&#x154;" horiz-adv-x="632" 
d="M509 0l-194 297h-16h-121v-297h-75v710h204q103 0 163.5 -55t60.5 -148q0 -69 -38 -121.5t-104 -74.5l209 -311h-89zM409.5 396.5q45.5 35.5 45.5 108.5q0 71 -44.5 105t-110.5 34h-122v-283h119q67 0 112.5 35.5zM359 917h79l-128 -143h-66z" />
    <glyph glyph-name="racute" unicode="&#x155;" horiz-adv-x="364" 
d="M353 502l-17 -68q-30 10 -51 10q-61 0 -92 -48t-31 -129v-267h-69v502h69v-90q21 54 53 77.5t77 23.5q36 0 61 -11zM282 725h74l-119 -152h-66z" />
    <glyph glyph-name="Rcommaaccent" unicode="&#x156;" horiz-adv-x="632" 
d="M509 0l-194 297h-16h-121v-297h-75v710h204q103 0 163.5 -55t60.5 -148q0 -69 -38 -121.5t-104 -74.5l209 -311h-89zM409.5 396.5q45.5 35.5 45.5 108.5q0 71 -44.5 105t-110.5 34h-122v-283h119q67 0 112.5 35.5zM300 -56h74l-71 -163h-62z" />
    <glyph glyph-name="rcommaaccent" unicode="&#x157;" horiz-adv-x="364" 
d="M353 502l-17 -68q-30 10 -51 10q-61 0 -92 -48t-31 -129v-267h-69v502h69v-90q21 54 53 77.5t77 23.5q36 0 61 -11zM87 -56h74l-71 -163h-62z" />
    <glyph glyph-name="Rcaron" unicode="&#x158;" horiz-adv-x="632" 
d="M509 0l-194 297h-16h-121v-297h-75v710h204q103 0 163.5 -55t60.5 -148q0 -69 -38 -121.5t-104 -74.5l209 -311h-89zM409.5 396.5q45.5 35.5 45.5 108.5q0 71 -44.5 105t-110.5 34h-122v-283h119q67 0 112.5 35.5zM340 774h-76l-120 130h66l92 -84l92 84h66z" />
    <glyph glyph-name="rcaron" unicode="&#x159;" horiz-adv-x="364" 
d="M353 502l-17 -68q-30 10 -51 10q-61 0 -92 -48t-31 -129v-267h-69v502h69v-90q21 54 53 77.5t77 23.5q36 0 61 -11zM264 574h-76l-100 152h66l72 -106l72 106h66z" />
    <glyph glyph-name="Sacute" unicode="&#x15a;" horiz-adv-x="583" 
d="M166.5 9q-57.5 19 -102.5 52l21 73q41 -35 95 -55t111 -20q70 0 110 33t40 94q0 39 -19 63t-50.5 40t-92.5 38q-65 24 -106 47t-67 60.5t-26 94.5q0 58 28.5 101.5t80 67t118.5 23.5q50 0 98.5 -12.5t86.5 -33.5l-18 -71q-37 22 -82.5 35.5t-89.5 13.5
q-67 0 -107.5 -32.5t-40.5 -86.5q0 -38 19 -63t50 -41t88 -38q9 -4 20 -7q65 -25 101 -44.5t59.5 -55.5t23.5 -94q0 -95 -63 -148t-167 -53q-61 0 -118.5 19zM351 917h79l-128 -143h-66z" />
    <glyph glyph-name="sacute" unicode="&#x15b;" horiz-adv-x="480" 
d="M135 5q-48 15 -75 39l19 62q28 -24 70.5 -40.5t89.5 -16.5q52 0 82 22.5t30 61.5q0 25 -14 40.5t-38 26t-72 25.5t-79.5 30t-52 42.5t-20.5 70.5q0 67 48.5 105.5t128.5 38.5q45 0 84 -12t68 -30l-15 -62q-69 45 -139 45q-48 0 -76.5 -21t-28.5 -57t28.5 -54.5
t87.5 -34.5q77 -22 118 -52.5t41 -93.5q0 -68 -49.5 -109t-135.5 -41q-52 0 -100 15zM298 725h74l-119 -152h-66z" />
    <glyph glyph-name="Scircumflex" unicode="&#x15c;" horiz-adv-x="583" 
d="M166.5 9q-57.5 19 -102.5 52l21 73q41 -35 95 -55t111 -20q70 0 110 33t40 94q0 39 -19 63t-50.5 40t-92.5 38q-65 24 -106 47t-67 60.5t-26 94.5q0 58 28.5 101.5t80 67t118.5 23.5q50 0 98.5 -12.5t86.5 -33.5l-18 -71q-37 22 -82.5 35.5t-89.5 13.5
q-67 0 -107.5 -32.5t-40.5 -86.5q0 -38 19 -63t50 -41t88 -38q9 -4 20 -7q65 -25 101 -44.5t59.5 -55.5t23.5 -94q0 -95 -63 -148t-167 -53q-61 0 -118.5 19zM256 904h76l120 -130h-66l-92 84l-92 -84h-66z" />
    <glyph glyph-name="scircumflex" unicode="&#x15d;" horiz-adv-x="480" 
d="M135 5q-48 15 -75 39l19 62q28 -24 70.5 -40.5t89.5 -16.5q52 0 82 22.5t30 61.5q0 25 -14 40.5t-38 26t-72 25.5t-79.5 30t-52 42.5t-20.5 70.5q0 67 48.5 105.5t128.5 38.5q45 0 84 -12t68 -30l-15 -62q-69 45 -139 45q-48 0 -76.5 -21t-28.5 -57t28.5 -54.5
t87.5 -34.5q77 -22 118 -52.5t41 -93.5q0 -68 -49.5 -109t-135.5 -41q-52 0 -100 15zM204 725h76l120 -152h-66l-92 107l-92 -107h-66z" />
    <glyph glyph-name="Scedilla" unicode="&#x15e;" horiz-adv-x="583" 
d="M458 48.5q-57 -52.5 -152 -57.5v-35q29 -9 46 -29t17 -49q0 -42 -35 -67t-107 -25v52q45 0 64 10.5t19 30.5q0 18 -15 27t-38 9v76q-53 4 -103.5 22t-89.5 48l21 73q41 -35 95 -55t111 -20q70 0 110 33t40 94q0 39 -19 63t-50.5 40t-92.5 38q-65 24 -106 47t-67 60.5
t-26 94.5q0 58 28.5 101.5t80 67t118.5 23.5q50 0 98.5 -12.5t86.5 -33.5l-18 -71q-37 22 -82.5 35.5t-89.5 13.5q-67 0 -107.5 -32.5t-40.5 -86.5q0 -38 19 -63t50 -41t88 -38q9 -4 20 -7q65 -25 101 -44.5t59.5 -55.5t23.5 -94q0 -90 -57 -142.5z" />
    <glyph glyph-name="scedilla" unicode="&#x15f;" horiz-adv-x="480" 
d="M377 36.5q-43 -40.5 -119 -45.5v-35q29 -9 46 -29t17 -49q0 -42 -35 -67t-107 -25v52q45 0 64 10.5t19 30.5q0 18 -15 27t-38 9v76q-45 4 -85 18.5t-64 34.5l19 62q28 -24 70.5 -40.5t89.5 -16.5q52 0 82 22.5t30 61.5q0 25 -14 40.5t-38 26t-72 25.5t-79.5 30t-52 42.5
t-20.5 70.5q0 67 48.5 105.5t128.5 38.5q45 0 84 -12t68 -30l-15 -62q-69 45 -139 45q-48 0 -76.5 -21t-28.5 -57t28.5 -54.5t87.5 -34.5q77 -22 118 -52.5t41 -93.5t-43 -103.5z" />
    <glyph glyph-name="Scaron" unicode="&#x160;" horiz-adv-x="583" 
d="M166.5 9q-57.5 19 -102.5 52l21 73q41 -35 95 -55t111 -20q70 0 110 33t40 94q0 39 -19 63t-50.5 40t-92.5 38q-65 24 -106 47t-67 60.5t-26 94.5q0 58 28.5 101.5t80 67t118.5 23.5q50 0 98.5 -12.5t86.5 -33.5l-18 -71q-37 22 -82.5 35.5t-89.5 13.5
q-67 0 -107.5 -32.5t-40.5 -86.5q0 -38 19 -63t50 -41t88 -38q9 -4 20 -7q65 -25 101 -44.5t59.5 -55.5t23.5 -94q0 -95 -63 -148t-167 -53q-61 0 -118.5 19zM332 774h-76l-120 130h66l92 -84l92 84h66z" />
    <glyph glyph-name="scaron" unicode="&#x161;" horiz-adv-x="480" 
d="M135 5q-48 15 -75 39l19 62q28 -24 70.5 -40.5t89.5 -16.5q52 0 82 22.5t30 61.5q0 25 -14 40.5t-38 26t-72 25.5t-79.5 30t-52 42.5t-20.5 70.5q0 67 48.5 105.5t128.5 38.5q45 0 84 -12t68 -30l-15 -62q-69 45 -139 45q-48 0 -76.5 -21t-28.5 -57t28.5 -54.5
t87.5 -34.5q77 -22 118 -52.5t41 -93.5q0 -68 -49.5 -109t-135.5 -41q-52 0 -100 15zM89 725h66l88 -106l87 106h66l-116 -152h-75z" />
    <glyph glyph-name="uni0162" unicode="&#x162;" horiz-adv-x="522" 
d="M497 642h-196v-642h-75v642h-201v68h472v-68zM334 -73q17 -20 17 -49q0 -42 -35 -67t-107 -25v52q45 0 64 10.5t19 30.5q0 18 -15 27t-38 9v85h49v-44q29 -9 46 -29z" />
    <glyph glyph-name="uni0163" unicode="&#x163;" horiz-adv-x="359" 
d="M285 -73q17 -20 17 -49q0 -42 -35 -67t-107 -25v52q45 0 64 10.5t19 30.5q0 18 -15 27t-38 9v82q-38 12 -59 44.5t-21 84.5v315h-71v61h71v147l70 12v-159h146v-61h-146v-307q0 -39 18.5 -58.5t52.5 -19.5q42 0 90 30l14 -61q-21 -15 -51.5 -25t-64.5 -10v-34
q29 -9 46 -29z" />
    <glyph glyph-name="Tcaron" unicode="&#x164;" horiz-adv-x="522" 
d="M497 642h-196v-642h-75v642h-201v68h472v-68zM299 774h-76l-120 130h66l92 -84l92 84h66z" />
    <glyph glyph-name="tcaron" unicode="&#x165;" horiz-adv-x="366" 
d="M144.5 24.5q-34.5 34.5 -34.5 101.5v315h-71v61h71v147l70 12v-159h146v-61h-146v-307q0 -39 18.5 -58.5t52.5 -19.5q42 0 90 30l14 -61q-21 -15 -52 -25t-65 -10q-59 0 -93.5 34.5zM341 774h73l-77 -210h-58z" />
    <glyph glyph-name="Tbar" unicode="&#x166;" horiz-adv-x="522" 
d="M301 642v-219h165v-68h-165v-355h-75v355h-168v68h168v219h-201v68h472v-68h-196z" />
    <glyph glyph-name="tbar" unicode="&#x167;" horiz-adv-x="359" 
d="M355 25q-21 -15 -52 -25t-65 -10q-59 0 -93.5 34.5t-34.5 101.5v138h-71v56h71v121h-71v61h71v147l70 12v-159h146v-61h-146v-121h146v-56h-146v-130q0 -39 18.5 -58.5t52.5 -19.5q42 0 90 30z" />
    <glyph glyph-name="Utilde" unicode="&#x168;" horiz-adv-x="741" 
d="M224.5 23.5q-61.5 33.5 -94 94.5t-32.5 142v450h75v-437q0 -104 54 -157.5t144 -53.5t144 53.5t54 157.5v437h75v-450q0 -81 -32.5 -142t-94 -94.5t-146.5 -33.5t-146.5 33.5zM239.5 848q20.5 24 52.5 24q28 0 89 -24l35 -13t28 -6q15 0 22.5 10t10.5 33h51
q-6 -47 -26 -72.5t-53 -25.5q-17 0 -36.5 6t-49.5 18q-48 19 -64 19q-15 0 -22 -9.5t-13 -33.5h-51q6 50 26.5 74z" />
    <glyph glyph-name="utilde" unicode="&#x169;" horiz-adv-x="615" 
d="M522 502v-502h-70v95q-24 -50 -72 -77.5t-113 -27.5q-85 0 -133 51.5t-48 152.5v308h70v-289q0 -79 34.5 -119.5t99.5 -40.5q46 0 83 21t58 58t21 84v286h70zM179 671q22 24 53 24q28 0 87 -24q19 -8 34 -13.5t25 -5.5q31 0 37 43h51q-6 -49 -28.5 -73.5t-53.5 -24.5
q-16 0 -35.5 6t-47.5 18q-45 19 -63 19q-13 0 -21.5 -9t-14.5 -34h-51q6 50 28 74z" />
    <glyph glyph-name="Umacron" unicode="&#x16a;" horiz-adv-x="741" 
d="M224.5 23.5q-61.5 33.5 -94 94.5t-32.5 142v450h75v-437q0 -104 54 -157.5t144 -53.5t144 53.5t54 157.5v437h75v-450q0 -81 -32.5 -142t-94 -94.5t-146.5 -33.5t-146.5 33.5zM214 863h313v-53h-313v53zM359 710z" />
    <glyph glyph-name="umacron" unicode="&#x16b;" horiz-adv-x="615" 
d="M522 502v-502h-70v95q-24 -50 -72 -77.5t-113 -27.5q-85 0 -133 51.5t-48 152.5v308h70v-289q0 -79 34.5 -119.5t99.5 -40.5q46 0 83 21t58 58t21 84v286h70zM152 679h313v-54h-313v54z" />
    <glyph glyph-name="Ubreve" unicode="&#x16c;" horiz-adv-x="741" 
d="M224.5 23.5q-61.5 33.5 -94 94.5t-32.5 142v450h75v-437q0 -104 54 -157.5t144 -53.5t144 53.5t54 157.5v437h75v-450q0 -81 -32.5 -142t-94 -94.5t-146.5 -33.5t-146.5 33.5zM270 807q-37 31 -40 85h55q3 -32 26.5 -49t62.5 -17q37 0 59.5 17.5t26.5 48.5h54
q-4 -53 -42.5 -84.5t-98.5 -31.5q-66 0 -103 31z" />
    <glyph glyph-name="ubreve" unicode="&#x16d;" horiz-adv-x="615" 
d="M522 502v-502h-70v95q-24 -50 -72 -77.5t-113 -27.5q-85 0 -133 51.5t-48 152.5v308h70v-289q0 -79 34.5 -119.5t99.5 -40.5q46 0 83 21t58 58t21 84v286h70zM208.5 621.5q-37.5 37.5 -39.5 103.5h55q1 -45 24 -68t62 -23q40 0 62 23.5t24 67.5h54q-1 -65 -39.5 -103
t-101.5 -38t-100.5 37.5z" />
    <glyph glyph-name="Uring" unicode="&#x16e;" horiz-adv-x="741" 
d="M224.5 23.5q-61.5 33.5 -94 94.5t-32.5 142v450h75v-437q0 -104 54 -157.5t144 -53.5t144 53.5t54 157.5v437h75v-450q0 -81 -32.5 -142t-94 -94.5t-146.5 -33.5t-146.5 33.5zM300 776.5q-27 27.5 -27 67.5q0 41 28 68.5t71 27.5q42 0 70 -27.5t28 -68.5
q0 -42 -28.5 -68.5t-70.5 -26.5q-44 0 -71 27.5zM406.5 809.5q13.5 13.5 13.5 34.5t-13 34.5t-35 13.5t-35.5 -13.5t-13.5 -34.5q0 -20 13.5 -34t35.5 -14q21 0 34.5 13.5zM374 710z" />
    <glyph glyph-name="uring" unicode="&#x16f;" horiz-adv-x="615" 
d="M522 502v-502h-70v95q-24 -50 -72 -77.5t-113 -27.5q-85 0 -133 51.5t-48 152.5v308h70v-289q0 -79 34.5 -119.5t99.5 -40.5q46 0 83 21t58 58t21 84v286h70zM238 590q-27 28 -27 69q0 42 28.5 69.5t71.5 27.5t71 -27.5t28 -69.5q0 -43 -29 -70t-72 -27q-44 0 -71 28z
M346 624q13 13 13 35t-13 35t-35 13t-35.5 -13t-13.5 -35t13.5 -35t35.5 -13t35 13z" />
    <glyph glyph-name="Uhungarumlaut" unicode="&#x170;" horiz-adv-x="741" 
d="M224.5 23.5q-61.5 33.5 -94 94.5t-32.5 142v450h75v-437q0 -104 54 -157.5t144 -53.5t144 53.5t54 157.5v437h75v-450q0 -81 -32.5 -142t-94 -94.5t-146.5 -33.5t-146.5 33.5zM371 918h74l-124 -144h-66zM517 918h74l-124 -144h-66z" />
    <glyph glyph-name="uhungarumlaut" unicode="&#x171;" horiz-adv-x="615" 
d="M522 502v-502h-70v95q-24 -50 -72 -77.5t-113 -27.5q-85 0 -133 51.5t-48 152.5v308h70v-289q0 -79 34.5 -119.5t99.5 -40.5q46 0 83 21t58 58t21 84v286h70zM295 725h74l-120 -152h-66zM441 725h74l-120 -152h-66z" />
    <glyph glyph-name="Uogonek" unicode="&#x172;" horiz-adv-x="741" 
d="M644 710v-452q0 -75 -29.5 -127.5t-83.5 -94.5q-28 -23 -43.5 -37.5t-29.5 -38t-14 -51.5q0 -25 14 -38t38 -13q20 0 41 8l12 -47q-12 -6 -30 -10t-36 -4q-46 0 -73 25t-27 66q0 61 48 99q-24 -5 -61 -5q-83 0 -144.5 36t-94.5 97.5t-33 134.5v452h75v-440
q0 -97 55 -152.5t143 -55.5t143 55.5t55 152.5v440h75z" />
    <glyph glyph-name="uogonek" unicode="&#x173;" horiz-adv-x="615" 
d="M564 -181q-12 -6 -30.5 -10t-36.5 -4q-45 0 -72.5 25t-27.5 66q0 32 17 59t48 45h-10v95q-24 -50 -72 -77.5t-113 -27.5q-85 0 -133 51.5t-48 152.5v308h70v-289q0 -79 34.5 -119.5t99.5 -40.5q46 0 83 21t58 58t21 84v286h70v-502h1q-65 -35 -65 -90q0 -27 14 -39.5
t38 -12.5q21 0 42 8z" />
    <glyph glyph-name="Wcircumflex" unicode="&#x174;" horiz-adv-x="971" 
d="M947 710l-204 -710h-77l-180 602l-182 -602h-76l-204 710h80l167 -601l180 601h75l178 -598l167 598h76zM451 904h76l120 -130h-66l-92 84l-92 -84h-66z" />
    <glyph glyph-name="wcircumflex" unicode="&#x175;" horiz-adv-x="778" 
d="M764 502l-166 -502h-73l-134 413l-135 -413h-73l-169 502h77l133 -418l135 418h64l135 -415l131 415h75zM352 725h76l120 -152h-66l-92 107l-92 -107h-66z" />
    <glyph glyph-name="Ycircumflex" unicode="&#x176;" horiz-adv-x="584" 
d="M329 284v-284h-74v284l-253 426h84l209 -352l208 352h79zM252 904h76l120 -130h-66l-92 84l-92 -84h-66z" />
    <glyph glyph-name="ycircumflex" unicode="&#x177;" horiz-adv-x="489" 
d="M485 502l-235 -574q-30 -74 -73 -108.5t-105 -34.5q-33 0 -58 8l10 64q18 -5 38 -5q43 0 72 21t53 78l32 74l-215 477h77l175 -394l154 394h75zM208 725h76l120 -152h-66l-92 107l-92 -107h-66z" />
    <glyph glyph-name="Ydieresis" unicode="&#x178;" horiz-adv-x="584" 
d="M329 284v-284h-74v284l-253 426h84l209 -352l208 352h79zM149.5 809.5q-14.5 14.5 -14.5 34.5q0 21 14.5 35.5t35.5 14.5q20 0 34.5 -14.5t14.5 -35.5q0 -20 -14.5 -34.5t-34.5 -14.5q-21 0 -35.5 14.5zM362 809.5q-14 14.5 -14 34.5q0 21 14 35.5t35 14.5t35.5 -14.5
t14.5 -35.5q0 -20 -14.5 -34.5t-35.5 -14.5t-35 14.5z" />
    <glyph glyph-name="Zacute" unicode="&#x179;" horiz-adv-x="621" 
d="M558 68v-68h-488v39l382 603h-372v68h474v-38l-380 -604h384zM370 917h79l-128 -143h-66z" />
    <glyph glyph-name="zacute" unicode="&#x17a;" horiz-adv-x="492" 
d="M48 33l287 408h-278v61h377v-35l-283 -406h289v-61h-392v33zM301 725h74l-119 -152h-66z" />
    <glyph glyph-name="Zdotaccent" unicode="&#x17b;" horiz-adv-x="621" 
d="M558 68v-68h-488v39l382 603h-372v68h474v-38l-380 -604h384zM275 805.5q-15 15.5 -15 37.5q0 23 15 38t38 15q22 0 37.5 -15t15.5 -38q0 -22 -15.5 -37.5t-37.5 -15.5q-23 0 -38 15.5z" />
    <glyph glyph-name="zdotaccent" unicode="&#x17c;" horiz-adv-x="492" 
d="M48 33l287 408h-278v61h377v-35l-283 -406h289v-61h-392v33zM207 627.5q-15 15.5 -15 37.5q0 23 15 38t38 15q22 0 37.5 -15t15.5 -38q0 -22 -15.5 -37.5t-37.5 -15.5q-23 0 -38 15.5z" />
    <glyph glyph-name="Zcaron" unicode="&#x17d;" horiz-adv-x="621" 
d="M558 68v-68h-488v39l382 603h-372v68h474v-38l-380 -604h384zM351 774h-76l-120 130h66l92 -84l92 84h66z" />
    <glyph glyph-name="zcaron" unicode="&#x17e;" horiz-adv-x="492" 
d="M48 33l287 408h-278v61h377v-35l-283 -406h289v-61h-392v33zM92 725h66l88 -106l87 106h66l-116 -152h-75z" />
    <glyph glyph-name="florin" unicode="&#x192;" horiz-adv-x="582" 
d="M68 -163q-26 6 -44 15l27 63q12 -8 30.5 -13.5t37.5 -5.5q71 0 89 107l77 438h-88l11 61h88l16 90q14 77 55 119.5t103 42.5q23 0 48.5 -7t42.5 -18l-24 -59q-12 8 -30.5 13.5t-37.5 5.5q-70 0 -89 -104l-14 -83h122l-11 -61h-122l-79 -448q-14 -77 -55 -119.5
t-103 -42.5q-24 0 -50 6z" />
    <glyph glyph-name="Scommaaccent" unicode="&#x218;" horiz-adv-x="583" 
d="M166.5 9q-57.5 19 -102.5 52l21 73q41 -35 95 -55t111 -20q70 0 110 33t40 94q0 39 -19 63t-50.5 40t-92.5 38q-65 24 -106 47t-67 60.5t-26 94.5q0 58 28.5 101.5t80 67t118.5 23.5q50 0 98.5 -12.5t86.5 -33.5l-18 -71q-37 22 -82.5 35.5t-89.5 13.5
q-67 0 -107.5 -32.5t-40.5 -86.5q0 -38 19 -63t50 -41t88 -38q9 -4 20 -7q65 -25 101 -44.5t59.5 -55.5t23.5 -94q0 -95 -63 -148t-167 -53q-61 0 -118.5 19zM241 -56h74l-71 -163h-62z" />
    <glyph glyph-name="scommaaccent" unicode="&#x219;" horiz-adv-x="480" 
d="M135 5q-48 15 -75 39l19 62q28 -24 70.5 -40.5t89.5 -16.5q52 0 82 22.5t30 61.5q0 25 -14 40.5t-38 26t-72 25.5t-79.5 30t-52 42.5t-20.5 70.5q0 67 48.5 105.5t128.5 38.5q45 0 84 -12t68 -30l-15 -62q-69 45 -139 45q-48 0 -76.5 -21t-28.5 -57t28.5 -54.5
t87.5 -34.5q77 -22 118 -52.5t41 -93.5q0 -68 -49.5 -109t-135.5 -41q-52 0 -100 15zM193 -56h74l-71 -163h-62z" />
    <glyph glyph-name="uni021A" unicode="&#x21a;" horiz-adv-x="522" 
d="M497 642h-196v-642h-75v642h-201v68h472v-68zM223 -56h74l-71 -163h-62z" />
    <glyph glyph-name="uni021B" unicode="&#x21b;" horiz-adv-x="359" 
d="M144.5 24.5q-34.5 34.5 -34.5 101.5v315h-71v61h71v147l70 12v-159h146v-61h-146v-307q0 -39 18.5 -58.5t52.5 -19.5q42 0 90 30l14 -61q-21 -15 -52 -25t-65 -10q-59 0 -93.5 34.5zM174 -56h74l-71 -163h-62z" />
    <glyph glyph-name="Wgrave" unicode="&#x1e80;" horiz-adv-x="971" 
d="M947 710l-204 -710h-77l-180 602l-182 -602h-76l-204 710h80l167 -601l180 601h75l178 -598l167 598h76zM349 917h80l114 -143h-66z" />
    <glyph glyph-name="wgrave" unicode="&#x1e81;" horiz-adv-x="778" 
d="M764 502l-166 -502h-73l-134 413l-135 -413h-73l-169 502h77l133 -418l135 418h64l135 -415l131 415h75zM270 725h74l112 -152h-66z" />
    <glyph glyph-name="Wacute" unicode="&#x1e82;" horiz-adv-x="971" 
d="M947 710l-204 -710h-77l-180 602l-182 -602h-76l-204 710h80l167 -601l180 601h75l178 -598l167 598h76zM546 917h79l-128 -143h-66z" />
    <glyph glyph-name="wacute" unicode="&#x1e83;" horiz-adv-x="778" 
d="M764 502l-166 -502h-73l-134 413l-135 -413h-73l-169 502h77l133 -418l135 418h64l135 -415l131 415h75zM446 725h74l-119 -152h-66z" />
    <glyph glyph-name="Wdieresis" unicode="&#x1e84;" horiz-adv-x="971" 
d="M947 710l-204 -710h-77l-180 602l-182 -602h-76l-204 710h80l167 -601l180 601h75l178 -598l167 598h76zM348.5 809.5q-14.5 14.5 -14.5 34.5q0 21 14.5 35.5t35.5 14.5q20 0 34.5 -14.5t14.5 -35.5q0 -20 -14.5 -34.5t-34.5 -14.5q-21 0 -35.5 14.5zM561 809.5
q-14 14.5 -14 34.5q0 21 14 35.5t35 14.5t35.5 -14.5t14.5 -35.5q0 -20 -14.5 -34.5t-35.5 -14.5t-35 14.5z" />
    <glyph glyph-name="wdieresis" unicode="&#x1e85;" horiz-adv-x="778" 
d="M764 502l-166 -502h-73l-134 413l-135 -413h-73l-169 502h77l133 -418l135 418h64l135 -415l131 415h75zM247.5 631.5q-14.5 14.5 -14.5 34.5q0 21 14.5 35.5t35.5 14.5q20 0 34.5 -14.5t14.5 -35.5q0 -20 -14.5 -34.5t-34.5 -14.5q-21 0 -35.5 14.5zM460 631.5
q-14 14.5 -14 34.5q0 21 14 35.5t35 14.5t35.5 -14.5t14.5 -35.5q0 -20 -14.5 -34.5t-35.5 -14.5t-35 14.5z" />
    <glyph glyph-name="uni1E9E" unicode="&#x1e9e;" horiz-adv-x="748" 
d="M610.5 369q68.5 -54 68.5 -153q0 -66 -29.5 -117t-84.5 -80t-129 -29q-108 0 -195 58l26 69q79 -61 171 -61q77 0 122 42t45 115q0 58 -30.5 93t-92 51.5t-160.5 20.5v64l224 142q-34 37 -74.5 54.5t-93.5 17.5q-103 0 -154.5 -64t-51.5 -185v-407h-74v419q0 89 32 157
t95 106t154 38q152 0 239 -108v-53l-206 -131q130 -5 198.5 -59z" />
    <glyph glyph-name="Ygrave" unicode="&#x1ef2;" horiz-adv-x="584" 
d="M329 284v-284h-74v284l-253 426h84l209 -352l208 352h79zM150 917h80l114 -143h-66z" />
    <glyph glyph-name="ygrave" unicode="&#x1ef3;" horiz-adv-x="489" 
d="M485 502l-235 -574q-30 -74 -73 -108.5t-105 -34.5q-33 0 -58 8l10 64q18 -5 38 -5q43 0 72 21t53 78l32 74l-215 477h77l175 -394l154 394h75zM126 725h74l112 -152h-66z" />
    <glyph glyph-name="uni0237" unicode="&#x237;" horiz-adv-x="257" 
d="M-21 -209l10 62q19 -6 39 -6q36 0 50.5 22t14.5 82v551h70v-561q0 -84 -30.5 -122t-91.5 -38q-37 0 -62 10z" />
    <glyph glyph-name="circumflex" unicode="&#x2c6;" horiz-adv-x="400" 
d="M370 725h76l120 -152h-66l-92 107l-92 -107h-66z" />
    <glyph glyph-name="caron" unicode="&#x2c7;" horiz-adv-x="400" 
d="M250 725h66l88 -106l87 106h66l-116 -152h-75z" />
    <glyph glyph-name="uni02C9" unicode="&#x2c9;" horiz-adv-x="400" 
d="M251 679h313v-54h-313v54z" />
    <glyph glyph-name="breve" unicode="&#x2d8;" horiz-adv-x="400" 
d="M289.5 621.5q-37.5 37.5 -39.5 103.5h55q1 -45 24 -68t62 -23q40 0 62 23.5t24 67.5h54q-1 -65 -39.5 -103t-101.5 -38t-100.5 37.5z" />
    <glyph glyph-name="dotaccent" unicode="&#x2d9;" horiz-adv-x="400" 
d="M265 627.5q-15 15.5 -15 37.5q0 23 15 38t38 15q22 0 37.5 -15t15.5 -38q0 -22 -15.5 -37.5t-37.5 -15.5q-23 0 -38 15.5z" />
    <glyph glyph-name="ring" unicode="&#x2da;" horiz-adv-x="400" 
d="M277 590q-27 28 -27 69q0 42 28.5 69.5t71.5 27.5t71 -27.5t28 -69.5q0 -43 -29 -70t-72 -27q-44 0 -71 28zM385 624q13 13 13 35t-13 35t-35 13t-35.5 -13t-13.5 -35t13.5 -35t35.5 -13t35 13z" />
    <glyph glyph-name="ogonek" unicode="&#x2db;" horiz-adv-x="400" 
d="M287.5 -170q-27.5 25 -27.5 66q0 32 17 59t48 45h61q-65 -35 -65 -90q0 -27 14 -39.5t38 -12.5q21 0 42 8l12 -47q-12 -6 -30.5 -10t-36.5 -4q-45 0 -72.5 25z" />
    <glyph glyph-name="tilde" unicode="&#x2dc;" horiz-adv-x="400" 
d="M279 671q22 24 53 24q28 0 87 -24q19 -8 34 -13.5t25 -5.5q31 0 37 43h51q-6 -49 -28.5 -73.5t-53.5 -24.5q-16 0 -35.5 6t-47.5 18q-45 19 -63 19q-13 0 -21.5 -9t-14.5 -34h-51q6 50 28 74z" />
    <glyph glyph-name="hungarumlaut" unicode="&#x2dd;" horiz-adv-x="400" 
d="M340 725h74l-120 -152h-66zM486 725h74l-120 -152h-66z" />
    <glyph glyph-name="endash" unicode="&#x2013;" horiz-adv-x="560" 
d="M50 302h460v-61h-460v61z" />
    <glyph glyph-name="emdash" unicode="&#x2014;" horiz-adv-x="1060" 
d="M50 302h960v-61h-960v61z" />
    <glyph glyph-name="quoteleft" unicode="&#x2018;" horiz-adv-x="221" 
d="M123 710h60l-66 -203h-79z" />
    <glyph glyph-name="quoteright" unicode="&#x2019;" horiz-adv-x="221" 
d="M105 710h78l-83 -203h-62z" />
    <glyph glyph-name="quotesinglbase" unicode="&#x201a;" horiz-adv-x="221" 
d="M105 101h78l-83 -203h-62z" />
    <glyph glyph-name="quotedblleft" unicode="&#x201c;" horiz-adv-x="388" 
d="M123 710h60l-66 -203h-79zM290 710h59l-65 -203h-79z" />
    <glyph glyph-name="quotedblright" unicode="&#x201d;" horiz-adv-x="388" 
d="M104 710h79l-85 -203h-60zM270 710h79l-84 -203h-60z" />
    <glyph glyph-name="quotedblbase" unicode="&#x201e;" horiz-adv-x="388" 
d="M104 101h79l-85 -203h-60zM270 101h79l-84 -203h-60z" />
    <glyph glyph-name="dagger" unicode="&#x2020;" horiz-adv-x="503" 
d="M478 478l-202 11l11 -603h-71l11 603l-202 -11v71l202 -11l-11 214h71l-11 -213l202 10v-71z" />
    <glyph glyph-name="daggerdbl" unicode="&#x2021;" horiz-adv-x="503" 
d="M275 489v-259l203 10v-71l-202 10l11 -293h-71l11 294l-202 -11v71l203 -10v259l-203 -11v71l202 -11l-11 214h71l-11 -213l202 10v-71z" />
    <glyph glyph-name="bullet" unicode="&#x2022;" horiz-adv-x="390" 
d="M118.5 242.5q-31.5 31.5 -31.5 76.5q0 46 31.5 77.5t76.5 31.5t76.5 -31.5t31.5 -77.5q0 -45 -31.5 -76.5t-76.5 -31.5t-76.5 31.5z" />
    <glyph glyph-name="ellipsis" unicode="&#x2026;" horiz-adv-x="871" 
d="M402 4q-15 15 -15 37t15 37.5t37 15.5q23 0 38 -15t15 -38q0 -22 -15.5 -37t-37.5 -15t-37 15zM689 4q-15 15 -15 37t15 37.5t37 15.5q23 0 38 -15t15 -38q0 -22 -15.5 -37t-37.5 -15t-37 15zM108 4q-15 15 -15 37t15 37.5t37 15.5q23 0 38 -15t15 -38q0 -22 -15.5 -37
t-37.5 -15t-37 15z" />
    <glyph glyph-name="perthousand" unicode="&#x2030;" horiz-adv-x="1049" 
d="M69.5 399.5q-38.5 48.5 -38.5 134.5t38.5 134t106.5 48t107 -48.5t39 -133.5q0 -86 -39 -134.5t-107 -48.5t-106.5 48.5zM537 710h62l-420 -710h-61zM262 534q0 130 -86 130q-85 0 -85 -130q0 -131 85 -131q86 0 86 131zM433.5 42.5q-38.5 48.5 -38.5 134.5t38.5 134
t107.5 48q68 0 106.5 -48.5t38.5 -133.5q0 -86 -38.5 -134.5t-106.5 -48.5q-69 0 -107.5 48.5zM766.5 42.5q-38.5 48.5 -38.5 134.5t38.5 134t106.5 48t106.5 -48t38.5 -134t-38.5 -134.5t-106.5 -48.5t-106.5 48.5zM626 177q0 130 -85 130q-86 0 -86 -130q0 -131 86 -131
q85 0 85 131zM958 177q0 130 -85 130t-85 -130q0 -131 85 -131t85 131z" />
    <glyph glyph-name="guilsinglleft" unicode="&#x2039;" horiz-adv-x="307" 
d="M30 260l165 200h82l-170 -200l170 -200h-82z" />
    <glyph glyph-name="guilsinglright" unicode="&#x203a;" horiz-adv-x="307" 
d="M30 60l170 200l-170 200h82l165 -200l-165 -200h-82z" />
    <glyph glyph-name="fraction" unicode="&#x2044;" horiz-adv-x="171" 
d="M331 710h66l-557 -710h-66z" />
    <glyph glyph-name="uni2070" unicode="&#x2070;" horiz-adv-x="414" 
d="M88 484.5q-35 57.5 -35 162.5t35.5 163.5t118.5 58.5q84 0 119 -58.5t35 -163.5q0 -104 -35.5 -162t-118.5 -58q-84 0 -119 57.5zM282 523q19 43 19 125q0 81 -19 124.5t-75 43.5t-75 -44t-19 -125t19 -124t75 -43t75 43z" />
    <glyph glyph-name="uni2074" unicode="&#x2074;" horiz-adv-x="404" 
d="M237 526h-206v39l217 299h49v-289h64v-49h-64v-91h-60v91zM237 575v196l-142 -196h142z" />
    <glyph glyph-name="uni2075" unicode="&#x2075;" horiz-adv-x="420" 
d="M111 444q-37 15 -59 40l30 48q46 -51 112 -51q46 0 74 23.5t28 61.5t-26.5 60t-73.5 22q-42 0 -78 -22l-35 12l26 223h230v-54h-185l-14 -122q30 14 67 14q66 0 107 -36.5t41 -96.5q0 -62 -44 -99.5t-118 -37.5q-45 0 -82 15z" />
    <glyph glyph-name="uni2076" unicode="&#x2076;" horiz-adv-x="410" 
d="M323.5 670q39.5 -38 39.5 -99q0 -40 -19.5 -73t-54.5 -52t-79 -19q-70 0 -116.5 48.5t-46.5 139.5q0 112 67.5 183t208.5 71l13 -51q-108 -1 -162.5 -41.5t-66.5 -115.5q19 21 48.5 34t65.5 13q63 0 102.5 -38zM279.5 503q26.5 26 26.5 66q0 42 -25.5 66.5t-68.5 24.5
q-37 0 -66.5 -18t-42.5 -44q3 -60 32 -90.5t75 -30.5q43 0 69.5 26z" />
    <glyph glyph-name="uni2077" unicode="&#x2077;" horiz-adv-x="413" 
d="M291 807h-240v54h305v-36l-188 -390h-64z" />
    <glyph glyph-name="uni2078" unicode="&#x2078;" horiz-adv-x="413" 
d="M92 460.5q-42 35.5 -42 93.5q0 83 92 113q-35 14 -53 38t-18 56q0 48 38 79.5t98 31.5q59 0 96.5 -31t37.5 -79q0 -32 -17.5 -56.5t-52.5 -38.5q46 -15 69 -42t23 -69q0 -59 -41.5 -95t-114.5 -36t-115 35.5zM264 710q21 19 21 49q0 29 -21 47t-56 18q-36 0 -58 -18
t-22 -47q0 -30 22 -49t58 -19q35 0 56 19zM279 496.5q26 22.5 26 58.5q0 38 -28 61t-71 23q-42 0 -69 -22t-27 -61q0 -36 25.5 -59t71.5 -23t72 22.5z" />
    <glyph glyph-name="uni2079" unicode="&#x2079;" horiz-adv-x="410" 
d="M316.5 822.5q46.5 -48.5 46.5 -139.5q0 -114 -65.5 -185t-201.5 -71l-12 51q197 1 221 160q-20 -22 -50 -36t-66 -14q-63 0 -103 39t-40 100q0 40 20 73t55.5 52t79.5 19q69 0 115.5 -48.5zM263.5 654.5q29.5 17.5 44.5 44.5q-4 59 -33.5 90.5t-71.5 31.5q-43 0 -71 -27
t-28 -66q0 -40 26 -65.5t68 -25.5q36 0 65.5 17.5z" />
    <glyph glyph-name="uni207A" unicode="&#x207a;" horiz-adv-x="392" 
d="M170 610h-122v53h122v121h53v-121h121v-53h-121v-121h-53v121z" />
    <glyph glyph-name="uni207B" unicode="&#x207b;" horiz-adv-x="392" 
d="M48 663h296v-53h-296v53z" />
    <glyph glyph-name="uni207C" unicode="&#x207c;" horiz-adv-x="392" 
d="M48 729h296v-53h-296v53zM48 598h296v-53h-296v53z" />
    <glyph glyph-name="uni207D" unicode="&#x207d;" horiz-adv-x="248" 
d="M92 446.5q-37 74.5 -37 202.5q0 141 40.5 209.5t122.5 68.5v-51q-57 0 -82.5 -54t-25.5 -173t25.5 -172.5t82.5 -53.5v-51q-89 0 -126 74.5z" />
    <glyph glyph-name="uni207E" unicode="&#x207e;" horiz-adv-x="248" 
d="M30 423q57 0 82.5 54t25.5 173t-25.5 172.5t-82.5 53.5v51q89 0 126 -74.5t37 -202.5q0 -141 -40.5 -209.5t-122.5 -68.5v51z" />
    <glyph glyph-name="uni2080" unicode="&#x2080;" horiz-adv-x="414" 
d="M88 -95.5q-35 57.5 -35 162.5t35.5 163.5t118.5 58.5q84 0 119 -58.5t35 -163.5q0 -104 -35.5 -162t-118.5 -58q-84 0 -119 57.5zM282 -57q19 43 19 125q0 81 -19 124.5t-75 43.5t-75 -44t-19 -125t19 -124t75 -43t75 43z" />
    <glyph glyph-name="uni2081" unicode="&#x2081;" horiz-adv-x="355" 
d="M214 285v-430h-59v351l-101 -62v58l136 83h24z" />
    <glyph glyph-name="uni2082" unicode="&#x2082;" horiz-adv-x="422" 
d="M61 -109l151 156q39 40 56.5 67t17.5 54q0 31 -21 49.5t-59 18.5q-34 0 -62 -13t-54 -39l-26 45q26 29 63.5 45t81.5 16q62 0 99 -33t37 -85q0 -38 -23 -74t-69 -81l-106 -108h213v-54h-299v36z" />
    <glyph glyph-name="uni2083" unicode="&#x2083;" horiz-adv-x="416" 
d="M111.5 -139.5q-38.5 15.5 -61.5 43.5l30 48q48 -53 116 -53q46 0 73 21.5t27 56.5q0 39 -34.5 59t-96.5 20v48q55 0 83.5 22t28.5 52q0 26 -21 42t-56 16q-57 0 -110 -49l-27 47q60 56 140 56q60 0 96 -29t36 -76q0 -37 -23 -63t-64 -37q55 -13 81 -42t26 -70
q0 -56 -44 -92t-116 -36q-45 0 -83.5 15.5z" />
    <glyph glyph-name="uni2084" unicode="&#x2084;" horiz-adv-x="404" 
d="M237 -54h-206v39l217 299h49v-289h64v-49h-64v-91h-60v91zM237 -5v196l-142 -196h142z" />
    <glyph glyph-name="uni2085" unicode="&#x2085;" horiz-adv-x="420" 
d="M111 -136q-37 15 -59 40l30 48q46 -51 112 -51q46 0 74 23.5t28 61.5t-26.5 60t-73.5 22q-42 0 -78 -22l-35 12l26 223h230v-54h-185l-14 -122q30 14 67 14q66 0 107 -36.5t41 -96.5q0 -62 -44 -99.5t-118 -37.5q-45 0 -82 15z" />
    <glyph glyph-name="uni2086" unicode="&#x2086;" horiz-adv-x="410" 
d="M323.5 90q39.5 -38 39.5 -99q0 -40 -19.5 -73t-54.5 -52t-79 -19q-70 0 -116.5 48.5t-46.5 139.5q0 112 67.5 183t208.5 71l13 -51q-108 -1 -162.5 -41.5t-66.5 -115.5q19 21 48.5 34t65.5 13q63 0 102.5 -38zM279.5 -77q26.5 26 26.5 66q0 42 -25.5 66.5t-68.5 24.5
q-37 0 -66.5 -18t-42.5 -44q3 -60 32 -90.5t75 -30.5q43 0 69.5 26z" />
    <glyph glyph-name="uni2087" unicode="&#x2087;" horiz-adv-x="413" 
d="M291 227h-240v54h305v-36l-188 -390h-64z" />
    <glyph glyph-name="uni2088" unicode="&#x2088;" horiz-adv-x="413" 
d="M92 -119.5q-42 35.5 -42 93.5q0 83 92 113q-35 14 -53 38t-18 56q0 48 38 79.5t98 31.5q59 0 96.5 -31t37.5 -79q0 -32 -17.5 -56.5t-52.5 -38.5q46 -15 69 -42t23 -69q0 -59 -41.5 -95t-114.5 -36t-115 35.5zM264 130q21 19 21 49q0 29 -21 47t-56 18q-36 0 -58 -18
t-22 -47q0 -30 22 -49t58 -19q35 0 56 19zM279 -83.5q26 22.5 26 58.5q0 38 -28 61t-71 23q-42 0 -69 -22t-27 -61q0 -36 25.5 -59t71.5 -23t72 22.5z" />
    <glyph glyph-name="uni2089" unicode="&#x2089;" horiz-adv-x="410" 
d="M316.5 242.5q46.5 -48.5 46.5 -139.5q0 -114 -65.5 -185t-201.5 -71l-12 51q197 1 221 160q-20 -22 -50 -36t-66 -14q-63 0 -103 39t-40 100q0 40 20 73t55.5 52t79.5 19q69 0 115.5 -48.5zM263.5 74.5q29.5 17.5 44.5 44.5q-4 59 -33.5 90.5t-71.5 31.5q-43 0 -71 -27
t-28 -66q0 -40 26 -65.5t68 -25.5q36 0 65.5 17.5z" />
    <glyph glyph-name="uni208A" unicode="&#x208a;" horiz-adv-x="392" 
d="M170 28h-122v53h122v121h53v-121h121v-53h-121v-121h-53v121z" />
    <glyph glyph-name="uni208B" unicode="&#x208b;" horiz-adv-x="392" 
d="M48 81h296v-53h-296v53z" />
    <glyph glyph-name="uni208C" unicode="&#x208c;" horiz-adv-x="392" 
d="M48 147h296v-53h-296v53zM48 16h296v-53h-296v53z" />
    <glyph glyph-name="uni208D" unicode="&#x208d;" horiz-adv-x="248" 
d="M92 -135.5q-37 74.5 -37 202.5q0 141 40.5 209.5t122.5 68.5v-51q-57 0 -82.5 -54t-25.5 -173t25.5 -172.5t82.5 -53.5v-51q-89 0 -126 74.5z" />
    <glyph glyph-name="uni208E" unicode="&#x208e;" horiz-adv-x="248" 
d="M30 -159q57 0 82.5 54t25.5 173t-25.5 172.5t-82.5 53.5v51q89 0 126 -74.5t37 -202.5q0 -141 -40.5 -209.5t-122.5 -68.5v51z" />
    <glyph glyph-name="Euro" unicode="&#x20ac;" horiz-adv-x="582" 
d="M555 63q-36 -34 -80 -54.5t-105 -20.5q-111 0 -179.5 74t-85.5 209h-74v53h70q-1 11 -1 33q0 26 1 39h-70v53h75q17 130 85 201.5t177 71.5q94 0 168 -57l-19 -69q-29 27 -67.5 42t-80.5 15q-77 0 -124.5 -52.5t-61.5 -151.5h245v-53h-250q-1 -13 -1 -39q0 -22 1 -33h250
v-53h-246q14 -103 63 -158.5t130 -55.5q51 0 87 19t69 51z" />
    <glyph glyph-name="uni20B9" unicode="&#x20b9;" horiz-adv-x="586" 
d="M456 0l-263 297h-108v59h147q60 0 105 29.5t55 88.5h-306v59h306q-9 60 -53 88.5t-104 28.5h-150v60h464v-59h-138q47 -45 56 -118h82v-59h-83q-10 -68 -59 -115.5t-125 -58.5l268 -300h-94z" />
    <glyph glyph-name="uni20BA" unicode="&#x20ba;" horiz-adv-x="551" 
d="M531 267v-47q0 -111 -59 -165.5t-159 -54.5h-199v250l-72 -26v54l72 25v72l-72 -26v54l72 25v282h75v-255l201 71v-53l-201 -72v-71l201 71v-53l-201 -72v-207h124q148 0 148 155v43h70z" />
    <glyph glyph-name="uni2113" unicode="&#x2113;" horiz-adv-x="600" 
d="M252 19.5q-31 36.5 -42 115.5q-41 -14 -76 -15v56q40 3 71 17q-3 50 -3 115q0 167 14.5 256.5t42.5 123t76 33.5q55 0 80.5 -44t25.5 -142q0 -129 -44 -229t-126 -145q8 -64 26.5 -91t54.5 -27q25 0 45.5 5t29.5 15v-65q-38 -15 -85 -15q-59 0 -90 36.5zM350 352.5
q28 86.5 28 184.5q0 70 -11.5 97.5t-35.5 27.5q-32 0 -48.5 -78t-16.5 -280q0 -55 1 -77q55 39 83 125.5z" />
    <glyph glyph-name="uni2117" unicode="&#x2117;" horiz-adv-x="810" 
d="M588 671q84 -49 133 -133t49 -183t-49 -183t-133 -133t-183 -49t-183 49t-133 133t-49 183t49 183t133 133t183 49t183 -49zM564 80.5q73 42.5 115.5 115.5t42.5 159t-42.5 159t-115.5 115.5t-159 42.5t-159 -42.5t-115.5 -115.5t-42.5 -159t42.5 -159t115.5 -115.5
t159 -42.5t159 42.5zM529.5 537.5q39.5 -36.5 39.5 -100.5q0 -62 -42 -102t-107 -40h-68v-159h-57v438h125q70 0 109.5 -36.5zM484.5 371.5q26.5 25.5 26.5 65.5q0 42 -24.5 64t-70.5 22h-64v-177h64q42 0 68.5 25.5z" />
    <glyph glyph-name="trademark" unicode="&#x2122;" horiz-adv-x="875" 
d="M312 659h-116v-333h-55v333h-116v51h287v-51zM772 710v-384h-55v294l-132 -199h-29l-132 199v-294h-55v384h55l147 -220l146 220h55z" />
    <glyph glyph-name="uni03A9" unicode="&#x3a9;" horiz-adv-x="852" 
d="M68 67h224v52q-99 27 -160.5 101.5t-61.5 186.5q0 90 45.5 161t126.5 111.5t184 40.5t183.5 -40.5t126 -111.5t45.5 -161q0 -111 -61 -186t-161 -102v-52h225v-67h-291v158q98 18 155 82.5t57 161.5q0 70 -35.5 126t-99 88t-144.5 32t-145 -32t-99.5 -88t-35.5 -126
q0 -97 58 -161.5t155 -82.5v-158h-291v67z" />
    <glyph glyph-name="uni2126" unicode="&#x2126;" horiz-adv-x="852" 
d="M68 67h224v52q-99 27 -160.5 101.5t-61.5 186.5q0 90 45.5 161t126.5 111.5t184 40.5t183.5 -40.5t126 -111.5t45.5 -161q0 -111 -61 -186t-161 -102v-52h225v-67h-291v158q98 18 155 82.5t57 161.5q0 70 -35.5 126t-99 88t-144.5 32t-145 -32t-99.5 -88t-35.5 -126
q0 -97 58 -161.5t155 -82.5v-158h-291v67z" />
    <glyph glyph-name="estimated" unicode="&#x212e;" horiz-adv-x="823" 
d="M231 10q-77 39 -123.5 111.5t-46.5 170.5q0 93 49 168.5t131.5 118t178.5 42.5q109 0 186.5 -47t116.5 -121.5t39 -155.5v-4h-552l-7 -9v-207q83 -74 201 -74q74 0 131.5 27.5t98.5 73.5h61q-55 -62 -124 -97.5t-173 -35.5q-90 0 -167 39zM613 326l8 7v185
q-43 41 -92.5 55.5t-108.5 14.5q-134 0 -217 -78v-177l7 -7h403z" />
    <glyph glyph-name="partialdiff" unicode="&#x2202;" horiz-adv-x="600" 
d="M176 9q-54 32 -83.5 91t-29.5 137q0 81 29 141t82.5 93t124.5 33q90 0 145 -67h1q-32 95 -106.5 162t-177.5 93l32 54q106 -29 184.5 -94.5t121 -163.5t42.5 -221q0 -90 -30 -155.5t-84.5 -100t-126.5 -34.5q-70 0 -124 32zM425.5 95.5q45.5 57.5 45.5 161.5
q0 87 -45.5 139.5t-119.5 52.5q-80 0 -127 -57.5t-47 -157.5q0 -89 46 -142.5t123 -53.5q79 0 124.5 57.5z" />
    <glyph glyph-name="uni0394" unicode="&#x394;" horiz-adv-x="662" 
d="M619 66v-66h-576v66l249 644h78zM118 66h425l-213 558z" />
    <glyph glyph-name="uni2206" unicode="&#x2206;" horiz-adv-x="662" 
d="M619 66v-66h-576v66l249 644h78zM118 66h425l-213 558z" />
    <glyph glyph-name="uni00B5" unicode="&#xb5;" horiz-adv-x="621" 
d="M528 502v-502h-70v89q-24 -47 -67.5 -73t-102.5 -26q-39 0 -71.5 14.5t-53.5 40.5v-255h-70v712h70v-289q0 -77 34.5 -118.5t100.5 -41.5q45 0 82 21t57.5 58t20.5 84v286h70z" />
    <glyph glyph-name="pi" unicode="&#x3c0;" horiz-adv-x="677" 
d="M510 441v-320q0 -34 14 -50.5t35 -16.5q27 0 63 13l12 -57q-35 -20 -91 -20q-46 0 -74.5 30t-28.5 89v332h-222v-441h-70v441h-119l21 61h599v-61h-139z" />
    <glyph glyph-name="product" unicode="&#x220f;" horiz-adv-x="749" 
d="M645 -210h-75v852h-392v-852h-75v920h542v-920z" />
    <glyph glyph-name="summation" unicode="&#x2211;" horiz-adv-x="586" 
d="M39 -161l244 419l-234 404v48h463v-68h-368l213 -366v-38l-222 -380h417v-68h-513v49z" />
    <glyph glyph-name="minus" unicode="&#x2212;" horiz-adv-x="582" 
d="M66 380h450v-59h-450v59z" />
    <glyph glyph-name="uni2215" unicode="&#x2215;" horiz-adv-x="718" 
d="M529 710h70l-410 -710h-70z" />
    <glyph glyph-name="uni2219" unicode="&#x2219;" horiz-adv-x="500" 
d="M212.5 260q-15.5 15 -15.5 37t15.5 37.5t37.5 15.5t37.5 -15.5t15.5 -37.5t-15.5 -37t-37.5 -15t-37.5 15z" />
    <glyph glyph-name="radical" unicode="&#x221a;" horiz-adv-x="600" 
d="M164 278h-115v65h166l69 -216q21 -65 35 -119l3 1q4 16 6.5 30.5l4.5 26.5l14 71l128 573h69l-177 -770h-89z" />
    <glyph glyph-name="infinity" unicode="&#x221e;" horiz-adv-x="789" 
d="M113.5 145.5q-40.5 22.5 -63 62.5t-22.5 90t22.5 90t62.5 62.5t91 22.5q61 0 108 -29.5t84 -90.5q30 58 78 89t109 31q51 0 91.5 -22.5t63.5 -63t23 -90.5t-22.5 -89.5t-63 -62t-90.5 -22.5q-60 0 -106.5 29.5t-84.5 91.5q-65 -121 -189 -121q-51 0 -91.5 22.5zM301 210
q39 30 62 87q-28 58 -67 88t-88 30q-50 0 -82.5 -33.5t-32.5 -85.5q0 -51 33.5 -83.5t86.5 -32.5q49 0 88 30zM663.5 213.5q32.5 33.5 32.5 84.5q0 52 -33 84.5t-87 32.5q-48 0 -86 -30.5t-64 -88.5q56 -116 156 -116q49 0 81.5 33.5z" />
    <glyph glyph-name="integral" unicode="&#x222b;" horiz-adv-x="600" 
d="M149 -161l7 57q26 -8 47 -8q67 0 67 92v597q0 68 32 105.5t91 37.5q35 0 58 -11l-6 -59q-19 13 -47 13q-31 0 -48 -24.5t-17 -68.5v-593q0 -147 -125 -147q-27 0 -59 9z" />
    <glyph glyph-name="approxequal" unicode="&#x2248;" horiz-adv-x="600" 
d="M128 462q27 25 63 25q30 0 98 -19q7 -1 21 -5q-5 1 27 -7q45 -12 68 -12q17 0 30.5 11t17.5 32h53q-6 -47 -32.5 -74t-60.5 -27q-22 0 -45 5t-44.5 11t-30.5 8q-66 19 -94 19q-38 0 -51 -43h-53q6 51 33 76zM128 242q27 25 63 25q30 0 98 -19q7 -1 21 -5q-5 1 27 -7
q45 -12 68 -12q17 0 30.5 11t17.5 32h53q-6 -47 -32.5 -74t-60.5 -27q-22 0 -45 5t-44.5 11t-30.5 8q-66 19 -94 19q-38 0 -51 -43h-53q6 51 33 76z" />
    <glyph glyph-name="notequal" unicode="&#x2260;" horiz-adv-x="582" 
d="M362 418l-79 -135h233v-59h-268l-90 -153h-63l90 153h-119v59h154l79 135h-233v59h268l90 153h63l-90 -153h119v-59h-154z" />
    <glyph glyph-name="lessequal" unicode="&#x2264;" horiz-adv-x="582" 
d="M516 501l-410 -109l410 -108v-59l-450 125v84l450 126v-59zM66 195h450v-54h-450v54z" />
    <glyph glyph-name="greaterequal" unicode="&#x2265;" horiz-adv-x="582" 
d="M516 434v-84l-450 -125v59l410 108l-410 109v59zM66 195h450v-54h-450v54z" />
    <glyph glyph-name="lozenge" unicode="&#x25ca;" horiz-adv-x="405" 
d="M395 338l-155 -338h-75l-155 338l155 372h75zM336 338l-133 331l-134 -331l134 -301z" />
    <glyph glyph-name="zero.dnom" horiz-adv-x="414" 
d="M88 49.5q-35 57.5 -35 162.5t35.5 163.5t118.5 58.5q84 0 119 -58.5t35 -163.5q0 -104 -35.5 -162t-118.5 -58q-84 0 -119 57.5zM282 88q19 43 19 125q0 81 -19 124.5t-75 43.5t-75 -44t-19 -125t19 -124t75 -43t75 43z" />
    <glyph glyph-name="one.dnom" horiz-adv-x="355" 
d="M214 430v-430h-59v351l-101 -62v58l136 83h24z" />
    <glyph glyph-name="two.dnom" horiz-adv-x="422" 
d="M61 36l151 156q39 40 56.5 67t17.5 54q0 31 -21 49.5t-59 18.5q-34 0 -62 -13t-54 -39l-26 45q26 29 63.5 45t81.5 16q62 0 99 -33t37 -85q0 -38 -23 -74t-69 -81l-106 -108h213v-54h-299v36z" />
    <glyph glyph-name="three.dnom" horiz-adv-x="416" 
d="M111.5 5.5q-38.5 15.5 -61.5 43.5l30 48q48 -53 116 -53q46 0 73 21.5t27 56.5q0 39 -34.5 59t-96.5 20v48q55 0 83.5 22t28.5 52q0 26 -21 42t-56 16q-57 0 -110 -49l-27 47q60 56 140 56q60 0 96 -29t36 -76q0 -37 -23 -63t-64 -37q55 -13 81 -42t26 -70q0 -56 -44 -92
t-116 -36q-45 0 -83.5 15.5z" />
    <glyph glyph-name="four.dnom" horiz-adv-x="404" 
d="M237 91h-206v39l217 299h49v-289h64v-49h-64v-91h-60v91zM237 140v196l-142 -196h142z" />
    <glyph glyph-name="five.dnom" horiz-adv-x="420" 
d="M111 9q-37 15 -59 40l30 48q46 -51 112 -51q46 0 74 23.5t28 61.5t-26.5 60t-73.5 22q-42 0 -78 -22l-35 12l26 223h230v-54h-185l-14 -122q30 14 67 14q66 0 107 -36.5t41 -96.5q0 -62 -44 -99.5t-118 -37.5q-45 0 -82 15z" />
    <glyph glyph-name="six.dnom" horiz-adv-x="410" 
d="M323.5 235q39.5 -38 39.5 -99q0 -40 -19.5 -73t-54.5 -52t-79 -19q-70 0 -116.5 48.5t-46.5 139.5q0 112 67.5 183t208.5 71l13 -51q-108 -1 -162.5 -41.5t-66.5 -115.5q19 21 48.5 34t65.5 13q63 0 102.5 -38zM279.5 68q26.5 26 26.5 66q0 42 -25.5 66.5t-68.5 24.5
q-37 0 -66.5 -18t-42.5 -44q3 -60 32 -90.5t75 -30.5q43 0 69.5 26z" />
    <glyph glyph-name="seven.dnom" horiz-adv-x="413" 
d="M291 372h-240v54h305v-36l-188 -390h-64z" />
    <glyph glyph-name="eight.dnom" horiz-adv-x="413" 
d="M92 25.5q-42 35.5 -42 93.5q0 83 92 113q-35 14 -53 38t-18 56q0 48 38 79.5t98 31.5q59 0 96.5 -31t37.5 -79q0 -32 -17.5 -56.5t-52.5 -38.5q46 -15 69 -42t23 -69q0 -59 -41.5 -95t-114.5 -36t-115 35.5zM264 275q21 19 21 49q0 29 -21 47t-56 18q-36 0 -58 -18
t-22 -47q0 -30 22 -49t58 -19q35 0 56 19zM279 61.5q26 22.5 26 58.5q0 38 -28 61t-71 23q-42 0 -69 -22t-27 -61q0 -36 25.5 -59t71.5 -23t72 22.5z" />
    <glyph glyph-name="nine.dnom" horiz-adv-x="410" 
d="M316.5 387.5q46.5 -48.5 46.5 -139.5q0 -114 -65.5 -185t-201.5 -71l-12 51q197 1 221 160q-20 -22 -50 -36t-66 -14q-63 0 -103 39t-40 100q0 40 20 73t55.5 52t79.5 19q69 0 115.5 -48.5zM263.5 219.5q29.5 17.5 44.5 44.5q-4 59 -33.5 90.5t-71.5 31.5q-43 0 -71 -27
t-28 -66q0 -40 26 -65.5t68 -25.5q36 0 65.5 17.5z" />
    <glyph glyph-name="zero.numr" horiz-adv-x="414" 
d="M88 334.5q-35 57.5 -35 162.5t35.5 163.5t118.5 58.5q84 0 119 -58.5t35 -163.5q0 -104 -35.5 -162t-118.5 -58q-84 0 -119 57.5zM282 373q19 43 19 125q0 81 -19 124.5t-75 43.5t-75 -44t-19 -125t19 -124t75 -43t75 43z" />
    <glyph glyph-name="one.numr" horiz-adv-x="355" 
d="M214 715v-430h-59v351l-101 -62v58l136 83h24z" />
    <glyph glyph-name="two.numr" horiz-adv-x="422" 
d="M61 321l151 156q39 40 56.5 67t17.5 54q0 31 -21 49.5t-59 18.5q-34 0 -62 -13t-54 -39l-26 45q26 29 63.5 45t81.5 16q62 0 99 -33t37 -85q0 -38 -23 -74t-69 -81l-106 -108h213v-54h-299v36z" />
    <glyph glyph-name="three.numr" horiz-adv-x="416" 
d="M111.5 290.5q-38.5 15.5 -61.5 43.5l30 48q48 -53 116 -53q46 0 73 21.5t27 56.5q0 39 -34.5 59t-96.5 20v48q55 0 83.5 22t28.5 52q0 26 -21 42t-56 16q-57 0 -110 -49l-27 47q60 56 140 56q60 0 96 -29t36 -76q0 -37 -23 -63t-64 -37q55 -13 81 -42t26 -70
q0 -56 -44 -92t-116 -36q-45 0 -83.5 15.5z" />
    <glyph glyph-name="four.numr" horiz-adv-x="404" 
d="M237 376h-206v39l217 299h49v-289h64v-49h-64v-91h-60v91zM237 425v196l-142 -196h142z" />
    <glyph glyph-name="five.numr" horiz-adv-x="420" 
d="M111 294q-37 15 -59 40l30 48q46 -51 112 -51q46 0 74 23.5t28 61.5t-26.5 60t-73.5 22q-42 0 -78 -22l-35 12l26 223h230v-54h-185l-14 -122q30 14 67 14q66 0 107 -36.5t41 -96.5q0 -62 -44 -99.5t-118 -37.5q-45 0 -82 15z" />
    <glyph glyph-name="six.numr" horiz-adv-x="410" 
d="M323.5 520q39.5 -38 39.5 -99q0 -40 -19.5 -73t-54.5 -52t-79 -19q-70 0 -116.5 48.5t-46.5 139.5q0 112 67.5 183t208.5 71l13 -51q-108 -1 -162.5 -41.5t-66.5 -115.5q19 21 48.5 34t65.5 13q63 0 102.5 -38zM279.5 353q26.5 26 26.5 66q0 42 -25.5 66.5t-68.5 24.5
q-37 0 -66.5 -18t-42.5 -44q3 -60 32 -90.5t75 -30.5q43 0 69.5 26z" />
    <glyph glyph-name="seven.numr" horiz-adv-x="413" 
d="M291 657h-240v54h305v-36l-188 -390h-64z" />
    <glyph glyph-name="eight.numr" horiz-adv-x="413" 
d="M92 310.5q-42 35.5 -42 93.5q0 83 92 113q-35 14 -53 38t-18 56q0 48 38 79.5t98 31.5q59 0 96.5 -31t37.5 -79q0 -32 -17.5 -56.5t-52.5 -38.5q46 -15 69 -42t23 -69q0 -59 -41.5 -95t-114.5 -36t-115 35.5zM264 560q21 19 21 49q0 29 -21 47t-56 18q-36 0 -58 -18
t-22 -47q0 -30 22 -49t58 -19q35 0 56 19zM279 346.5q26 22.5 26 58.5q0 38 -28 61t-71 23q-42 0 -69 -22t-27 -61q0 -36 25.5 -59t71.5 -23t72 22.5z" />
    <glyph glyph-name="nine.numr" horiz-adv-x="410" 
d="M316.5 672.5q46.5 -48.5 46.5 -139.5q0 -114 -65.5 -185t-201.5 -71l-12 51q197 1 221 160q-20 -22 -50 -36t-66 -14q-63 0 -103 39t-40 100q0 40 20 73t55.5 52t79.5 19q69 0 115.5 -48.5zM263.5 504.5q29.5 17.5 44.5 44.5q-4 59 -33.5 90.5t-71.5 31.5q-43 0 -71 -27
t-28 -66q0 -40 26 -65.5t68 -25.5q36 0 65.5 17.5z" />
    <glyph glyph-name="uni0326" unicode="&#x326;" 
d="M-124 -56h74l-71 -163h-62z" />
    <glyph glyph-name="caroncomb.alt" 
d="M-123 752h73l-77 -210h-58z" />
    <glyph glyph-name="uni0312" unicode="&#x312;" 
d="M-112 738h62l-65 -165h-74z" />
    <glyph glyph-name="uniF8FF" unicode="&#xf8ff;" horiz-adv-x="390" 
d="M118.5 242.5q-31.5 31.5 -31.5 76.5q0 46 31.5 77.5t76.5 31.5t76.5 -31.5t31.5 -77.5q0 -45 -31.5 -76.5t-76.5 -31.5t-76.5 31.5z" />
    <glyph glyph-name="l.alt" horiz-adv-x="258" 
d="M93 752h70v-752h-70v752z" />
    <glyph glyph-name="l.short" horiz-adv-x="284" 
d="M117 19.5q-27 29.5 -27 90.5v600h70v-590q0 -66 49 -66q14 0 28.5 4.5t23.5 8.5l11 -59q-32 -18 -79 -18q-49 0 -76 29.5z" />
    <glyph glyph-name="G.alt1" horiz-adv-x="819" 
d="M235 36.5q-80 46.5 -124.5 129t-44.5 186.5q0 106 45.5 190t129 131t193.5 47q76 0 137.5 -21.5t116.5 -58.5l-26 -72q-53 37 -107.5 58.5t-121.5 21.5q-88 0 -154 -38.5t-101 -105.5t-35 -152q0 -84 34.5 -150t97 -103t145.5 -37q80 0 136.5 32.5t87 83t34.5 103.5h-244
v65h318q1 -11 1 -32q0 -91 -41 -165t-116.5 -116.5t-176.5 -42.5q-104 0 -184 46.5z" />
    <glyph glyph-name="uni1EAE" unicode="&#x1eae;" horiz-adv-x="666" 
d="M480 230h-296l-87 -230h-76l273 710h78l273 -710h-78zM457 293l-125 331l-125 -331h250zM349 1025h68l-75 -100h-57zM231 807q-37 31 -40 85h55q3 -32 26.5 -49t62.5 -17q37 0 59.5 17.5t26.5 48.5h54q-4 -53 -42.5 -84.5t-98.5 -31.5q-66 0 -103 31z" />
    <glyph glyph-name="uni1EB6" unicode="&#x1eb6;" horiz-adv-x="666" 
d="M480 230h-296l-87 -230h-76l273 710h78l273 -710h-78zM457 293l-125 331l-125 -331h250zM231 807q-37 31 -40 85h55q3 -32 26.5 -49t62.5 -17q37 0 59.5 17.5t26.5 48.5h54q-4 -53 -42.5 -84.5t-98.5 -31.5q-66 0 -103 31zM295 -180q-15 15 -15 38q0 22 15 37.5t38 15.5
q22 0 37.5 -15.5t15.5 -37.5q0 -23 -15.5 -38t-37.5 -15q-23 0 -38 15z" />
    <glyph glyph-name="uni1EB0" unicode="&#x1eb0;" horiz-adv-x="666" 
d="M480 230h-296l-87 -230h-76l273 710h78l273 -710h-78zM457 293l-125 331l-125 -331h250zM244 1025h68l65 -100h-57zM231 807q-37 31 -40 85h55q3 -32 26.5 -49t62.5 -17q37 0 59.5 17.5t26.5 48.5h54q-4 -53 -42.5 -84.5t-98.5 -31.5q-66 0 -103 31z" />
    <glyph glyph-name="uni1EB2" unicode="&#x1eb2;" horiz-adv-x="666" 
d="M480 230h-296l-87 -230h-76l273 710h78l273 -710h-78zM457 293l-125 331l-125 -331h250zM311 958q7 11 29 21q23 13 32.5 21t9.5 21q0 29 -43 29q-31 0 -55 -12l-11 42q34 16 74 16q36 0 61.5 -18.5t25.5 -51.5q0 -26 -15 -42.5t-42 -31.5q-13 -7 -16 -12t-3 -19h-54
q0 26 7 37zM231 807q-37 31 -40 85h55q3 -32 26.5 -49t62.5 -17q37 0 59.5 17.5t26.5 48.5h54q-4 -53 -42.5 -84.5t-98.5 -31.5q-66 0 -103 31z" />
    <glyph glyph-name="uni1EB4" unicode="&#x1eb4;" horiz-adv-x="666" 
d="M480 230h-296l-87 -230h-76l273 710h78l273 -710h-78zM457 293l-125 331l-125 -331h250zM216 1017.5q20 21.5 48 21.5q27 0 78 -21q39 -17 53 -17q28 0 34 38h45q-6 -44 -25.5 -66t-47.5 -22q-15 0 -32 5.5t-43 16.5q-40 17 -57 17q-12 0 -19.5 -8.5t-12.5 -30.5h-46
q5 45 25 66.5zM232 807q-37 31 -40 85h55q3 -32 26.5 -49t62.5 -17q37 0 59.5 17.5t26.5 48.5h54q-4 -53 -42.5 -84.5t-98.5 -31.5q-66 0 -103 31z" />
    <glyph glyph-name="uni1EA4" unicode="&#x1ea4;" horiz-adv-x="666" 
d="M480 230h-296l-87 -230h-76l273 710h78l273 -710h-78zM457 293l-125 331l-125 -331h250zM508 965h68l-75 -100h-57zM299 904h68l108 -130h-59l-83 84l-83 -84h-59z" />
    <glyph glyph-name="uni1EAC" unicode="&#x1eac;" horiz-adv-x="666" 
d="M480 230h-296l-87 -230h-76l273 710h78l273 -710h-78zM457 293l-125 331l-125 -331h250zM295 904h76l120 -130h-66l-92 84l-92 -84h-66zM295 -180q-15 15 -15 38q0 22 15 37.5t38 15.5q22 0 37.5 -15.5t15.5 -37.5q0 -23 -15.5 -38t-37.5 -15q-23 0 -38 15z" />
    <glyph glyph-name="uni1EA6" unicode="&#x1ea6;" horiz-adv-x="666" 
d="M480 230h-296l-87 -230h-76l273 710h78l273 -710h-78zM457 293l-125 331l-125 -331h250zM94 964h68l65 -100h-57zM299 904h68l108 -130h-59l-83 84l-83 -84h-59z" />
    <glyph glyph-name="uni1EA8" unicode="&#x1ea8;" horiz-adv-x="666" 
d="M480 230h-296l-87 -230h-76l273 710h78l273 -710h-78zM457 293l-125 331l-125 -331h250zM458 888q7 11 29 21q23 13 32.5 21t9.5 21q0 29 -43 29q-31 0 -55 -12l-11 42q34 16 74 16q36 0 61.5 -18.5t25.5 -51.5q0 -26 -15 -42.5t-42 -31.5q-13 -7 -16 -12t-3 -19h-54
q0 26 7 37zM299 904h68l108 -130h-59l-83 84l-83 -84h-59z" />
    <glyph glyph-name="uni1EAA" unicode="&#x1eaa;" horiz-adv-x="666" 
d="M480 230h-296l-87 -230h-76l273 710h78l273 -710h-78zM457 293l-125 331l-125 -331h250zM215 1011.5q20 21.5 48 21.5q27 0 78 -21q39 -17 53 -17q28 0 34 38h45q-6 -44 -25.5 -66t-47.5 -22q-15 0 -32 5.5t-43 16.5q-40 17 -57 17q-12 0 -19.5 -8.5t-12.5 -30.5h-46
q5 45 25 66.5zM295 904h76l120 -130h-66l-92 84l-92 -84h-66z" />
    <glyph glyph-name="uni1EA0" unicode="&#x1ea0;" horiz-adv-x="666" 
d="M480 230h-296l-87 -230h-76l273 710h78l273 -710h-78zM457 293l-125 331l-125 -331h250zM295 -180q-15 15 -15 38q0 22 15 37.5t38 15.5q22 0 37.5 -15.5t15.5 -37.5q0 -23 -15.5 -38t-37.5 -15q-23 0 -38 15z" />
    <glyph glyph-name="uni1EA2" unicode="&#x1ea2;" horiz-adv-x="666" 
d="M480 230h-296l-87 -230h-76l273 710h78l273 -710h-78zM457 293l-125 331l-125 -331h250zM309 812q8 12 31 24q26 13 36.5 22.5t10.5 24.5q0 32 -48 32q-33 0 -61 -14l-12 47q17 8 39.5 13t42.5 5q40 0 68.5 -20.5t28.5 -57.5q0 -29 -16.5 -47t-46.5 -35q-14 -7 -17.5 -13
t-4.5 -22h-59q0 29 8 41z" />
    <glyph glyph-name="Aringacute" unicode="&#x1fa;" horiz-adv-x="666" 
d="M341 873h-66l115 143h79zM480 230h-296l-87 -230h-76l261 678q-22 12 -35 34.5t-13 48.5q0 41 28 68.5t71 27.5q42 0 70 -27.5t28 -68.5q0 -27 -12.5 -48.5t-34.5 -33.5l261 -679h-78zM297.5 795.5q-13.5 -13.5 -13.5 -34.5q0 -20 14 -34t35 -14t34.5 13.5t13.5 34.5
t-13 34.5t-35 13.5t-35.5 -13.5zM457 293l-125 331l-125 -331h250z" />
    <glyph glyph-name="AEacute" unicode="&#x1fc;" horiz-adv-x="920" 
d="M842 68v-68h-396v230h-260l-89 -230h-76l273 710h541v-68h-314v-252h304v-67h-304v-255h321zM446 293v348h-101l-135 -348h236zM538 917h79l-128 -143h-66z" />
    <glyph glyph-name="uni1EBE" unicode="&#x1ebe;" horiz-adv-x="578" 
d="M103 710h389v-68h-314v-252h305v-67h-305v-255h322v-68h-397v710zM477 965h68l-75 -100h-57zM268 904h68l108 -130h-59l-83 84l-83 -84h-59z" />
    <glyph glyph-name="uni1EC6" unicode="&#x1ec6;" horiz-adv-x="578" 
d="M103 710h389v-68h-314v-252h305v-67h-305v-255h322v-68h-397v710zM264 904h76l120 -130h-66l-92 84l-92 -84h-66zM253 -180q-15 15 -15 38q0 22 15 37.5t38 15.5q22 0 37.5 -15.5t15.5 -37.5q0 -23 -15.5 -38t-37.5 -15q-23 0 -38 15z" />
    <glyph glyph-name="uni1EC0" unicode="&#x1ec0;" horiz-adv-x="578" 
d="M103 710h389v-68h-314v-252h305v-67h-305v-255h322v-68h-397v710zM63 964h68l65 -100h-57zM268 904h68l108 -130h-59l-83 84l-83 -84h-59z" />
    <glyph glyph-name="uni1EC2" unicode="&#x1ec2;" horiz-adv-x="578" 
d="M103 710h389v-68h-314v-252h305v-67h-305v-255h322v-68h-397v710zM427 888q7 11 29 21q23 13 32.5 21t9.5 21q0 29 -43 29q-31 0 -55 -12l-11 42q34 16 74 16q36 0 61.5 -18.5t25.5 -51.5q0 -26 -15 -42.5t-42 -31.5q-13 -7 -16 -12t-3 -19h-54q0 26 7 37zM268 904h68
l108 -130h-59l-83 84l-83 -84h-59z" />
    <glyph glyph-name="uni1EC4" unicode="&#x1ec4;" horiz-adv-x="578" 
d="M103 710h389v-68h-314v-252h305v-67h-305v-255h322v-68h-397v710zM184 1011.5q20 21.5 48 21.5q27 0 78 -21q39 -17 53 -17q28 0 34 38h45q-6 -44 -25.5 -66t-47.5 -22q-15 0 -32 5.5t-43 16.5q-40 17 -57 17q-12 0 -19.5 -8.5t-12.5 -30.5h-46q5 45 25 66.5zM264 904h76
l120 -130h-66l-92 84l-92 -84h-66z" />
    <glyph glyph-name="uni1EB8" unicode="&#x1eb8;" horiz-adv-x="578" 
d="M103 710h389v-68h-314v-252h305v-67h-305v-255h322v-68h-397v710zM253 -180q-15 15 -15 38q0 22 15 37.5t38 15.5q22 0 37.5 -15.5t15.5 -37.5q0 -23 -15.5 -38t-37.5 -15q-23 0 -38 15z" />
    <glyph glyph-name="uni1EBA" unicode="&#x1eba;" horiz-adv-x="578" 
d="M103 710h389v-68h-314v-252h305v-67h-305v-255h322v-68h-397v710zM278 812q8 12 31 24q26 13 36.5 22.5t10.5 24.5q0 32 -48 32q-33 0 -61 -14l-12 47q17 8 39.5 13t42.5 5q40 0 68.5 -20.5t28.5 -57.5q0 -29 -16.5 -47t-46.5 -35q-14 -7 -17.5 -13t-4.5 -22h-59
q0 29 8 41z" />
    <glyph glyph-name="uni1EBC" unicode="&#x1ebc;" horiz-adv-x="578" 
d="M103 710h389v-68h-314v-252h305v-67h-305v-255h322v-68h-397v710zM169.5 848q20.5 24 52.5 24q28 0 89 -24l35 -13t28 -6q15 0 22.5 10t10.5 33h51q-6 -47 -26 -72.5t-53 -25.5q-17 0 -36.5 6t-49.5 18q-48 19 -64 19q-15 0 -22 -9.5t-13 -33.5h-51q6 50 26.5 74z" />
    <glyph glyph-name="uni1ECA" unicode="&#x1eca;" horiz-adv-x="282" 
d="M103 710h75v-710h-75v710zM103 -180q-15 15 -15 38q0 22 15 37.5t38 15.5q22 0 37.5 -15.5t15.5 -37.5q0 -23 -15.5 -38t-37.5 -15q-23 0 -38 15z" />
    <glyph glyph-name="uni1EC8" unicode="&#x1ec8;" horiz-adv-x="282" 
d="M103 710h75v-710h-75v710zM117 812q8 12 31 24q26 13 36.5 22.5t10.5 24.5q0 32 -48 32q-33 0 -61 -14l-12 47q17 8 39.5 13t42.5 5q40 0 68.5 -20.5t28.5 -57.5q0 -29 -16.5 -47t-46.5 -35q-14 -7 -17.5 -13t-4.5 -22h-59q0 29 8 41z" />
    <glyph glyph-name="uni1ED0" unicode="&#x1ed0;" horiz-adv-x="871" 
d="M246.5 37q-84.5 47 -132.5 130.5t-48 187.5t48 187.5t132.5 130.5t189.5 47q104 0 188.5 -47t132.5 -130.5t48 -186.5q0 -104 -48 -187.5t-132.5 -131t-189.5 -47.5q-104 0 -188.5 47zM586 100q67 38 105 105t38 150t-38 150.5t-105 105.5t-150 38q-84 0 -151 -38
t-105 -105.5t-38 -150.5t38 -150t105 -105t151 -38q83 0 150 38zM610 965h68l-75 -100h-57zM401 904h68l108 -130h-59l-83 84l-83 -84h-59z" />
    <glyph glyph-name="uni1ED8" unicode="&#x1ed8;" horiz-adv-x="871" 
d="M246.5 37q-84.5 47 -132.5 130.5t-48 187.5t48 187.5t132.5 130.5t189.5 47q104 0 188.5 -47t132.5 -130.5t48 -186.5q0 -104 -48 -187.5t-132.5 -131t-189.5 -47.5q-104 0 -188.5 47zM586 100q67 38 105 105t38 150t-38 150.5t-105 105.5t-150 38q-84 0 -151 -38
t-105 -105.5t-38 -150.5t38 -150t105 -105t151 -38q83 0 150 38zM397 904h76l120 -130h-66l-92 84l-92 -84h-66zM398 -180q-15 15 -15 38q0 22 15 37.5t38 15.5q22 0 37.5 -15.5t15.5 -37.5q0 -23 -15.5 -38t-37.5 -15q-23 0 -38 15z" />
    <glyph glyph-name="uni1ED2" unicode="&#x1ed2;" horiz-adv-x="871" 
d="M246.5 37q-84.5 47 -132.5 130.5t-48 187.5t48 187.5t132.5 130.5t189.5 47q104 0 188.5 -47t132.5 -130.5t48 -186.5q0 -104 -48 -187.5t-132.5 -131t-189.5 -47.5q-104 0 -188.5 47zM586 100q67 38 105 105t38 150t-38 150.5t-105 105.5t-150 38q-84 0 -151 -38
t-105 -105.5t-38 -150.5t38 -150t105 -105t151 -38q83 0 150 38zM196 964h68l65 -100h-57zM401 904h68l108 -130h-59l-83 84l-83 -84h-59z" />
    <glyph glyph-name="uni1ED4" unicode="&#x1ed4;" horiz-adv-x="871" 
d="M246.5 37q-84.5 47 -132.5 130.5t-48 187.5t48 187.5t132.5 130.5t189.5 47q104 0 188.5 -47t132.5 -130.5t48 -186.5q0 -104 -48 -187.5t-132.5 -131t-189.5 -47.5q-104 0 -188.5 47zM586 100q67 38 105 105t38 150t-38 150.5t-105 105.5t-150 38q-84 0 -151 -38
t-105 -105.5t-38 -150.5t38 -150t105 -105t151 -38q83 0 150 38zM560 888q7 11 29 21q23 13 32.5 21t9.5 21q0 29 -43 29q-31 0 -55 -12l-11 42q34 16 74 16q36 0 61.5 -18.5t25.5 -51.5q0 -26 -15 -42.5t-42 -31.5q-13 -7 -16 -12t-3 -19h-54q0 26 7 37zM401 904h68
l108 -130h-59l-83 84l-83 -84h-59z" />
    <glyph glyph-name="uni1ED6" unicode="&#x1ed6;" horiz-adv-x="871" 
d="M246.5 37q-84.5 47 -132.5 130.5t-48 187.5t48 187.5t132.5 130.5t189.5 47q104 0 188.5 -47t132.5 -130.5t48 -186.5q0 -104 -48 -187.5t-132.5 -131t-189.5 -47.5q-104 0 -188.5 47zM586 100q67 38 105 105t38 150t-38 150.5t-105 105.5t-150 38q-84 0 -151 -38
t-105 -105.5t-38 -150.5t38 -150t105 -105t151 -38q83 0 150 38zM317 1011.5q20 21.5 48 21.5q27 0 78 -21q39 -17 53 -17q28 0 34 38h45q-6 -44 -25.5 -66t-47.5 -22q-15 0 -32 5.5t-43 16.5q-40 17 -57 17q-12 0 -19.5 -8.5t-12.5 -30.5h-46q5 45 25 66.5zM397 904h76
l120 -130h-66l-92 84l-92 -84h-66z" />
    <glyph glyph-name="uni1ECC" unicode="&#x1ecc;" horiz-adv-x="871" 
d="M246.5 37q-84.5 47 -132.5 130.5t-48 187.5t48 187.5t132.5 130.5t189.5 47q104 0 188.5 -47t132.5 -130.5t48 -186.5q0 -104 -48 -187.5t-132.5 -131t-189.5 -47.5q-104 0 -188.5 47zM586 100q67 38 105 105t38 150t-38 150.5t-105 105.5t-150 38q-84 0 -151 -38
t-105 -105.5t-38 -150.5t38 -150t105 -105t151 -38q83 0 150 38zM398 -180q-15 15 -15 38q0 22 15 37.5t38 15.5q22 0 37.5 -15.5t15.5 -37.5q0 -23 -15.5 -38t-37.5 -15q-23 0 -38 15z" />
    <glyph glyph-name="uni1ECE" unicode="&#x1ece;" horiz-adv-x="871" 
d="M246.5 37q-84.5 47 -132.5 130.5t-48 187.5t48 187.5t132.5 130.5t189.5 47q104 0 188.5 -47t132.5 -130.5t48 -186.5q0 -104 -48 -187.5t-132.5 -131t-189.5 -47.5q-104 0 -188.5 47zM586 100q67 38 105 105t38 150t-38 150.5t-105 105.5t-150 38q-84 0 -151 -38
t-105 -105.5t-38 -150.5t38 -150t105 -105t151 -38q83 0 150 38zM411 812q8 12 31 24q26 13 36.5 22.5t10.5 24.5q0 32 -48 32q-33 0 -61 -14l-12 47q17 8 39.5 13t42.5 5q40 0 68.5 -20.5t28.5 -57.5q0 -29 -16.5 -47t-46.5 -35q-14 -7 -17.5 -13t-4.5 -22h-59q0 29 8 41z
" />
    <glyph glyph-name="Ohorn" unicode="&#x1a0;" horiz-adv-x="871" 
d="M775 506.5q30 -69.5 30 -150.5q0 -104 -48 -187.5t-132.5 -131t-189.5 -47.5q-104 0 -188.5 47.5t-132.5 131t-48 187.5t48 187t133 130t193 47q66 0 128 -22q56 -20 87 -20q43 0 73.5 26.5t30.5 67.5q0 17 -5 35.5t-12 31.5l61 16q20 -38 20 -86q0 -54 -34 -92t-100 -52
q56 -49 86 -118.5zM586 100q67 38 105 105t38 150t-38 150.5t-105 105.5t-150 38q-84 0 -151 -38t-105 -105.5t-38 -150.5t38 -150t105 -105t151 -38q83 0 150 38z" />
    <glyph glyph-name="uni1EDA" unicode="&#x1eda;" horiz-adv-x="871" 
d="M775 506.5q30 -69.5 30 -150.5q0 -104 -48 -187.5t-132.5 -131t-189.5 -47.5q-104 0 -188.5 47.5t-132.5 131t-48 187.5t48 187t133 130t193 47q66 0 128 -22q56 -20 87 -20q43 0 73.5 26.5t30.5 67.5q0 17 -5 35.5t-12 31.5l61 16q20 -38 20 -86q0 -54 -34 -92t-100 -52
q56 -49 86 -118.5zM586 100q67 38 105 105t38 150t-38 150.5t-105 105.5t-150 38q-84 0 -151 -38t-105 -105.5t-38 -150.5t38 -150t105 -105t151 -38q83 0 150 38zM492 917h79l-128 -143h-66z" />
    <glyph glyph-name="uni1EE2" unicode="&#x1ee2;" horiz-adv-x="871" 
d="M775 506.5q30 -69.5 30 -150.5q0 -104 -48 -187.5t-132.5 -131t-189.5 -47.5q-104 0 -188.5 47.5t-132.5 131t-48 187.5t48 187t133 130t193 47q66 0 128 -22q56 -20 87 -20q43 0 73.5 26.5t30.5 67.5q0 17 -5 35.5t-12 31.5l61 16q20 -38 20 -86q0 -54 -34 -92t-100 -52
q56 -49 86 -118.5zM586 100q67 38 105 105t38 150t-38 150.5t-105 105.5t-150 38q-84 0 -151 -38t-105 -105.5t-38 -150.5t38 -150t105 -105t151 -38q83 0 150 38zM398 -180q-15 15 -15 38q0 22 15 37.5t38 15.5q22 0 37.5 -15.5t15.5 -37.5q0 -23 -15.5 -38t-37.5 -15
q-23 0 -38 15z" />
    <glyph glyph-name="uni1EDC" unicode="&#x1edc;" horiz-adv-x="871" 
d="M775 506.5q30 -69.5 30 -150.5q0 -104 -48 -187.5t-132.5 -131t-189.5 -47.5q-104 0 -188.5 47.5t-132.5 131t-48 187.5t48 187t133 130t193 47q66 0 128 -22q56 -20 87 -20q43 0 73.5 26.5t30.5 67.5q0 17 -5 35.5t-12 31.5l61 16q20 -38 20 -86q0 -54 -34 -92t-100 -52
q56 -49 86 -118.5zM586 100q67 38 105 105t38 150t-38 150.5t-105 105.5t-150 38q-84 0 -151 -38t-105 -105.5t-38 -150.5t38 -150t105 -105t151 -38q83 0 150 38zM295 917h80l114 -143h-66z" />
    <glyph glyph-name="uni1EDE" unicode="&#x1ede;" horiz-adv-x="871" 
d="M775 506.5q30 -69.5 30 -150.5q0 -104 -48 -187.5t-132.5 -131t-189.5 -47.5q-104 0 -188.5 47.5t-132.5 131t-48 187.5t48 187t133 130t193 47q66 0 128 -22q56 -20 87 -20q43 0 73.5 26.5t30.5 67.5q0 17 -5 35.5t-12 31.5l61 16q20 -38 20 -86q0 -54 -34 -92t-100 -52
q56 -49 86 -118.5zM586 100q67 38 105 105t38 150t-38 150.5t-105 105.5t-150 38q-84 0 -151 -38t-105 -105.5t-38 -150.5t38 -150t105 -105t151 -38q83 0 150 38zM411 812q8 12 31 24q26 13 36.5 22.5t10.5 24.5q0 32 -48 32q-33 0 -61 -14l-12 47q17 8 39.5 13t42.5 5
q40 0 68.5 -20.5t28.5 -57.5q0 -29 -16.5 -47t-46.5 -35q-14 -7 -17.5 -13t-4.5 -22h-59q0 29 8 41z" />
    <glyph glyph-name="uni1EE0" unicode="&#x1ee0;" horiz-adv-x="871" 
d="M775 506.5q30 -69.5 30 -150.5q0 -104 -48 -187.5t-132.5 -131t-189.5 -47.5q-104 0 -188.5 47.5t-132.5 131t-48 187.5t48 187t133 130t193 47q66 0 128 -22q56 -20 87 -20q43 0 73.5 26.5t30.5 67.5q0 17 -5 35.5t-12 31.5l61 16q20 -38 20 -86q0 -54 -34 -92t-100 -52
q56 -49 86 -118.5zM586 100q67 38 105 105t38 150t-38 150.5t-105 105.5t-150 38q-84 0 -151 -38t-105 -105.5t-38 -150.5t38 -150t105 -105t151 -38q83 0 150 38zM302.5 848q20.5 24 52.5 24q28 0 89 -24l35 -13t28 -6q15 0 22.5 10t10.5 33h51q-6 -47 -26 -72.5t-53 -25.5
q-17 0 -36.5 6t-49.5 18q-48 19 -64 19q-15 0 -22 -9.5t-13 -33.5h-51q6 50 26.5 74z" />
    <glyph glyph-name="Oslashacute" unicode="&#x1fe;" horiz-adv-x="871" 
d="M769 519.5q36 -74.5 36 -163.5q0 -104 -48 -187.5t-132.5 -131t-189.5 -47.5q-97 0 -179 42l-55 -82h-69l76 112q-67 50 -104.5 125.5t-37.5 167.5q0 104 48 187.5t132.5 130.5t189.5 47q102 0 184 -45l57 85h69l-78 -116q65 -50 101 -124.5zM170.5 224
q28.5 -60 78.5 -100l330 491q-63 34 -143 34q-84 0 -151 -38t-105 -105.5t-38 -150.5q0 -71 28.5 -131zM586 100q67 38 105 105t38 150q0 69 -27 128.5t-75 99.5l-329 -489q61 -32 138 -32q83 0 150 38zM492 917h79l-128 -143h-66z" />
    <glyph glyph-name="uni018F" unicode="&#x18f;" horiz-adv-x="778" 
d="M533.5 672.5q83.5 -47.5 130.5 -131t47 -188.5t-43.5 -188.5t-120 -130.5t-172.5 -47q-102 0 -175.5 44.5t-112.5 125.5t-39 187v13h587q-2 85 -40 151.5t-103.5 103t-148.5 36.5q-63 0 -120.5 -21.5t-103.5 -57.5l-24 69q110 82 251 82q104 0 187.5 -47.5zM492.5 89.5
q53.5 27.5 90 79t47.5 120.5h-496q8 -104 74 -165.5t169 -61.5q62 0 115.5 27.5z" />
    <glyph glyph-name="uni1EE4" unicode="&#x1ee4;" horiz-adv-x="741" 
d="M224.5 23.5q-61.5 33.5 -94 94.5t-32.5 142v450h75v-437q0 -104 54 -157.5t144 -53.5t144 53.5t54 157.5v437h75v-450q0 -81 -32.5 -142t-94 -94.5t-146.5 -33.5t-146.5 33.5zM333 -180q-15 15 -15 38q0 22 15 37.5t38 15.5q22 0 37.5 -15.5t15.5 -37.5q0 -23 -15.5 -38
t-37.5 -15q-23 0 -38 15z" />
    <glyph glyph-name="uni1EE6" unicode="&#x1ee6;" horiz-adv-x="741" 
d="M224.5 23.5q-61.5 33.5 -94 94.5t-32.5 142v450h75v-437q0 -104 54 -157.5t144 -53.5t144 53.5t54 157.5v437h75v-450q0 -81 -32.5 -142t-94 -94.5t-146.5 -33.5t-146.5 33.5zM348 812q8 12 31 24q26 13 36.5 22.5t10.5 24.5q0 32 -48 32q-33 0 -61 -14l-12 47
q17 8 39.5 13t42.5 5q40 0 68.5 -20.5t28.5 -57.5q0 -29 -16.5 -47t-46.5 -35q-14 -7 -17.5 -13t-4.5 -22h-59q0 29 8 41z" />
    <glyph glyph-name="Uhorn" unicode="&#x1af;" horiz-adv-x="741" 
d="M718 702q-25 -30 -74 -42v-400q0 -81 -32.5 -142t-94 -94.5t-146.5 -33.5t-146.5 33.5t-94 94.5t-32.5 142v450h75v-437q0 -104 54 -157.5t144 -53.5t144 53.5t54 157.5v437h11q50 0 74.5 15t24.5 51t-17 63l61 16q20 -35 20 -80q0 -43 -25 -73z" />
    <glyph glyph-name="uni1EE8" unicode="&#x1ee8;" horiz-adv-x="741" 
d="M718 702q-25 -30 -74 -42v-400q0 -81 -32.5 -142t-94 -94.5t-146.5 -33.5t-146.5 33.5t-94 94.5t-32.5 142v450h75v-437q0 -104 54 -157.5t144 -53.5t144 53.5t54 157.5v437h11q50 0 74.5 15t24.5 51t-17 63l61 16q20 -35 20 -80q0 -43 -25 -73zM429 917h79l-128 -143
h-66z" />
    <glyph glyph-name="uni1EF0" unicode="&#x1ef0;" horiz-adv-x="741" 
d="M718 702q-25 -30 -74 -42v-400q0 -81 -32.5 -142t-94 -94.5t-146.5 -33.5t-146.5 33.5t-94 94.5t-32.5 142v450h75v-437q0 -104 54 -157.5t144 -53.5t144 53.5t54 157.5v437h11q50 0 74.5 15t24.5 51t-17 63l61 16q20 -35 20 -80q0 -43 -25 -73zM333 -180q-15 15 -15 38
q0 22 15 37.5t38 15.5q22 0 37.5 -15.5t15.5 -37.5q0 -23 -15.5 -38t-37.5 -15q-23 0 -38 15z" />
    <glyph glyph-name="uni1EEA" unicode="&#x1eea;" horiz-adv-x="741" 
d="M718 702q-25 -30 -74 -42v-400q0 -81 -32.5 -142t-94 -94.5t-146.5 -33.5t-146.5 33.5t-94 94.5t-32.5 142v450h75v-437q0 -104 54 -157.5t144 -53.5t144 53.5t54 157.5v437h11q50 0 74.5 15t24.5 51t-17 63l61 16q20 -35 20 -80q0 -43 -25 -73zM232 917h80l114 -143h-66
z" />
    <glyph glyph-name="uni1EEC" unicode="&#x1eec;" horiz-adv-x="741" 
d="M718 702q-25 -30 -74 -42v-400q0 -81 -32.5 -142t-94 -94.5t-146.5 -33.5t-146.5 33.5t-94 94.5t-32.5 142v450h75v-437q0 -104 54 -157.5t144 -53.5t144 53.5t54 157.5v437h11q50 0 74.5 15t24.5 51t-17 63l61 16q20 -35 20 -80q0 -43 -25 -73zM348 812q8 12 31 24
q26 13 36.5 22.5t10.5 24.5q0 32 -48 32q-33 0 -61 -14l-12 47q17 8 39.5 13t42.5 5q40 0 68.5 -20.5t28.5 -57.5q0 -29 -16.5 -47t-46.5 -35q-14 -7 -17.5 -13t-4.5 -22h-59q0 29 8 41z" />
    <glyph glyph-name="uni1EEE" unicode="&#x1eee;" horiz-adv-x="741" 
d="M718 702q-25 -30 -74 -42v-400q0 -81 -32.5 -142t-94 -94.5t-146.5 -33.5t-146.5 33.5t-94 94.5t-32.5 142v450h75v-437q0 -104 54 -157.5t144 -53.5t144 53.5t54 157.5v437h11q50 0 74.5 15t24.5 51t-17 63l61 16q20 -35 20 -80q0 -43 -25 -73zM239.5 848
q20.5 24 52.5 24q28 0 89 -24l35 -13t28 -6q15 0 22.5 10t10.5 33h51q-6 -47 -26 -72.5t-53 -25.5q-17 0 -36.5 6t-49.5 18q-48 19 -64 19q-15 0 -22 -9.5t-13 -33.5h-51q6 50 26.5 74z" />
    <glyph glyph-name="uni1EF4" unicode="&#x1ef4;" horiz-adv-x="584" 
d="M329 284v-284h-74v284l-253 426h84l209 -352l208 352h79zM254 -180q-15 15 -15 38q0 22 15 37.5t38 15.5q22 0 37.5 -15.5t15.5 -37.5q0 -23 -15.5 -38t-37.5 -15q-23 0 -38 15z" />
    <glyph glyph-name="uni1EF6" unicode="&#x1ef6;" horiz-adv-x="584" 
d="M329 284v-284h-74v284l-253 426h84l209 -352l208 352h79zM266 812q8 12 31 24q26 13 36.5 22.5t10.5 24.5q0 32 -48 32q-33 0 -61 -14l-12 47q17 8 39.5 13t42.5 5q40 0 68.5 -20.5t28.5 -57.5q0 -29 -16.5 -47t-46.5 -35q-14 -7 -17.5 -13t-4.5 -22h-59q0 29 8 41z" />
    <glyph glyph-name="uni1EF8" unicode="&#x1ef8;" horiz-adv-x="584" 
d="M329 284v-284h-74v284l-253 426h84l209 -352l208 352h79zM157.5 848q20.5 24 52.5 24q28 0 89 -24l35 -13t28 -6q15 0 22.5 10t10.5 33h51q-6 -47 -26 -72.5t-53 -25.5q-17 0 -36.5 6t-49.5 18q-48 19 -64 19q-15 0 -22 -9.5t-13 -33.5h-51q6 50 26.5 74z" />
    <glyph glyph-name="uni1EAF" unicode="&#x1eaf;" horiz-adv-x="577" 
d="M438.5 461.5q52.5 -50.5 52.5 -149.5v-312h-69v88q-24 -44 -73.5 -71t-114.5 -27q-80 0 -125.5 40t-45.5 109q0 57 35.5 91.5t113.5 51t209 17.5v13q0 64 -36.5 101t-105.5 37q-89 0 -165 -61l-20 63q35 26 85.5 43t109.5 17q97 0 149.5 -50.5zM329.5 63.5
q39.5 15.5 65.5 49.5t26 85v50q-109 -1 -171 -12.5t-88 -34t-26 -60.5q0 -43 29 -68t83 -25q42 0 81.5 15.5zM308 855h68l-75 -100h-57zM191.5 621.5q-37.5 37.5 -39.5 103.5h55q1 -45 24 -68t62 -23q40 0 62 23.5t24 67.5h54q-1 -65 -39.5 -103t-101.5 -38t-100.5 37.5z
" />
    <glyph glyph-name="uni1EB7" unicode="&#x1eb7;" horiz-adv-x="577" 
d="M438.5 461.5q52.5 -50.5 52.5 -149.5v-312h-69v88q-24 -44 -73.5 -71t-114.5 -27q-80 0 -125.5 40t-45.5 109q0 57 35.5 91.5t113.5 51t209 17.5v13q0 64 -36.5 101t-105.5 37q-89 0 -165 -61l-20 63q35 26 85.5 43t109.5 17q97 0 149.5 -50.5zM329.5 63.5
q39.5 15.5 65.5 49.5t26 85v50q-109 -1 -171 -12.5t-88 -34t-26 -60.5q0 -43 29 -68t83 -25q42 0 81.5 15.5zM191.5 621.5q-37.5 37.5 -39.5 103.5h55q1 -45 24 -68t62 -23q40 0 62 23.5t24 67.5h54q-1 -65 -39.5 -103t-101.5 -38t-100.5 37.5zM251 -180q-15 15 -15 38
q0 22 15 37.5t38 15.5q22 0 37.5 -15.5t15.5 -37.5q0 -23 -15.5 -38t-37.5 -15q-23 0 -38 15z" />
    <glyph glyph-name="uni1EB1" unicode="&#x1eb1;" horiz-adv-x="577" 
d="M438.5 461.5q52.5 -50.5 52.5 -149.5v-312h-69v88q-24 -44 -73.5 -71t-114.5 -27q-80 0 -125.5 40t-45.5 109q0 57 35.5 91.5t113.5 51t209 17.5v13q0 64 -36.5 101t-105.5 37q-89 0 -165 -61l-20 63q35 26 85.5 43t109.5 17q97 0 149.5 -50.5zM329.5 63.5
q39.5 15.5 65.5 49.5t26 85v50q-109 -1 -171 -12.5t-88 -34t-26 -60.5q0 -43 29 -68t83 -25q42 0 81.5 15.5zM203 855h68l65 -100h-57zM191.5 621.5q-37.5 37.5 -39.5 103.5h55q1 -45 24 -68t62 -23q40 0 62 23.5t24 67.5h54q-1 -65 -39.5 -103t-101.5 -38t-100.5 37.5z" />
    <glyph glyph-name="uni1EB3" unicode="&#x1eb3;" horiz-adv-x="577" 
d="M438.5 461.5q52.5 -50.5 52.5 -149.5v-312h-69v88q-24 -44 -73.5 -71t-114.5 -27q-80 0 -125.5 40t-45.5 109q0 57 35.5 91.5t113.5 51t209 17.5v13q0 64 -36.5 101t-105.5 37q-89 0 -165 -61l-20 63q35 26 85.5 43t109.5 17q97 0 149.5 -50.5zM329.5 63.5
q39.5 15.5 65.5 49.5t26 85v50q-109 -1 -171 -12.5t-88 -34t-26 -60.5q0 -43 29 -68t83 -25q42 0 81.5 15.5zM270 788q7 11 29 21q23 13 32.5 21t9.5 21q0 29 -43 29q-31 0 -55 -12l-11 42q34 16 74 16q36 0 61.5 -18.5t25.5 -51.5q0 -26 -15 -42.5t-42 -31.5
q-13 -7 -16 -12t-3 -19h-54q0 26 7 37zM191.5 621.5q-37.5 37.5 -39.5 103.5h55q1 -45 24 -68t62 -23q40 0 62 23.5t24 67.5h54q-1 -65 -39.5 -103t-101.5 -38t-100.5 37.5z" />
    <glyph glyph-name="uni1EB5" unicode="&#x1eb5;" horiz-adv-x="577" 
d="M438.5 461.5q52.5 -50.5 52.5 -149.5v-312h-69v88q-24 -44 -73.5 -71t-114.5 -27q-80 0 -125.5 40t-45.5 109q0 57 35.5 91.5t113.5 51t209 17.5v13q0 64 -36.5 101t-105.5 37q-89 0 -165 -61l-20 63q35 26 85.5 43t109.5 17q97 0 149.5 -50.5zM329.5 63.5
q39.5 15.5 65.5 49.5t26 85v50q-109 -1 -171 -12.5t-88 -34t-26 -60.5q0 -43 29 -68t83 -25q42 0 81.5 15.5zM176 847.5q20 21.5 48 21.5q27 0 78 -21q39 -17 53 -17q28 0 34 38h45q-6 -44 -25.5 -66t-47.5 -22q-15 0 -32 5.5t-43 16.5q-40 17 -57 17q-12 0 -19.5 -8.5
t-12.5 -30.5h-46q5 45 25 66.5zM193.5 621.5q-37.5 37.5 -39.5 103.5h55q1 -45 24 -68t62 -23q40 0 62 23.5t24 67.5h54q-1 -65 -39.5 -103t-101.5 -38t-100.5 37.5z" />
    <glyph glyph-name="uni1EA5" unicode="&#x1ea5;" horiz-adv-x="577" 
d="M438.5 461.5q52.5 -50.5 52.5 -149.5v-312h-69v88q-24 -44 -73.5 -71t-114.5 -27q-80 0 -125.5 40t-45.5 109q0 57 35.5 91.5t113.5 51t209 17.5v13q0 64 -36.5 101t-105.5 37q-89 0 -165 -61l-20 63q35 26 85.5 43t109.5 17q97 0 149.5 -50.5zM329.5 63.5
q39.5 15.5 65.5 49.5t26 85v50q-109 -1 -171 -12.5t-88 -34t-26 -60.5q0 -43 29 -68t83 -25q42 0 81.5 15.5zM469 780h68l-75 -100h-57zM258 725h68l108 -152h-59l-83 107l-83 -107h-59z" />
    <glyph glyph-name="uni1EAD" unicode="&#x1ead;" horiz-adv-x="577" 
d="M438.5 461.5q52.5 -50.5 52.5 -149.5v-312h-69v88q-24 -44 -73.5 -71t-114.5 -27q-80 0 -125.5 40t-45.5 109q0 57 35.5 91.5t113.5 51t209 17.5v13q0 64 -36.5 101t-105.5 37q-89 0 -165 -61l-20 63q35 26 85.5 43t109.5 17q97 0 149.5 -50.5zM329.5 63.5
q39.5 15.5 65.5 49.5t26 85v50q-109 -1 -171 -12.5t-88 -34t-26 -60.5q0 -43 29 -68t83 -25q42 0 81.5 15.5zM255 725h76l120 -152h-66l-92 107l-92 -107h-66zM251 -180q-15 15 -15 38q0 22 15 37.5t38 15.5q22 0 37.5 -15.5t15.5 -37.5q0 -23 -15.5 -38t-37.5 -15
q-23 0 -38 15z" />
    <glyph glyph-name="uni1EA7" unicode="&#x1ea7;" horiz-adv-x="577" 
d="M438.5 461.5q52.5 -50.5 52.5 -149.5v-312h-69v88q-24 -44 -73.5 -71t-114.5 -27q-80 0 -125.5 40t-45.5 109q0 57 35.5 91.5t113.5 51t209 17.5v13q0 64 -36.5 101t-105.5 37q-89 0 -165 -61l-20 63q35 26 85.5 43t109.5 17q97 0 149.5 -50.5zM329.5 63.5
q39.5 15.5 65.5 49.5t26 85v50q-109 -1 -171 -12.5t-88 -34t-26 -60.5q0 -43 29 -68t83 -25q42 0 81.5 15.5zM52 780h68l65 -100h-57zM263 725h68l108 -152h-59l-83 107l-83 -107h-59z" />
    <glyph glyph-name="uni1EA9" unicode="&#x1ea9;" horiz-adv-x="577" 
d="M438.5 461.5q52.5 -50.5 52.5 -149.5v-312h-69v88q-24 -44 -73.5 -71t-114.5 -27q-80 0 -125.5 40t-45.5 109q0 57 35.5 91.5t113.5 51t209 17.5v13q0 64 -36.5 101t-105.5 37q-89 0 -165 -61l-20 63q35 26 85.5 43t109.5 17q97 0 149.5 -50.5zM329.5 63.5
q39.5 15.5 65.5 49.5t26 85v50q-109 -1 -171 -12.5t-88 -34t-26 -60.5q0 -43 29 -68t83 -25q42 0 81.5 15.5zM427 698q7 11 29 21q23 13 32.5 21t9.5 21q0 29 -43 29q-31 0 -55 -12l-11 42q34 16 74 16q36 0 61.5 -18.5t25.5 -51.5q0 -26 -15 -42.5t-42 -31.5
q-13 -7 -16 -12t-3 -19h-54q0 26 7 37zM259 725h68l108 -152h-59l-83 107l-83 -107h-59z" />
    <glyph glyph-name="uni1EAB" unicode="&#x1eab;" horiz-adv-x="577" 
d="M438.5 461.5q52.5 -50.5 52.5 -149.5v-312h-69v88q-24 -44 -73.5 -71t-114.5 -27q-80 0 -125.5 40t-45.5 109q0 57 35.5 91.5t113.5 51t209 17.5v13q0 64 -36.5 101t-105.5 37q-89 0 -165 -61l-20 63q35 26 85.5 43t109.5 17q97 0 149.5 -50.5zM329.5 63.5
q39.5 15.5 65.5 49.5t26 85v50q-109 -1 -171 -12.5t-88 -34t-26 -60.5q0 -43 29 -68t83 -25q42 0 81.5 15.5zM175 834.5q20 21.5 48 21.5q27 0 78 -21q39 -17 53 -17q28 0 34 38h45q-6 -44 -25.5 -66t-47.5 -22q-15 0 -32 5.5t-43 16.5q-40 17 -57 17q-12 0 -19.5 -8.5
t-12.5 -30.5h-46q5 45 25 66.5zM255 725h76l120 -152h-66l-92 107l-92 -107h-66z" />
    <glyph glyph-name="uni1EA1" unicode="&#x1ea1;" horiz-adv-x="577" 
d="M438.5 461.5q52.5 -50.5 52.5 -149.5v-312h-69v88q-24 -44 -73.5 -71t-114.5 -27q-80 0 -125.5 40t-45.5 109q0 57 35.5 91.5t113.5 51t209 17.5v13q0 64 -36.5 101t-105.5 37q-89 0 -165 -61l-20 63q35 26 85.5 43t109.5 17q97 0 149.5 -50.5zM329.5 63.5
q39.5 15.5 65.5 49.5t26 85v50q-109 -1 -171 -12.5t-88 -34t-26 -60.5q0 -43 29 -68t83 -25q42 0 81.5 15.5zM251 -180q-15 15 -15 38q0 22 15 37.5t38 15.5q22 0 37.5 -15.5t15.5 -37.5q0 -23 -15.5 -38t-37.5 -15q-23 0 -38 15z" />
    <glyph glyph-name="uni1EA3" unicode="&#x1ea3;" horiz-adv-x="577" 
d="M438.5 461.5q52.5 -50.5 52.5 -149.5v-312h-69v88q-24 -44 -73.5 -71t-114.5 -27q-80 0 -125.5 40t-45.5 109q0 57 35.5 91.5t113.5 51t209 17.5v13q0 64 -36.5 101t-105.5 37q-89 0 -165 -61l-20 63q35 26 85.5 43t109.5 17q97 0 149.5 -50.5zM329.5 63.5
q39.5 15.5 65.5 49.5t26 85v50q-109 -1 -171 -12.5t-88 -34t-26 -60.5q0 -43 29 -68t83 -25q42 0 81.5 15.5zM269 604q8 12 31 24q26 13 36.5 22.5t10.5 24.5q0 32 -48 32q-33 0 -61 -14l-12 47q17 8 39.5 13t42.5 5q40 0 68.5 -20.5t28.5 -57.5q0 -29 -16.5 -47t-46.5 -35
q-14 -7 -17.5 -13t-4.5 -22h-59q0 29 8 41z" />
    <glyph glyph-name="aringacute" unicode="&#x1fb;" horiz-adv-x="577" 
d="M438.5 461.5q52.5 -50.5 52.5 -149.5v-312h-69v88q-24 -44 -73.5 -71t-114.5 -27q-80 0 -125.5 40t-45.5 109q0 57 35.5 91.5t113.5 51t209 17.5v13q0 64 -36.5 101t-105.5 37q-89 0 -165 -61l-20 63q35 26 85.5 43t109.5 17q97 0 149.5 -50.5zM329.5 63.5
q39.5 15.5 65.5 49.5t26 85v50q-109 -1 -171 -12.5t-88 -34t-26 -60.5q0 -43 29 -68t83 -25q42 0 81.5 15.5zM221 590q-27 28 -27 69q0 42 28.5 69.5t71.5 27.5t71 -27.5t28 -69.5q0 -43 -29 -70t-72 -27q-44 0 -71 28zM329 624q13 13 13 35t-13 35t-35 13t-35.5 -13
t-13.5 -35t13.5 -35t35.5 -13t35 13zM349 979h74l-119 -152h-66z" />
    <glyph glyph-name="aeacute" unicode="&#x1fd;" horiz-adv-x="950" 
d="M906 246h-412q2 -88 54.5 -140t138.5 -52q55 0 103 20t80 50l20 -62q-35 -31 -89.5 -51.5t-117.5 -20.5q-77 0 -135 33.5t-91 90.5q-29 -55 -85 -89.5t-136 -34.5q-81 0 -127 39t-46 109q0 57 35.5 92t113.5 51.5t209 17.5v13q0 64 -36.5 101t-105.5 37q-89 0 -165 -61
l-20 63q35 26 85 43t111 17q67 0 113.5 -25t68.5 -75q34 47 85.5 73.5t112.5 26.5q69 0 122.5 -33t83.5 -91.5t30 -132.5v-9zM832 301q-8 66 -52 107.5t-110 41.5q-63 0 -111.5 -41.5t-60.5 -107.5h334zM329.5 64q39.5 16 65.5 51t26 88v45q-108 -2 -170 -13t-88.5 -34
t-26.5 -61q0 -43 29 -67.5t83 -24.5q42 0 81.5 16zM534 725h74l-119 -152h-66z" />
    <glyph glyph-name="uni1EBF" unicode="&#x1ebf;" horiz-adv-x="576" 
d="M532 246h-412q2 -88 54.5 -140t138.5 -52q55 0 103 20t80 50l20 -62q-35 -31 -89.5 -51.5t-117.5 -20.5q-78 0 -137 34.5t-91 94.5t-32 132q0 74 32.5 133.5t88.5 93.5t126 34q69 0 122.5 -33t83.5 -91.5t30 -132.5v-9zM458 301q-8 66 -52 107.5t-110 41.5
q-63 0 -111.5 -41.5t-60.5 -107.5h334zM474 780h68l-75 -100h-57zM263 725h68l108 -152h-59l-83 107l-83 -107h-59z" />
    <glyph glyph-name="uni1EC7" unicode="&#x1ec7;" horiz-adv-x="576" 
d="M532 246h-412q2 -88 54.5 -140t138.5 -52q55 0 103 20t80 50l20 -62q-35 -31 -89.5 -51.5t-117.5 -20.5q-78 0 -137 34.5t-91 94.5t-32 132q0 74 32.5 133.5t88.5 93.5t126 34q69 0 122.5 -33t83.5 -91.5t30 -132.5v-9zM458 301q-8 66 -52 107.5t-110 41.5
q-63 0 -111.5 -41.5t-60.5 -107.5h334zM262 725h76l120 -152h-66l-92 107l-92 -107h-66zM263 -180q-15 15 -15 38q0 22 15 37.5t38 15.5q22 0 37.5 -15.5t15.5 -37.5q0 -23 -15.5 -38t-37.5 -15q-23 0 -38 15z" />
    <glyph glyph-name="uni1EC1" unicode="&#x1ec1;" horiz-adv-x="576" 
d="M532 246h-412q2 -88 54.5 -140t138.5 -52q55 0 103 20t80 50l20 -62q-35 -31 -89.5 -51.5t-117.5 -20.5q-78 0 -137 34.5t-91 94.5t-32 132q0 74 32.5 133.5t88.5 93.5t126 34q69 0 122.5 -33t83.5 -91.5t30 -132.5v-9zM458 301q-8 66 -52 107.5t-110 41.5
q-63 0 -111.5 -41.5t-60.5 -107.5h334zM55 780h68l65 -100h-57zM266 725h68l108 -152h-59l-83 107l-83 -107h-59z" />
    <glyph glyph-name="uni1EC3" unicode="&#x1ec3;" horiz-adv-x="576" 
d="M532 246h-412q2 -88 54.5 -140t138.5 -52q55 0 103 20t80 50l20 -62q-35 -31 -89.5 -51.5t-117.5 -20.5q-78 0 -137 34.5t-91 94.5t-32 132q0 74 32.5 133.5t88.5 93.5t126 34q69 0 122.5 -33t83.5 -91.5t30 -132.5v-9zM458 301q-8 66 -52 107.5t-110 41.5
q-63 0 -111.5 -41.5t-60.5 -107.5h334zM434 698q7 11 29 21q23 13 32.5 21t9.5 21q0 29 -43 29q-31 0 -55 -12l-11 42q34 16 74 16q36 0 61.5 -18.5t25.5 -51.5q0 -26 -15 -42.5t-42 -31.5q-13 -7 -16 -12t-3 -19h-54q0 26 7 37zM266 725h68l108 -152h-59l-83 107l-83 -107
h-59z" />
    <glyph glyph-name="uni1EC5" unicode="&#x1ec5;" horiz-adv-x="576" 
d="M532 246h-412q2 -88 54.5 -140t138.5 -52q55 0 103 20t80 50l20 -62q-35 -31 -89.5 -51.5t-117.5 -20.5q-78 0 -137 34.5t-91 94.5t-32 132q0 74 32.5 133.5t88.5 93.5t126 34q69 0 122.5 -33t83.5 -91.5t30 -132.5v-9zM458 301q-8 66 -52 107.5t-110 41.5
q-63 0 -111.5 -41.5t-60.5 -107.5h334zM182 834.5q20 21.5 48 21.5q27 0 78 -21q39 -17 53 -17q28 0 34 38h45q-6 -44 -25.5 -66t-47.5 -22q-15 0 -32 5.5t-43 16.5q-40 17 -57 17q-12 0 -19.5 -8.5t-12.5 -30.5h-46q5 45 25 66.5zM262 725h76l120 -152h-66l-92 107
l-92 -107h-66z" />
    <glyph glyph-name="uni1EB9" unicode="&#x1eb9;" horiz-adv-x="576" 
d="M532 246h-412q2 -88 54.5 -140t138.5 -52q55 0 103 20t80 50l20 -62q-35 -31 -89.5 -51.5t-117.5 -20.5q-78 0 -137 34.5t-91 94.5t-32 132q0 74 32.5 133.5t88.5 93.5t126 34q69 0 122.5 -33t83.5 -91.5t30 -132.5v-9zM458 301q-8 66 -52 107.5t-110 41.5
q-63 0 -111.5 -41.5t-60.5 -107.5h334zM263 -180q-15 15 -15 38q0 22 15 37.5t38 15.5q22 0 37.5 -15.5t15.5 -37.5q0 -23 -15.5 -38t-37.5 -15q-23 0 -38 15z" />
    <glyph glyph-name="uni1EBB" unicode="&#x1ebb;" horiz-adv-x="576" 
d="M532 246h-412q2 -88 54.5 -140t138.5 -52q55 0 103 20t80 50l20 -62q-35 -31 -89.5 -51.5t-117.5 -20.5q-78 0 -137 34.5t-91 94.5t-32 132q0 74 32.5 133.5t88.5 93.5t126 34q69 0 122.5 -33t83.5 -91.5t30 -132.5v-9zM458 301q-8 66 -52 107.5t-110 41.5
q-63 0 -111.5 -41.5t-60.5 -107.5h334zM276 604q8 12 31 24q26 13 36.5 22.5t10.5 24.5q0 32 -48 32q-33 0 -61 -14l-12 47q17 8 39.5 13t42.5 5q40 0 68.5 -20.5t28.5 -57.5q0 -29 -16.5 -47t-46.5 -35q-14 -7 -17.5 -13t-4.5 -22h-59q0 29 8 41z" />
    <glyph glyph-name="uni1EBD" unicode="&#x1ebd;" horiz-adv-x="576" 
d="M532 246h-412q2 -88 54.5 -140t138.5 -52q55 0 103 20t80 50l20 -62q-35 -31 -89.5 -51.5t-117.5 -20.5q-78 0 -137 34.5t-91 94.5t-32 132q0 74 32.5 133.5t88.5 93.5t126 34q69 0 122.5 -33t83.5 -91.5t30 -132.5v-9zM458 301q-8 66 -52 107.5t-110 41.5
q-63 0 -111.5 -41.5t-60.5 -107.5h334zM169 671q22 24 53 24q28 0 87 -24q19 -8 34 -13.5t25 -5.5q31 0 37 43h51q-6 -49 -28.5 -73.5t-53.5 -24.5q-16 0 -35.5 6t-47.5 18q-45 19 -63 19q-13 0 -21.5 -9t-14.5 -34h-51q6 50 28 74z" />
    <glyph glyph-name="uni0259" unicode="&#x259;" horiz-adv-x="576" 
d="M404 477.5q59 -34.5 91 -94.5t32 -132q0 -74 -32.5 -133.5t-88.5 -93.5t-126 -34q-69 0 -122.5 33t-83.5 91.5t-30 132.5v9h412q-2 88 -54.5 140t-138.5 52q-55 0 -103 -20t-80 -50l-20 62q35 31 89.5 51.5t117.5 20.5q78 0 137 -34.5zM391.5 93.5q48.5 41.5 60.5 107.5
h-334q8 -66 52 -107.5t110 -41.5q63 0 111.5 41.5z" />
    <glyph glyph-name="uni1ECB" unicode="&#x1ecb;" horiz-adv-x="255" 
d="M93 502h70v-502h-70v502zM91 627.5q-15 15.5 -15 37.5q0 23 15 38t38 15q22 0 37.5 -15t15.5 -38q0 -22 -15.5 -37.5t-37.5 -15.5q-23 0 -38 15.5zM91 -180q-15 15 -15 38q0 22 15 37.5t38 15.5q22 0 37.5 -15.5t15.5 -37.5q0 -23 -15.5 -38t-37.5 -15q-23 0 -38 15z" />
    <glyph glyph-name="uni1EC9" unicode="&#x1ec9;" horiz-adv-x="255" 
d="M93 502h70v-502h-70v502zM105 604q8 12 31 24q26 13 36.5 22.5t10.5 24.5q0 32 -48 32q-33 0 -61 -14l-12 47q17 8 39.5 13t42.5 5q40 0 68.5 -20.5t28.5 -57.5q0 -29 -16.5 -47t-46.5 -35q-14 -7 -17.5 -13t-4.5 -22h-59q0 29 8 41z" />
    <glyph glyph-name="uni1ED1" unicode="&#x1ed1;" horiz-adv-x="624" 
d="M175.5 23.5q-59.5 33.5 -93 92.5t-33.5 135t33.5 135t93 92.5t136.5 33.5t136.5 -33.5t93 -92.5t33.5 -135t-33.5 -135t-93 -92.5t-136.5 -33.5t-136.5 33.5zM412 81.5q44 24.5 68 68.5t24 101t-24.5 101t-68 68.5t-99.5 24.5t-99.5 -24.5t-67.5 -68.5t-24 -100
q0 -58 24.5 -102t67.5 -68.5t99 -24.5t100 24.5zM486 780h68l-75 -100h-57zM275 725h68l108 -152h-59l-83 107l-83 -107h-59z" />
    <glyph glyph-name="uni1ED9" unicode="&#x1ed9;" horiz-adv-x="624" 
d="M175.5 23.5q-59.5 33.5 -93 92.5t-33.5 135t33.5 135t93 92.5t136.5 33.5t136.5 -33.5t93 -92.5t33.5 -135t-33.5 -135t-93 -92.5t-136.5 -33.5t-136.5 33.5zM412 81.5q44 24.5 68 68.5t24 101t-24.5 101t-68 68.5t-99.5 24.5t-99.5 -24.5t-67.5 -68.5t-24 -100
q0 -58 24.5 -102t67.5 -68.5t99 -24.5t100 24.5zM274 725h76l120 -152h-66l-92 107l-92 -107h-66zM281 -180q-15 15 -15 38q0 22 15 37.5t38 15.5q22 0 37.5 -15.5t15.5 -37.5q0 -23 -15.5 -38t-37.5 -15q-23 0 -38 15z" />
    <glyph glyph-name="uni1ED3" unicode="&#x1ed3;" horiz-adv-x="624" 
d="M175.5 23.5q-59.5 33.5 -93 92.5t-33.5 135t33.5 135t93 92.5t136.5 33.5t136.5 -33.5t93 -92.5t33.5 -135t-33.5 -135t-93 -92.5t-136.5 -33.5t-136.5 33.5zM412 81.5q44 24.5 68 68.5t24 101t-24.5 101t-68 68.5t-99.5 24.5t-99.5 -24.5t-67.5 -68.5t-24 -100
q0 -58 24.5 -102t67.5 -68.5t99 -24.5t100 24.5zM67 780h68l65 -100h-57zM278 725h68l108 -152h-59l-83 107l-83 -107h-59z" />
    <glyph glyph-name="uni1ED5" unicode="&#x1ed5;" horiz-adv-x="624" 
d="M175.5 23.5q-59.5 33.5 -93 92.5t-33.5 135t33.5 135t93 92.5t136.5 33.5t136.5 -33.5t93 -92.5t33.5 -135t-33.5 -135t-93 -92.5t-136.5 -33.5t-136.5 33.5zM412 81.5q44 24.5 68 68.5t24 101t-24.5 101t-68 68.5t-99.5 24.5t-99.5 -24.5t-67.5 -68.5t-24 -100
q0 -58 24.5 -102t67.5 -68.5t99 -24.5t100 24.5zM446 698q7 11 29 21q23 13 32.5 21t9.5 21q0 29 -43 29q-31 0 -55 -12l-11 42q34 16 74 16q36 0 61.5 -18.5t25.5 -51.5q0 -26 -15 -42.5t-42 -31.5q-13 -7 -16 -12t-3 -19h-54q0 26 7 37zM278 725h68l108 -152h-59l-83 107
l-83 -107h-59z" />
    <glyph glyph-name="uni1ED7" unicode="&#x1ed7;" horiz-adv-x="624" 
d="M175.5 23.5q-59.5 33.5 -93 92.5t-33.5 135t33.5 135t93 92.5t136.5 33.5t136.5 -33.5t93 -92.5t33.5 -135t-33.5 -135t-93 -92.5t-136.5 -33.5t-136.5 33.5zM412 81.5q44 24.5 68 68.5t24 101t-24.5 101t-68 68.5t-99.5 24.5t-99.5 -24.5t-67.5 -68.5t-24 -100
q0 -58 24.5 -102t67.5 -68.5t99 -24.5t100 24.5zM194 834.5q20 21.5 48 21.5q27 0 78 -21q39 -17 53 -17q28 0 34 38h45q-6 -44 -25.5 -66t-47.5 -22q-15 0 -32 5.5t-43 16.5q-40 17 -57 17q-12 0 -19.5 -8.5t-12.5 -30.5h-46q5 45 25 66.5zM274 725h76l120 -152h-66
l-92 107l-92 -107h-66z" />
    <glyph glyph-name="uni1ECD" unicode="&#x1ecd;" horiz-adv-x="624" 
d="M175.5 23.5q-59.5 33.5 -93 92.5t-33.5 135t33.5 135t93 92.5t136.5 33.5t136.5 -33.5t93 -92.5t33.5 -135t-33.5 -135t-93 -92.5t-136.5 -33.5t-136.5 33.5zM412 81.5q44 24.5 68 68.5t24 101t-24.5 101t-68 68.5t-99.5 24.5t-99.5 -24.5t-67.5 -68.5t-24 -100
q0 -58 24.5 -102t67.5 -68.5t99 -24.5t100 24.5zM281 -180q-15 15 -15 38q0 22 15 37.5t38 15.5q22 0 37.5 -15.5t15.5 -37.5q0 -23 -15.5 -38t-37.5 -15q-23 0 -38 15z" />
    <glyph glyph-name="uni1ECF" unicode="&#x1ecf;" horiz-adv-x="624" 
d="M175.5 23.5q-59.5 33.5 -93 92.5t-33.5 135t33.5 135t93 92.5t136.5 33.5t136.5 -33.5t93 -92.5t33.5 -135t-33.5 -135t-93 -92.5t-136.5 -33.5t-136.5 33.5zM412 81.5q44 24.5 68 68.5t24 101t-24.5 101t-68 68.5t-99.5 24.5t-99.5 -24.5t-67.5 -68.5t-24 -100
q0 -58 24.5 -102t67.5 -68.5t99 -24.5t100 24.5zM288 604q8 12 31 24q26 13 36.5 22.5t10.5 24.5q0 32 -48 32q-33 0 -61 -14l-12 47q17 8 39.5 13t42.5 5q40 0 68.5 -20.5t28.5 -57.5q0 -29 -16.5 -47t-46.5 -35q-14 -7 -17.5 -13t-4.5 -22h-59q0 29 8 41z" />
    <glyph glyph-name="ohorn" unicode="&#x1a1;" horiz-adv-x="624" 
d="M574.5 474q-26.5 -32 -68.5 -40q33 -34 51 -81t18 -102q0 -76 -33.5 -135t-93 -92.5t-136.5 -33.5t-136.5 33.5t-93 92.5t-33.5 135t33.5 135t93.5 92.5t137 33.5q25 0 46.5 -4t50.5 -13q33 -9 52 -9q37 0 56 16.5t19 55.5t-17 64l61 17q20 -37 20 -81q0 -52 -26.5 -84z
M412.5 81.5q43.5 24.5 67.5 68.5t24 101t-24.5 101t-68.5 68.5t-100 24.5t-99 -24.5t-67 -68.5t-24 -100q0 -58 24.5 -102t68 -68.5t99.5 -24.5t99.5 24.5z" />
    <glyph glyph-name="uni1EDB" unicode="&#x1edb;" horiz-adv-x="624" 
d="M574.5 474q-26.5 -32 -68.5 -40q33 -34 51 -81t18 -102q0 -76 -33.5 -135t-93 -92.5t-136.5 -33.5t-136.5 33.5t-93 92.5t-33.5 135t33.5 135t93.5 92.5t137 33.5q25 0 46.5 -4t50.5 -13q33 -9 52 -9q37 0 56 16.5t19 55.5t-17 64l61 17q20 -37 20 -81q0 -52 -26.5 -84z
M412.5 81.5q43.5 24.5 67.5 68.5t24 101t-24.5 101t-68.5 68.5t-100 24.5t-99 -24.5t-67 -68.5t-24 -100q0 -58 24.5 -102t68 -68.5t99.5 -24.5t99.5 24.5zM368 725h74l-119 -152h-66z" />
    <glyph glyph-name="uni1EE3" unicode="&#x1ee3;" horiz-adv-x="624" 
d="M574.5 474q-26.5 -32 -68.5 -40q33 -34 51 -81t18 -102q0 -76 -33.5 -135t-93 -92.5t-136.5 -33.5t-136.5 33.5t-93 92.5t-33.5 135t33.5 135t93.5 92.5t137 33.5q25 0 46.5 -4t50.5 -13q33 -9 52 -9q37 0 56 16.5t19 55.5t-17 64l61 17q20 -37 20 -81q0 -52 -26.5 -84z
M412.5 81.5q43.5 24.5 67.5 68.5t24 101t-24.5 101t-68.5 68.5t-100 24.5t-99 -24.5t-67 -68.5t-24 -100q0 -58 24.5 -102t68 -68.5t99.5 -24.5t99.5 24.5zM281 -180q-15 15 -15 38q0 22 15 37.5t38 15.5q22 0 37.5 -15.5t15.5 -37.5q0 -23 -15.5 -38t-37.5 -15
q-23 0 -38 15z" />
    <glyph glyph-name="uni1EDD" unicode="&#x1edd;" horiz-adv-x="624" 
d="M574.5 474q-26.5 -32 -68.5 -40q33 -34 51 -81t18 -102q0 -76 -33.5 -135t-93 -92.5t-136.5 -33.5t-136.5 33.5t-93 92.5t-33.5 135t33.5 135t93.5 92.5t137 33.5q25 0 46.5 -4t50.5 -13q33 -9 52 -9q37 0 56 16.5t19 55.5t-17 64l61 17q20 -37 20 -81q0 -52 -26.5 -84z
M412.5 81.5q43.5 24.5 67.5 68.5t24 101t-24.5 101t-68.5 68.5t-100 24.5t-99 -24.5t-67 -68.5t-24 -100q0 -58 24.5 -102t68 -68.5t99.5 -24.5t99.5 24.5zM192 725h74l112 -152h-66z" />
    <glyph glyph-name="uni1EDF" unicode="&#x1edf;" horiz-adv-x="624" 
d="M574.5 474q-26.5 -32 -68.5 -40q33 -34 51 -81t18 -102q0 -76 -33.5 -135t-93 -92.5t-136.5 -33.5t-136.5 33.5t-93 92.5t-33.5 135t33.5 135t93.5 92.5t137 33.5q25 0 46.5 -4t50.5 -13q33 -9 52 -9q37 0 56 16.5t19 55.5t-17 64l61 17q20 -37 20 -81q0 -52 -26.5 -84z
M412.5 81.5q43.5 24.5 67.5 68.5t24 101t-24.5 101t-68.5 68.5t-100 24.5t-99 -24.5t-67 -68.5t-24 -100q0 -58 24.5 -102t68 -68.5t99.5 -24.5t99.5 24.5zM288 604q8 12 31 24q26 13 36.5 22.5t10.5 24.5q0 32 -48 32q-33 0 -61 -14l-12 47q17 8 39.5 13t42.5 5
q40 0 68.5 -20.5t28.5 -57.5q0 -29 -16.5 -47t-46.5 -35q-14 -7 -17.5 -13t-4.5 -22h-59q0 29 8 41z" />
    <glyph glyph-name="uni1EE1" unicode="&#x1ee1;" horiz-adv-x="624" 
d="M574.5 474q-26.5 -32 -68.5 -40q33 -34 51 -81t18 -102q0 -76 -33.5 -135t-93 -92.5t-136.5 -33.5t-136.5 33.5t-93 92.5t-33.5 135t33.5 135t93.5 92.5t137 33.5q25 0 46.5 -4t50.5 -13q33 -9 52 -9q37 0 56 16.5t19 55.5t-17 64l61 17q20 -37 20 -81q0 -52 -26.5 -84z
M412.5 81.5q43.5 24.5 67.5 68.5t24 101t-24.5 101t-68.5 68.5t-100 24.5t-99 -24.5t-67 -68.5t-24 -100q0 -58 24.5 -102t68 -68.5t99.5 -24.5t99.5 24.5zM181 671q22 24 53 24q28 0 87 -24q19 -8 34 -13.5t25 -5.5q31 0 37 43h51q-6 -49 -28.5 -73.5t-53.5 -24.5
q-16 0 -35.5 6t-47.5 18q-45 19 -63 19q-13 0 -21.5 -9t-14.5 -34h-51q6 50 28 74z" />
    <glyph glyph-name="oslashacute" unicode="&#x1ff;" horiz-adv-x="624" 
d="M552 364.5q23 -51.5 23 -113.5q0 -75 -34 -134.5t-93.5 -93t-135.5 -33.5q-71 0 -129 30l-52 -74h-64l72 103q-43 35 -66.5 87.5t-23.5 114.5q0 75 34 134.5t93.5 93t135.5 33.5q72 0 131 -31l52 73h64l-72 -103q42 -35 65 -86.5zM134.5 169q15.5 -38 44.5 -64l226 321
q-40 21 -93 21q-56 0 -100 -25t-68.5 -69t-24.5 -101q0 -45 15.5 -83zM412 80q44 25 68.5 69.5t24.5 101.5q0 44 -15 81t-42 64l-226 -321q40 -20 90 -20q56 0 100 25zM368 725h74l-119 -152h-66z" />
    <glyph glyph-name="uni1EE5" unicode="&#x1ee5;" horiz-adv-x="615" 
d="M522 502v-502h-70v95q-24 -50 -72 -77.5t-113 -27.5q-85 0 -133 51.5t-48 152.5v308h70v-289q0 -79 34.5 -119.5t99.5 -40.5q46 0 83 21t58 58t21 84v286h70zM269 -180q-15 15 -15 38q0 22 15 37.5t38 15.5q22 0 37.5 -15.5t15.5 -37.5q0 -23 -15.5 -38t-37.5 -15
q-23 0 -38 15z" />
    <glyph glyph-name="uni1EE7" unicode="&#x1ee7;" horiz-adv-x="615" 
d="M522 502v-502h-70v95q-24 -50 -72 -77.5t-113 -27.5q-85 0 -133 51.5t-48 152.5v308h70v-289q0 -79 34.5 -119.5t99.5 -40.5q46 0 83 21t58 58t21 84v286h70zM286 604q8 12 31 24q26 13 36.5 22.5t10.5 24.5q0 32 -48 32q-33 0 -61 -14l-12 47q17 8 39.5 13t42.5 5
q40 0 68.5 -20.5t28.5 -57.5q0 -29 -16.5 -47t-46.5 -35q-14 -7 -17.5 -13t-4.5 -22h-59q0 29 8 41z" />
    <glyph glyph-name="uhorn" unicode="&#x1b0;" horiz-adv-x="615" 
d="M596 494q-25 -30 -74 -42v-452h-70v95q-24 -50 -72 -77.5t-113 -27.5q-85 0 -133 51.5t-48 152.5v308h70v-289q0 -79 34.5 -119.5t99.5 -40.5q46 0 83 21t58 58t21 84v286h6q50 0 74.5 15t24.5 51t-17 63l61 16q20 -35 20 -80q0 -43 -25 -73z" />
    <glyph glyph-name="uni1EE9" unicode="&#x1ee9;" horiz-adv-x="615" 
d="M596 494q-25 -30 -74 -42v-452h-70v95q-24 -50 -72 -77.5t-113 -27.5q-85 0 -133 51.5t-48 152.5v308h70v-289q0 -79 34.5 -119.5t99.5 -40.5q46 0 83 21t58 58t21 84v286h6q50 0 74.5 15t24.5 51t-17 63l61 16q20 -35 20 -80q0 -43 -25 -73zM366 725h74l-119 -152h-66z
" />
    <glyph glyph-name="uni1EF1" unicode="&#x1ef1;" horiz-adv-x="615" 
d="M596 494q-25 -30 -74 -42v-452h-70v95q-24 -50 -72 -77.5t-113 -27.5q-85 0 -133 51.5t-48 152.5v308h70v-289q0 -79 34.5 -119.5t99.5 -40.5q46 0 83 21t58 58t21 84v286h6q50 0 74.5 15t24.5 51t-17 63l61 16q20 -35 20 -80q0 -43 -25 -73zM269 -180q-15 15 -15 38
q0 22 15 37.5t38 15.5q22 0 37.5 -15.5t15.5 -37.5q0 -23 -15.5 -38t-37.5 -15q-23 0 -38 15z" />
    <glyph glyph-name="uni1EEB" unicode="&#x1eeb;" horiz-adv-x="615" 
d="M596 494q-25 -30 -74 -42v-452h-70v95q-24 -50 -72 -77.5t-113 -27.5q-85 0 -133 51.5t-48 152.5v308h70v-289q0 -79 34.5 -119.5t99.5 -40.5q46 0 83 21t58 58t21 84v286h6q50 0 74.5 15t24.5 51t-17 63l61 16q20 -35 20 -80q0 -43 -25 -73zM190 725h74l112 -152h-66z
" />
    <glyph glyph-name="uni1EED" unicode="&#x1eed;" horiz-adv-x="615" 
d="M596 494q-25 -30 -74 -42v-452h-70v95q-24 -50 -72 -77.5t-113 -27.5q-85 0 -133 51.5t-48 152.5v308h70v-289q0 -79 34.5 -119.5t99.5 -40.5q46 0 83 21t58 58t21 84v286h6q50 0 74.5 15t24.5 51t-17 63l61 16q20 -35 20 -80q0 -43 -25 -73zM286 604q8 12 31 24
q26 13 36.5 22.5t10.5 24.5q0 32 -48 32q-33 0 -61 -14l-12 47q17 8 39.5 13t42.5 5q40 0 68.5 -20.5t28.5 -57.5q0 -29 -16.5 -47t-46.5 -35q-14 -7 -17.5 -13t-4.5 -22h-59q0 29 8 41z" />
    <glyph glyph-name="uni1EEF" unicode="&#x1eef;" horiz-adv-x="615" 
d="M596 494q-25 -30 -74 -42v-452h-70v95q-24 -50 -72 -77.5t-113 -27.5q-85 0 -133 51.5t-48 152.5v308h70v-289q0 -79 34.5 -119.5t99.5 -40.5q46 0 83 21t58 58t21 84v286h6q50 0 74.5 15t24.5 51t-17 63l61 16q20 -35 20 -80q0 -43 -25 -73zM179 671q22 24 53 24
q28 0 87 -24q19 -8 34 -13.5t25 -5.5q31 0 37 43h51q-6 -49 -28.5 -73.5t-53.5 -24.5q-16 0 -35.5 6t-47.5 18q-45 19 -63 19q-13 0 -21.5 -9t-14.5 -34h-51q6 50 28 74z" />
    <glyph glyph-name="uni1EF5" unicode="&#x1ef5;" horiz-adv-x="489" 
d="M485 502l-235 -574q-30 -74 -73 -108.5t-105 -34.5q-33 0 -58 8l10 64q18 -5 38 -5q43 0 72 21t53 78l32 74l-215 477h77l175 -394l154 394h75zM337 -188q-15 15 -15 38q0 22 15 37.5t38 15.5q22 0 37.5 -15.5t15.5 -37.5q0 -23 -15.5 -38t-37.5 -15q-23 0 -38 15z" />
    <glyph glyph-name="uni1EF7" unicode="&#x1ef7;" horiz-adv-x="489" 
d="M485 502l-235 -574q-30 -74 -73 -108.5t-105 -34.5q-33 0 -58 8l10 64q18 -5 38 -5q43 0 72 21t53 78l32 74l-215 477h77l175 -394l154 394h75zM222 604q8 12 31 24q26 13 36.5 22.5t10.5 24.5q0 32 -48 32q-33 0 -61 -14l-12 47q17 8 39.5 13t42.5 5q40 0 68.5 -20.5
t28.5 -57.5q0 -29 -16.5 -47t-46.5 -35q-14 -7 -17.5 -13t-4.5 -22h-59q0 29 8 41z" />
    <glyph glyph-name="uni1EF9" unicode="&#x1ef9;" horiz-adv-x="489" 
d="M485 502l-235 -574q-30 -74 -73 -108.5t-105 -34.5q-33 0 -58 8l10 64q18 -5 38 -5q43 0 72 21t53 78l32 74l-215 477h77l175 -394l154 394h75zM115 671q22 24 53 24q28 0 87 -24q19 -8 34 -13.5t25 -5.5q31 0 37 43h51q-6 -49 -28.5 -73.5t-53.5 -24.5q-16 0 -35.5 6
t-47.5 18q-45 19 -63 19q-13 0 -21.5 -9t-14.5 -34h-51q6 50 28 74z" />
    <glyph glyph-name="uni207F" unicode="&#x207f;" horiz-adv-x="385" 
d="M296 693.5q29 -32.5 29 -93.5v-185h-51v174q0 44 -19.5 66.5t-57.5 22.5q-40 0 -62.5 -27t-22.5 -74v-162h-52v305h52v-46q32 52 101 52q54 0 83 -32.5z" />
    <glyph glyph-name="uni0410" unicode="&#x410;" horiz-adv-x="666" 
d="M480 230h-296l-87 -230h-76l273 710h78l273 -710h-78zM457 293l-125 331l-125 -331h250z" />
    <glyph glyph-name="uni0411" unicode="&#x411;" horiz-adv-x="611" 
d="M507.5 354.5q57.5 -52.5 57.5 -145.5q0 -97 -57.5 -153t-171.5 -56h-233v710h378v-69h-303v-234h158q114 0 171.5 -52.5zM447 102q41 36 41 106q0 67 -42.5 100t-120.5 33h-147v-275h147q81 0 122 36z" />
    <glyph glyph-name="uni0412" unicode="&#x412;" horiz-adv-x="618" 
d="M521.5 312q38.5 -46 38.5 -113q0 -90 -59 -144.5t-160 -54.5h-238v710h198q99 0 156 -49.5t57 -131.5q0 -108 -97 -157q66 -14 104.5 -60zM178 390h129q60 0 97.5 38.5t37.5 94.5q0 55 -38.5 88t-107.5 33h-118v-254zM445 103q40 37 40 99q0 59 -37 91t-101 32h-169v-259
h156q71 0 111 37z" />
    <glyph glyph-name="uni0413" unicode="&#x413;" horiz-adv-x="520" 
d="M495 641h-317v-641h-75v710h392v-69z" />
    <glyph glyph-name="uni0403" unicode="&#x403;" horiz-adv-x="520" 
d="M495 641h-317v-641h-75v710h392v-69zM363 917h79l-128 -143h-66z" />
    <glyph glyph-name="uni0490" unicode="&#x490;" horiz-adv-x="520" 
d="M495 850v-209h-317v-641h-75v710h323v140h69z" />
    <glyph glyph-name="uni0414" unicode="&#x414;" horiz-adv-x="679" 
d="M646 68v-235h-68v167h-499v-167h-69v235h43q30 0 54.5 48.5t32.5 121.5l52 472h372v-642h82zM190.5 123q-15.5 -43 -34.5 -55h333v574h-230l-46 -409q-7 -67 -22.5 -110z" />
    <glyph glyph-name="uni0415" unicode="&#x415;" horiz-adv-x="578" 
d="M103 710h389v-68h-314v-252h305v-67h-305v-255h322v-68h-397v710z" />
    <glyph glyph-name="uni0400" unicode="&#x400;" horiz-adv-x="578" 
d="M103 710h389v-68h-314v-252h305v-67h-305v-255h322v-68h-397v710zM162 917h80l114 -143h-66z" />
    <glyph glyph-name="uni0401" unicode="&#x401;" horiz-adv-x="578" 
d="M103 710h389v-68h-314v-252h305v-67h-305v-255h322v-68h-397v710zM161.5 809.5q-14.5 14.5 -14.5 34.5q0 21 14.5 35.5t35.5 14.5q20 0 34.5 -14.5t14.5 -35.5q0 -20 -14.5 -34.5t-34.5 -14.5q-21 0 -35.5 14.5zM374 809.5q-14 14.5 -14 34.5q0 21 14 35.5t35 14.5
t35.5 -14.5t14.5 -35.5q0 -20 -14.5 -34.5t-35.5 -14.5t-35 14.5z" />
    <glyph glyph-name="uni0416" unicode="&#x416;" horiz-adv-x="990" 
d="M601 324h-69v-325h-74v325h-69l-293 -325h-90l327 365l-297 345h88l271 -321h63v321h74v-321h63l271 321h88l-296 -345l326 -365h-90z" />
    <glyph glyph-name="uni0417" unicode="&#x417;" horiz-adv-x="590" 
d="M136 16.5q-62 27.5 -103 71.5l38 60q40 -41 90.5 -66t117.5 -25q82 0 130.5 38.5t48.5 105.5q0 71 -59.5 104.5t-185.5 33.5v63q121 2 169.5 40.5t48.5 94.5q0 54 -39.5 85t-106.5 31q-102 0 -185 -72l-33 59q97 80 220 80q98 0 158 -48t60 -127q0 -66 -40 -109.5
t-106 -58.5q82 -12 127.5 -57t45.5 -121q0 -61 -29.5 -109t-86.5 -74.5t-136 -26.5q-82 0 -144 27.5z" />
    <glyph glyph-name="uni0418" unicode="&#x418;" horiz-adv-x="776" 
d="M673 710v-710h-74v593l-425 -593h-71v710h74v-593l425 593h71z" />
    <glyph glyph-name="uni0419" unicode="&#x419;" horiz-adv-x="776" 
d="M673 710v-710h-74v593l-425 -593h-71v710h74v-593l425 593h71zM277.5 806.5q-39.5 28.5 -42.5 85.5h55q4 -35 29 -49.5t71 -14.5q44 0 68.5 15t28.5 49h54q-4 -56 -45 -85t-107 -29q-72 0 -111.5 28.5z" />
    <glyph glyph-name="uni040D" unicode="&#x40d;" horiz-adv-x="776" 
d="M673 710v-710h-74v593l-425 -593h-71v710h74v-593l425 593h71zM248 917h80l114 -143h-66z" />
    <glyph glyph-name="uni041A" unicode="&#x41a;" horiz-adv-x="635" 
d="M245 324h-67v-325h-75v710h75v-321h61l273 321h87l-296 -345l326 -365h-92z" />
    <glyph glyph-name="uni040C" unicode="&#x40c;" horiz-adv-x="635" 
d="M245 324h-67v-325h-75v710h75v-321h61l273 321h87l-296 -345l326 -365h-92zM397 917h79l-128 -143h-66z" />
    <glyph glyph-name="uni041B" unicode="&#x41b;" horiz-adv-x="665" 
d="M562 0h-75v642h-248l-49 -513q-6 -68 -35.5 -102t-88.5 -34q-36 0 -66 13l14 68q7 -5 20.5 -9t25.5 -4q27 0 40.5 21.5t18.5 70.5l53 557h390v-710z" />
    <glyph glyph-name="uni041C" unicode="&#x41c;" horiz-adv-x="862" 
d="M103 710h86l240 -365l246 365h84v-710h-74v601l-229 -342h-54l-225 342v-601h-74v710z" />
    <glyph glyph-name="uni041D" unicode="&#x41d;" horiz-adv-x="759" 
d="M655 710v-710h-75v321h-402v-321h-75v710h75v-320h402v320h75z" />
    <glyph glyph-name="uni041E" unicode="&#x41e;" horiz-adv-x="871" 
d="M246.5 37q-84.5 47 -132.5 130.5t-48 187.5t48 187.5t132.5 130.5t189.5 47q104 0 188.5 -47t132.5 -130.5t48 -186.5q0 -104 -48 -187.5t-132.5 -131t-189.5 -47.5q-104 0 -188.5 47zM586 100q67 38 105 105t38 150t-38 150.5t-105 105.5t-150 38q-84 0 -151 -38
t-105 -105.5t-38 -150.5t38 -150t105 -105t151 -38q83 0 150 38z" />
    <glyph glyph-name="uni041F" unicode="&#x41f;" horiz-adv-x="749" 
d="M645 0h-75v642h-392v-642h-75v710h542v-710z" />
    <glyph glyph-name="uni0420" unicode="&#x420;" horiz-adv-x="585" 
d="M477 651.5q62 -58.5 62 -159.5q0 -61 -28 -113t-82 -83t-129 -31h-122v-265h-75v710h197q115 0 177 -58.5zM414 374q48 43 48 118q0 80 -46 116t-124 36h-114v-313h114q74 0 122 43z" />
    <glyph glyph-name="uni0421" unicode="&#x421;" horiz-adv-x="729" 
d="M244.5 37.5q-83.5 47.5 -131 131t-47.5 188.5q0 104 47.5 187t131.5 129.5t188 46.5q68 0 129 -20.5t109 -58.5l-26 -71q-44 37 -98 57.5t-113 20.5q-84 0 -150 -37.5t-103.5 -104t-37.5 -149.5q0 -84 37.5 -151t104 -105.5t149.5 -38.5q64 0 121.5 22t103.5 58l23 -70
q-56 -42 -117 -62t-133 -20q-104 0 -187.5 47.5z" />
    <glyph glyph-name="uni0422" unicode="&#x422;" horiz-adv-x="522" 
d="M497 642h-196v-642h-75v642h-201v68h472v-68z" />
    <glyph glyph-name="uni0423" unicode="&#x423;" horiz-adv-x="617" 
d="M614 710l-240 -546q-26 -61 -49 -96.5t-58.5 -56.5t-91.5 -21q-61 0 -107 21l18 66q35 -20 86 -20q44 0 71 24t52 79l-278 550h81l234 -473l203 473h79z" />
    <glyph glyph-name="uni040E" unicode="&#x40e;" horiz-adv-x="617" 
d="M614 710l-240 -546q-26 -61 -49 -96.5t-58.5 -56.5t-91.5 -21q-61 0 -107 21l18 66q35 -20 86 -20q44 0 71 24t52 79l-278 550h81l234 -473l203 473h79zM198.5 806.5q-39.5 28.5 -42.5 85.5h55q4 -35 29 -49.5t71 -14.5q44 0 68.5 15t28.5 49h54q-4 -56 -45 -85t-107 -29
q-72 0 -111.5 28.5z" />
    <glyph glyph-name="uni0424" unicode="&#x424;" horiz-adv-x="849" 
d="M757 205.5q-43 -64.5 -120 -101.5t-176 -43v-73h-71v73q-100 6 -177 43t-120.5 101.5t-43.5 149.5t43.5 149.5t120.5 101.5t177 43v73h71v-73q99 -6 176 -43t120 -101.5t43 -149.5t-43 -149.5zM196.5 194.5q73.5 -61.5 193.5 -69.5v460q-120 -8 -193.5 -69.5
t-73.5 -160.5t73.5 -160.5zM653 195.5q73 61.5 73 159.5t-73 159.5t-192 70.5v-460q119 9 192 70.5z" />
    <glyph glyph-name="uni0425" unicode="&#x425;" horiz-adv-x="667" 
d="M539 0l-202 300l-202 -300h-83l244 359l-237 351h87l194 -290l196 290h81l-237 -348l246 -362h-87z" />
    <glyph glyph-name="uni0427" unicode="&#x427;" horiz-adv-x="704" 
d="M526 341q-49 -38 -112.5 -61t-135.5 -23q-107 0 -159 53t-52 148v252h75v-238q0 -73 35 -111t113 -38q60 0 122.5 21.5t113.5 59.5v306h75v-709h-75v340z" />
    <glyph glyph-name="uni0426" unicode="&#x426;" horiz-adv-x="761" 
d="M729 68v-235h-69v167h-557v710h75v-642h393v642h75v-642h83z" />
    <glyph glyph-name="uni0428" unicode="&#x428;" horiz-adv-x="1126" 
d="M103 710h75v-642h347v642h75v-642h347v642h75v-710h-919v710z" />
    <glyph glyph-name="uni0429" unicode="&#x429;" horiz-adv-x="1138" 
d="M1105 68v-235h-69v167h-933v710h75v-642h347v642h75v-642h347v642h75v-642h83z" />
    <glyph glyph-name="uni040F" unicode="&#x40f;" horiz-adv-x="749" 
d="M645 710v-710h-237v-167h-68v167h-237v710h75v-642h392v642h75z" />
    <glyph glyph-name="uni042C" unicode="&#x42c;" horiz-adv-x="611" 
d="M507.5 354.5q57.5 -52.5 57.5 -145.5q0 -97 -57.5 -153t-171.5 -56h-233v710h75v-303h158q114 0 171.5 -52.5zM447 102q41 36 41 106q0 67 -42.5 100t-120.5 33h-147v-275h147q81 0 122 36z" />
    <glyph glyph-name="uni042A" unicode="&#x42a;" horiz-adv-x="737" 
d="M633.5 354.5q57.5 -52.5 57.5 -145.5q0 -97 -57.5 -153t-171.5 -56h-233v641h-204v69h279v-303h158q114 0 171.5 -52.5zM573 102q41 36 41 106q0 67 -42.5 100t-120.5 33h-147v-275h147q81 0 122 36z" />
    <glyph glyph-name="uni042B" unicode="&#x42b;" horiz-adv-x="893" 
d="M507.5 354.5q57.5 -52.5 57.5 -145.5q0 -97 -57.5 -153t-171.5 -56h-233v710h75v-303h158q114 0 171.5 -52.5zM447 102q41 36 41 106q0 67 -42.5 100t-120.5 33h-147v-275h147q81 0 122 36zM714 710h75v-710h-75v710z" />
    <glyph glyph-name="uni0409" unicode="&#x409;" horiz-adv-x="964" 
d="M860.5 354.5q57.5 -52.5 57.5 -145.5q0 -97 -57.5 -153t-171.5 -56h-233v642h-217l-49 -513q-6 -68 -35.5 -102t-88.5 -34q-36 0 -66 13l14 68q7 -5 20.5 -9t26.5 -4q27 0 40 21.5t18 70.5l53 557h359v-303h158q114 0 171.5 -52.5zM800 102q41 36 41 106q0 67 -42.5 100
t-120.5 33h-147v-275h147q81 0 122 36z" />
    <glyph glyph-name="uni040A" unicode="&#x40a;" horiz-adv-x="1051" 
d="M947.5 354.5q57.5 -52.5 57.5 -145.5q0 -97 -57.5 -153t-171.5 -56h-233v340h-365v-340h-75v710h75v-303h365v303h75v-303h158q114 0 171.5 -52.5zM887 102q41 36 41 106q0 67 -42.5 100t-120.5 33h-147v-275h147q81 0 122 36z" />
    <glyph glyph-name="uni0405" unicode="&#x405;" horiz-adv-x="583" 
d="M166.5 9q-57.5 19 -102.5 52l21 73q41 -35 95 -55t111 -20q70 0 110 33t40 94q0 39 -19 63t-50.5 40t-92.5 38q-65 24 -106 47t-67 60.5t-26 94.5q0 58 28.5 101.5t80 67t118.5 23.5q50 0 98.5 -12.5t86.5 -33.5l-18 -71q-37 22 -82.5 35.5t-89.5 13.5
q-67 0 -107.5 -32.5t-40.5 -86.5q0 -38 19 -63t50 -41t88 -38q9 -4 20 -7q65 -25 101 -44.5t59.5 -55.5t23.5 -94q0 -95 -63 -148t-167 -53q-61 0 -118.5 19z" />
    <glyph glyph-name="uni0404" unicode="&#x404;" horiz-adv-x="729" 
d="M682 72q-110 -82 -247 -82q-106 0 -190 46t-131.5 129t-47.5 190q0 106 47.5 189t131 129.5t187.5 46.5q69 0 130 -21t109 -59l-26 -69q-44 38 -98 58.5t-115 20.5q-78 0 -141.5 -33.5t-102.5 -93.5t-46 -137h395v-67h-394q8 -76 47 -135t102 -91.5t141 -32.5
q65 0 122.5 22t103.5 58z" />
    <glyph glyph-name="uni042D" unicode="&#x42d;" horiz-adv-x="729" 
d="M489 674q82 -46 128 -129t46 -190q0 -106 -46.5 -189.5t-126.5 -129.5t-178 -46q-81 0 -145 20t-120 62l23 68q101 -80 235 -80q75 0 136 32.5t99 91t46 135.5h-394v67h395q-6 78 -43 137.5t-99.5 93t-141.5 33.5q-63 0 -119 -20.5t-101 -57.5l-25 68q49 38 111.5 59
t133.5 21q104 0 186 -46z" />
    <glyph glyph-name="uni0406" unicode="&#x406;" horiz-adv-x="282" 
d="M103 710h75v-710h-75v710z" />
    <glyph glyph-name="uni0407" unicode="&#x407;" horiz-adv-x="282" 
d="M103 710h75v-710h-75v710zM0.5 809.5q-14.5 14.5 -14.5 34.5q0 21 14.5 35.5t35.5 14.5q20 0 34.5 -14.5t14.5 -35.5q0 -20 -14.5 -34.5t-34.5 -14.5q-21 0 -35.5 14.5zM213 809.5q-14 14.5 -14 34.5q0 21 14 35.5t35 14.5t35.5 -14.5t14.5 -35.5q0 -20 -14.5 -34.5
t-35.5 -14.5t-35 14.5z" />
    <glyph glyph-name="uni0408" unicode="&#x408;" horiz-adv-x="398" 
d="M0 11l15 67q18 -9 40 -14.5t41 -5.5q61 0 96.5 44t35.5 132v476h75v-485q0 -114 -53 -174.5t-147 -60.5q-57 0 -103 21z" />
    <glyph glyph-name="uni040B" unicode="&#x40b;" horiz-adv-x="851" 
d="M704 399.5q51 -51.5 51 -143.5v-256h-75v249q0 133 -142 133q-60 0 -123 -20t-114 -56v-306h-75v642h-201v68h472v-68h-196v-273q113 82 248 82q104 0 155 -51.5z" />
    <glyph glyph-name="uni042E" unicode="&#x42e;" horiz-adv-x="1116" 
d="M869.5 673q84.5 -47 132.5 -130.5t48 -186.5q0 -104 -48 -187.5t-132.5 -131t-189.5 -47.5q-98 0 -179 42.5t-131 118t-58 170.5h-134v-321h-75v710h75v-320h134q8 96 58 171t131 117t180 42q104 0 188.5 -47zM831 100q67 38 105 105t38 150t-38 150.5t-105 105.5
t-150 38q-84 0 -151 -38t-105 -105.5t-38 -150.5t38 -150t105 -105t151 -38q83 0 150 38z" />
    <glyph glyph-name="uni042F" unicode="&#x42f;" horiz-adv-x="632" 
d="M528 0h-75v297h-134q-12 0 -17 1l-181 -298h-88l197 312q-61 23 -95 75.5t-34 119.5q0 93 60.5 148t163.5 55h203v-710zM453 361v283h-121q-67 0 -111 -34t-44 -105q0 -73 42 -108.5t107 -35.5h127z" />
    <glyph glyph-name="uni0402" unicode="&#x402;" horiz-adv-x="808" 
d="M697.5 391.5q63.5 -60.5 63.5 -165.5q0 -72 -29 -125.5t-80 -82t-115 -28.5q-58 0 -104 21l15 67q18 -9 43 -14.5t48 -5.5q64 0 106 43t42 119q0 77 -45.5 121t-127.5 44q-52 0 -107 -19.5t-106 -54.5v-311h-75v642h-201v68h472v-68h-196v-268q50 36 103.5 57t119.5 21
q110 0 173.5 -60.5z" />
    <glyph glyph-name="uni0492" unicode="&#x492;" horiz-adv-x="520" 
d="M178 641v-271h208v-65h-208v-305h-75v305h-89v65h89v340h392v-69h-317z" />
    <glyph glyph-name="uni0496" unicode="&#x496;" horiz-adv-x="1042" 
d="M1018 68v-235h-69v166h-55l-293 325h-69v-325h-74v325h-69l-293 -325h-90l327 365l-297 345h88l271 -321h63v321h74v-321h63l271 321h88l-296 -345l264 -296h96z" />
    <glyph glyph-name="uni049A" unicode="&#x49a;" horiz-adv-x="686" 
d="M662 68v-235h-69v166h-56l-292 325h-67v-325h-75v710h75v-321h61l273 321h87l-296 -345l264 -296h95z" />
    <glyph glyph-name="uni049C" unicode="&#x49c;" horiz-adv-x="668" 
d="M572 -1l-260 321v-209h-58v213h-76v-325h-75v710h75v-321h76v196h58v-185l235 310h85l-267 -345l297 -365h-90z" />
    <glyph glyph-name="uni04A2" unicode="&#x4a2;" horiz-adv-x="771" 
d="M738 68v-235h-68v167h-90v321h-402v-321h-75v710h75v-320h402v320h75v-642h83z" />
    <glyph glyph-name="uni04AE" unicode="&#x4ae;" horiz-adv-x="584" 
d="M329 284v-284h-74v284l-253 426h84l209 -352l208 352h79z" />
    <glyph glyph-name="uni04B2" unicode="&#x4b2;" horiz-adv-x="700" 
d="M676 68v-235h-69v167h-68l-202 300l-202 -300h-83l244 359l-237 351h87l194 -290l196 290h81l-237 -348l200 -294h96z" />
    <glyph glyph-name="uni04B8" unicode="&#x4b8;" horiz-adv-x="704" 
d="M601 710v-709h-75v340q-70 -55 -163 -75v-179h-58v171q-9 -1 -27 -1q-107 0 -159 53t-52 148v252h75v-238q0 -73 35 -111t113 -38h15v236h58v-228q90 19 163 73v306h75z" />
    <glyph glyph-name="uni04BA" unicode="&#x4ba;" horiz-adv-x="704" 
d="M178 369q49 38 112.5 61t135.5 23q107 0 159 -53t52 -148v-252h-75v238q0 73 -35 111t-113 38q-60 0 -122.5 -21.5t-113.5 -59.5v-306h-75v709h75v-340z" />
    <glyph glyph-name="uni04C0" unicode="&#x4c0;" horiz-adv-x="282" 
d="M103 710h75v-710h-75v710z" />
    <glyph glyph-name="uni04D8" unicode="&#x4d8;" horiz-adv-x="778" 
d="M533.5 672.5q83.5 -47.5 130.5 -131t47 -188.5t-43.5 -188.5t-120 -130.5t-172.5 -47q-102 0 -175.5 44.5t-112.5 125.5t-39 187v13h587q-2 85 -40 151.5t-103.5 103t-148.5 36.5q-63 0 -120.5 -21.5t-103.5 -57.5l-24 69q110 82 251 82q104 0 187.5 -47.5zM492.5 89.5
q53.5 27.5 90 79t47.5 120.5h-496q8 -104 74 -165.5t169 -61.5q62 0 115.5 27.5z" />
    <glyph glyph-name="uni04E8" unicode="&#x4e8;" horiz-adv-x="871" 
d="M622.5 672q84.5 -48 133.5 -131t49 -185t-49 -186t-133.5 -132t-187.5 -48q-102 0 -186.5 48t-133.5 131.5t-49 185.5t49 185.5t133.5 131.5t186.5 48q103 0 187.5 -48zM296.5 615q-63.5 -34 -104 -94t-47.5 -134h582q-7 74 -47.5 134t-104.5 94t-139 34
q-76 0 -139.5 -34zM575 95q64 34 104 93t48 133h-582q8 -74 48 -133t103.5 -93t139.5 -34q75 0 139 34z" />
    <glyph glyph-name="uni0430" unicode="&#x430;" horiz-adv-x="577" 
d="M438.5 461.5q52.5 -50.5 52.5 -149.5v-312h-69v88q-24 -44 -73.5 -71t-114.5 -27q-80 0 -125.5 40t-45.5 109q0 57 35.5 91.5t113.5 51t209 17.5v13q0 64 -36.5 101t-105.5 37q-89 0 -165 -61l-20 63q35 26 85.5 43t109.5 17q97 0 149.5 -50.5zM329.5 63.5
q39.5 15.5 65.5 49.5t26 85v50q-109 -1 -171 -12.5t-88 -34t-26 -60.5q0 -43 29 -68t83 -25q42 0 81.5 15.5z" />
    <glyph glyph-name="uni0431" unicode="&#x431;" horiz-adv-x="628" 
d="M461.5 476.5q54.5 -31.5 85.5 -89.5t31 -135q0 -76 -31.5 -135.5t-90 -93t-136.5 -33.5q-262 0 -262 386q0 116 26.5 189.5t86 115t161.5 58.5q37 6 64 9q76 7 132 16l10 -64q-52 -8 -130 -15q-45 -5 -56 -7q-76 -11 -122.5 -36.5t-71.5 -81.5t-28 -155q34 46 87.5 74.5
t120.5 28.5q69 0 123.5 -31.5zM456.5 110q50.5 55 50.5 143q0 87 -49.5 139t-128.5 52q-66 0 -119 -35t-80 -86q8 -147 58.5 -207.5t131.5 -60.5q86 0 136.5 55z" />
    <glyph glyph-name="uni0432" unicode="&#x432;" horiz-adv-x="537" 
d="M93 502h183q87 0 130 -33t43 -90q0 -44 -23.5 -74t-60.5 -39q57 -5 90 -37.5t33 -86.5q0 -70 -50.5 -106t-129.5 -36h-215v502zM276 288q56 0 80 23.5t24 58.5q0 76 -108 76h-109v-158h113zM299 55q56 0 86.5 24t30.5 66q0 44 -34 66.5t-100 22.5h-119v-179h136z" />
    <glyph glyph-name="uni0433" unicode="&#x433;" horiz-adv-x="419" 
d="M93 502h297v-61h-227v-441h-70v502z" />
    <glyph glyph-name="uni0453" unicode="&#x453;" horiz-adv-x="419" 
d="M93 502h297v-61h-227v-441h-70v502zM293 725h74l-119 -152h-66z" />
    <glyph glyph-name="uni0491" unicode="&#x491;" horiz-adv-x="419" 
d="M390 624v-183h-227v-441h-70v502h231v122h66z" />
    <glyph glyph-name="uni0434" unicode="&#x434;" horiz-adv-x="598" 
d="M570 61v-207h-67v146h-418v-146h-67v207h30q39 0 59.5 30.5t28.5 101.5l38 309h318v-441h78zM190.5 107q-10.5 -30 -28.5 -46h260v380h-186l-30 -257q-5 -47 -15.5 -77z" />
    <glyph glyph-name="uni0435" unicode="&#x435;" horiz-adv-x="576" 
d="M532 246h-412q2 -88 54.5 -140t138.5 -52q55 0 103 20t80 50l20 -62q-35 -31 -89.5 -51.5t-117.5 -20.5q-78 0 -137 34.5t-91 94.5t-32 132q0 74 32.5 133.5t88.5 93.5t126 34q69 0 122.5 -33t83.5 -91.5t30 -132.5v-9zM458 301q-8 66 -52 107.5t-110 41.5
q-63 0 -111.5 -41.5t-60.5 -107.5h334z" />
    <glyph glyph-name="uni0450" unicode="&#x450;" horiz-adv-x="576" 
d="M532 246h-412q2 -88 54.5 -140t138.5 -52q55 0 103 20t80 50l20 -62q-35 -31 -89.5 -51.5t-117.5 -20.5q-78 0 -137 34.5t-91 94.5t-32 132q0 74 32.5 133.5t88.5 93.5t126 34q69 0 122.5 -33t83.5 -91.5t30 -132.5v-9zM458 301q-8 66 -52 107.5t-110 41.5
q-63 0 -111.5 -41.5t-60.5 -107.5h334zM180 725h74l112 -152h-66z" />
    <glyph glyph-name="uni0451" unicode="&#x451;" horiz-adv-x="576" 
d="M532 246h-412q2 -88 54.5 -140t138.5 -52q55 0 103 20t80 50l20 -62q-35 -31 -89.5 -51.5t-117.5 -20.5q-78 0 -137 34.5t-91 94.5t-32 132q0 74 32.5 133.5t88.5 93.5t126 34q69 0 122.5 -33t83.5 -91.5t30 -132.5v-9zM458 301q-8 66 -52 107.5t-110 41.5
q-63 0 -111.5 -41.5t-60.5 -107.5h334zM157.5 631.5q-14.5 14.5 -14.5 34.5q0 21 14.5 35.5t35.5 14.5q20 0 34.5 -14.5t14.5 -35.5q0 -20 -14.5 -34.5t-34.5 -14.5q-21 0 -35.5 14.5zM370 631.5q-14 14.5 -14 34.5q0 21 14 35.5t35 14.5t35.5 -14.5t14.5 -35.5
q0 -20 -14.5 -34.5t-35.5 -14.5t-35 14.5z" />
    <glyph glyph-name="uni0436" unicode="&#x436;" horiz-adv-x="752" 
d="M436 234h-25v-234h-69v234h-26l-217 -234h-88l248 265l-238 237h85l208 -212h28v212h69v-212h28l208 212h85l-238 -237l247 -265h-87z" />
    <glyph glyph-name="uni0437" unicode="&#x437;" horiz-adv-x="519" 
d="M121.5 6.5q-54.5 16.5 -83.5 38.5l16 66q35 -25 82 -41.5t104 -16.5q65 0 102.5 22.5t37.5 65.5t-46.5 64.5t-160.5 21.5v62q98 0 141.5 22t43.5 64q0 36 -30 55.5t-83 19.5q-80 0 -153 -46l-20 61q90 47 179 47q82 0 131 -34.5t49 -93.5q0 -48 -33.5 -81.5t-93.5 -39.5
q69 -6 111 -38.5t42 -90.5q0 -69 -59.5 -106.5t-154.5 -37.5q-67 0 -121.5 16.5z" />
    <glyph glyph-name="uni0438" unicode="&#x438;" horiz-adv-x="642" 
d="M550 502v-502h-68v403l-321 -403h-68v502h68v-403l321 403h68z" />
    <glyph glyph-name="uni0439" unicode="&#x439;" horiz-adv-x="642" 
d="M550 502v-502h-68v403l-321 -403h-68v502h68v-403l321 403h68zM212 626q-40 36 -42 99h55q1 -42 27 -63.5t69 -21.5q44 0 69 22t27 63h54q-2 -62 -42.5 -98.5t-108.5 -36.5t-108 36z" />
    <glyph glyph-name="uni045D" unicode="&#x45d;" horiz-adv-x="642" 
d="M550 502v-502h-68v403l-321 -403h-68v502h68v-403l321 403h68zM201 725h74l112 -152h-66z" />
    <glyph glyph-name="uni043A" unicode="&#x43a;" horiz-adv-x="502" 
d="M186 234h-25v-234h-68v502h68v-212h28l208 212h85l-238 -237l248 -265h-88z" />
    <glyph glyph-name="uni045C" unicode="&#x45c;" horiz-adv-x="502" 
d="M186 234h-25v-234h-68v502h68v-212h28l208 212h85l-238 -237l248 -265h-88zM325 725h74l-119 -152h-66z" />
    <glyph glyph-name="uni043B" unicode="&#x43b;" horiz-adv-x="607" 
d="M8 6l13 66q7 -4 20.5 -8.5t23.5 -4.5q29 0 44 21t20 67l44 355h342v-502h-70v441h-210l-38 -317q-8 -64 -39 -97.5t-83 -33.5q-37 0 -67 13z" />
    <glyph glyph-name="uni043C" unicode="&#x43c;" horiz-adv-x="747" 
d="M93 502h77l203 -353l204 353h78v-502h-68v395l-188 -325h-52l-187 325v-395h-67v502z" />
    <glyph glyph-name="uni043D" unicode="&#x43d;" horiz-adv-x="614" 
d="M522 502v-502h-70v223h-289v-223h-70v502h70v-218h289v218h70z" />
    <glyph glyph-name="uni043E" unicode="&#x43e;" horiz-adv-x="624" 
d="M175.5 23.5q-59.5 33.5 -93 92.5t-33.5 135t33.5 135t93 92.5t136.5 33.5t136.5 -33.5t93 -92.5t33.5 -135t-33.5 -135t-93 -92.5t-136.5 -33.5t-136.5 33.5zM412 81.5q44 24.5 68 68.5t24 101t-24.5 101t-68 68.5t-99.5 24.5t-99.5 -24.5t-67.5 -68.5t-24 -100
q0 -58 24.5 -102t67.5 -68.5t99 -24.5t100 24.5z" />
    <glyph glyph-name="uni043F" unicode="&#x43f;" horiz-adv-x="612" 
d="M520 0h-70v441h-287v-441h-70v502h427v-502z" />
    <glyph glyph-name="uni0440" unicode="&#x440;" horiz-adv-x="648" 
d="M483 478.5q55 -33.5 85.5 -93t30.5 -133.5q0 -75 -31 -134.5t-87 -93.5t-128 -34q-56 0 -108.5 28.5t-81.5 82.5v-311h-70v712h70v-101q31 54 84 82.5t112 28.5q69 0 124 -33.5zM441 81q41 25 64 69.5t23 100.5q0 55 -22 99.5t-62.5 70t-94.5 25.5q-53 0 -97 -25
t-69.5 -69.5t-25.5 -99.5t25 -99.5t68.5 -70.5t96.5 -26t94 25z" />
    <glyph glyph-name="uni0441" unicode="&#x441;" horiz-adv-x="520" 
d="M169.5 22.5q-56.5 32.5 -88.5 92t-32 135.5q0 77 32 136.5t90 92.5t132 33q96 0 172 -53l-23 -64q-66 51 -146 51q-83 0 -134 -53.5t-51 -140.5q0 -58 23 -102.5t63.5 -69t92.5 -24.5q44 0 86.5 14.5t77.5 39.5l18 -62q-35 -26 -83 -42t-102 -16q-71 0 -127.5 32.5z" />
    <glyph glyph-name="uni0442" unicode="&#x442;" horiz-adv-x="453" 
d="M424 441h-163v-441h-70v441h-162v61h395v-61z" />
    <glyph glyph-name="uni0443" unicode="&#x443;" horiz-adv-x="489" 
d="M485 502l-235 -574q-30 -74 -73 -108.5t-105 -34.5q-33 0 -58 8l10 64q18 -5 38 -5q43 0 72 21t53 78l32 74l-215 477h77l175 -394l154 394h75z" />
    <glyph glyph-name="uni045E" unicode="&#x45e;" horiz-adv-x="489" 
d="M485 502l-235 -574q-30 -74 -73 -108.5t-105 -34.5q-33 0 -58 8l10 64q18 -5 38 -5q43 0 72 21t53 78l32 74l-215 477h77l175 -394l154 394h75zM137 626q-40 36 -42 99h55q1 -42 27 -63.5t69 -21.5q44 0 69 22t27 63h54q-2 -62 -42.5 -98.5t-108.5 -36.5t-108 36z" />
    <glyph glyph-name="uni0444" unicode="&#x444;" horiz-adv-x="971" 
d="M815 479q51 -33 79 -92.5t28 -135.5t-28.5 -135t-80 -92.5t-118.5 -33.5q-121 0 -174 112v-312h-70v309q-52 -109 -171 -109q-70 0 -122 33.5t-80.5 92.5t-28.5 135q0 75 28 134.5t80 93t121 33.5q120 0 173 -110v350h70v-349q55 109 176 109q67 0 118 -33zM406 112
q45 55 45 139t-45 139t-120 55q-74 0 -119.5 -54t-45.5 -140t45.5 -140t119.5 -54q75 0 120 55zM772 82q37 25 57.5 69.5t20.5 100.5t-20.5 100t-57 68.5t-83.5 24.5q-49 0 -87 -25.5t-59.5 -69.5t-21.5 -99q0 -54 21.5 -98.5t59.5 -70t86 -25.5q47 0 84 25z" />
    <glyph glyph-name="uni0445" unicode="&#x445;" horiz-adv-x="515" 
d="M217 259l-187 243h86l143 -193l144 193h83l-186 -242l197 -260h-83l-156 209l-157 -209h-83z" />
    <glyph glyph-name="uni0447" unicode="&#x447;" horiz-adv-x="594" 
d="M433 199q-33 -19 -70.5 -31t-91.5 -12q-89 0 -142.5 50t-53.5 147v149h70v-133q0 -152 141 -152q81 0 147 42v243h70v-502h-70v199z" />
    <glyph glyph-name="uni0446" unicode="&#x446;" horiz-adv-x="626" 
d="M598 61v-207h-66v146h-439v502h70v-441h287v441h70v-441h78z" />
    <glyph glyph-name="uni0448" unicode="&#x448;" horiz-adv-x="883" 
d="M791 502v-502h-698v502h70v-441h244v441h70v-441h244v441h70z" />
    <glyph glyph-name="uni0449" unicode="&#x449;" horiz-adv-x="897" 
d="M869 61v-207h-66v146h-710v502h70v-441h244v441h70v-441h244v441h70v-441h78z" />
    <glyph glyph-name="uni045F" unicode="&#x45f;" horiz-adv-x="612" 
d="M520 502v-502h-180v-146h-66v146h-181v502h70v-441h287v441h70z" />
    <glyph glyph-name="uni044C" unicode="&#x44c;" horiz-adv-x="529" 
d="M93 502h70v-211h136q86 0 133.5 -36t47.5 -106q0 -69 -48.5 -109t-124.5 -40h-214v502zM299 55q55 0 82.5 24.5t27.5 68.5q0 45 -30 67t-90 22h-126v-182h136z" />
    <glyph glyph-name="uni044A" unicode="&#x44a;" horiz-adv-x="647" 
d="M551.5 255q47.5 -36 47.5 -106q0 -69 -48.5 -109t-124.5 -40h-214v441h-173v61h243v-211h136q86 0 133.5 -36zM500.5 79.5q27.5 24.5 27.5 68.5q0 45 -30 67t-90 22h-126v-182h136q55 0 82.5 24.5z" />
    <glyph glyph-name="uni044B" unicode="&#x44b;" horiz-adv-x="726" 
d="M93 502h70v-211h136q86 0 133.5 -36t47.5 -106q0 -69 -48.5 -109t-124.5 -40h-214v502zM564 502h70v-502h-70v502zM299 55q55 0 82.5 24.5t27.5 68.5q0 45 -30 67t-90 22h-126v-182h136z" />
    <glyph glyph-name="uni0459" unicode="&#x459;" horiz-adv-x="855" 
d="M758.5 255q47.5 -36 47.5 -106q0 -69 -48.5 -109t-124.5 -40h-214v441h-184l-38 -317q-7 -64 -38.5 -97.5t-82.5 -33.5q-38 0 -68 13l13 66q8 -5 21 -9t28 -4q22 0 38 22t21 66l44 355h316v-211h136q86 0 133.5 -36zM707.5 79.5q27.5 24.5 27.5 68.5q0 45 -30 67t-90 22
h-126v-182h136q55 0 82.5 24.5z" />
    <glyph glyph-name="uni045A" unicode="&#x45a;" horiz-adv-x="876" 
d="M779.5 255q47.5 -36 47.5 -106q0 -69 -48.5 -109t-124.5 -40h-214v234h-277v-234h-70v502h70v-211h277v211h70v-211h136q86 0 133.5 -36zM728.5 79.5q27.5 24.5 27.5 68.5q0 45 -30 67t-90 22h-126v-182h136q55 0 82.5 24.5z" />
    <glyph glyph-name="uni0455" unicode="&#x455;" horiz-adv-x="480" 
d="M135 5q-48 15 -75 39l19 62q28 -24 70.5 -40.5t89.5 -16.5q52 0 82 22.5t30 61.5q0 25 -14 40.5t-38 26t-72 25.5t-79.5 30t-52 42.5t-20.5 70.5q0 67 48.5 105.5t128.5 38.5q45 0 84 -12t68 -30l-15 -62q-69 45 -139 45q-48 0 -76.5 -21t-28.5 -57t28.5 -54.5
t87.5 -34.5q77 -22 118 -52.5t41 -93.5q0 -68 -49.5 -109t-135.5 -41q-52 0 -100 15z" />
    <glyph glyph-name="uni0454" unicode="&#x454;" horiz-adv-x="521" 
d="M484 46q-33 -25 -79 -40.5t-101 -15.5q-73 0 -131 33.5t-91 92.5t-33 134q0 77 31 136.5t88 92.5t132 33q94 0 172 -51l-21 -62q-66 49 -149 49q-76 0 -125 -45t-57 -122h293v-58h-293q8 -75 60 -122t127 -47q45 0 86.5 14.5t72.5 38.5z" />
    <glyph glyph-name="uni044D" unicode="&#x44d;" horiz-adv-x="521" 
d="M356 478.5q55 -33.5 86 -93t31 -135.5q0 -75 -32.5 -134t-89.5 -92.5t-126 -33.5q-109 0 -187 52l17 62q73 -50 167 -50q73 0 122.5 46.5t57.5 122.5h-294v58h293q-8 77 -56 122t-121 45q-87 0 -153 -49l-21 62q78 51 179 51q72 0 127 -33.5z" />
    <glyph glyph-name="uni0456" unicode="&#x456;" horiz-adv-x="255" 
d="M93 502h70v-502h-70v502zM91 627.5q-15 15.5 -15 37.5q0 23 15 38t38 15q22 0 37.5 -15t15.5 -38q0 -22 -15.5 -37.5t-37.5 -15.5q-23 0 -38 15.5z" />
    <glyph glyph-name="uni0457" unicode="&#x457;" horiz-adv-x="255" 
d="M93 502h70v-502h-70v502zM7.5 630q-14.5 15 -14.5 36q0 22 14.5 36.5t36.5 14.5q21 0 36 -14.5t15 -36.5q0 -21 -15 -36t-36 -15q-22 0 -36.5 15zM176 630q-15 15 -15 36q0 22 15 36.5t36 14.5q22 0 36.5 -14.5t14.5 -36.5q0 -21 -14.5 -36t-36.5 -15q-21 0 -36 15z" />
    <glyph glyph-name="uni0458" unicode="&#x458;" horiz-adv-x="257" 
d="M-21 -209l10 62q19 -6 39 -6q36 0 50.5 22t14.5 82v551h70v-561q0 -84 -30.5 -122t-91.5 -38q-37 0 -62 10zM91 627.5q-15 15.5 -15 37.5q0 23 15 38t38 15q22 0 37.5 -15t15.5 -38q0 -22 -15.5 -37.5t-37.5 -15.5q-23 0 -38 15.5z" />
    <glyph glyph-name="uni045B" unicode="&#x45b;" horiz-adv-x="615" 
d="M480 456q48 -52 48 -153v-303h-70v285q0 78 -34 118.5t-99 40.5q-46 0 -83 -20.5t-58 -57.5t-21 -83v-283h-70v596h-73v57h73v99h70v-99h169v-57h-169v-190q25 48 72 75t110 27q87 0 135 -52z" />
    <glyph glyph-name="uni044E" unicode="&#x44e;" horiz-adv-x="870" 
d="M694.5 478.5q59.5 -33.5 93 -92.5t33.5 -135t-33.5 -135t-93 -92.5t-136.5 -33.5q-72 0 -129 29.5t-92 82.5t-41 121h-133v-223h-70v502h70v-218h134q7 67 41.5 119t91.5 80.5t128 28.5q77 0 136.5 -33.5zM658 81.5q44 24.5 68 68.5t24 101t-24.5 101t-68 68.5
t-99.5 24.5t-99.5 -24.5t-67.5 -68.5t-24 -100q0 -58 24.5 -102t67.5 -68.5t99 -24.5t100 24.5z" />
    <glyph glyph-name="uni044F" unicode="&#x44f;" horiz-adv-x="531" 
d="M439 503v-502h-70v211h-123l-134 -212h-79l144 218q-54 12 -84 47.5t-30 91.5q0 71 47.5 108.5t124.5 37.5h204zM369 448h-124q-54 0 -82 -24t-28 -69q0 -43 27.5 -66t80.5 -23h126v182z" />
    <glyph glyph-name="uni0452" unicode="&#x452;" horiz-adv-x="615" 
d="M480 456q48 -52 48 -153v-362q0 -85 -30 -122.5t-91 -37.5q-37 0 -62 10l11 62q18 -6 39 -6q35 0 49 21.5t14 82.5v334q0 78 -34 118.5t-99 40.5q-46 0 -83 -20.5t-58 -57.5t-21 -83v-283h-70v596h-73v57h73v99h70v-99h169v-57h-169v-190q25 48 72 75t110 27
q87 0 135 -52z" />
    <glyph glyph-name="uni0493" unicode="&#x493;" horiz-adv-x="419" 
d="M163 441v-170h166v-58h-166v-213h-70v213h-82v58h82v231h297v-61h-227z" />
    <glyph glyph-name="uni0497" unicode="&#x497;" horiz-adv-x="795" 
d="M766 61v-207h-66v146h-46l-218 234h-25v-234h-69v234h-26l-217 -234h-88l248 265l-238 237h85l208 -212h28v212h69v-212h28l208 212h85l-238 -237l190 -204h82z" />
    <glyph glyph-name="uni049B" unicode="&#x49b;" horiz-adv-x="538" 
d="M515 61v-207h-66v146h-45l-218 234h-25v-234h-68v502h68v-212h28l208 212h85l-238 -237l191 -204h80z" />
    <glyph glyph-name="uni049D" unicode="&#x49d;" horiz-adv-x="534" 
d="M288 234h-12v-129h-52v129h-63v-234h-68v502h68v-212h63v117h52v-117h13l149 212h76l-171 -237l181 -265h-79z" />
    <glyph glyph-name="uni04A3" unicode="&#x4a3;" horiz-adv-x="630" 
d="M601 61v-207h-66v146h-83v223h-289v-223h-70v502h70v-218h289v218h70v-441h79z" />
    <glyph glyph-name="uni04AF" unicode="&#x4af;" horiz-adv-x="488" 
d="M279 10v-220h-70v222l-205 490h77l163 -410l165 410h75z" />
    <glyph glyph-name="uni04B3" unicode="&#x4b3;" horiz-adv-x="552" 
d="M529 61v-207h-66v146h-49l-156 209l-157 -209h-83l199 259l-187 243h86l143 -193l144 193h83l-186 -242l151 -199h78z" />
    <glyph glyph-name="uni04B9" unicode="&#x4b9;" horiz-adv-x="594" 
d="M503 502v-502h-70v199q-56 -33 -119 -41v-109h-52v107q-85 2 -136 52t-51 145v149h70v-133q0 -138 117 -151v133h52v-133q66 7 119 41v243h70z" />
    <glyph glyph-name="uni04BB" unicode="&#x4bb;" horiz-adv-x="615" 
d="M480 461q48 -52 48 -153v-308h-70v290q0 78 -34 118.5t-99 40.5q-46 0 -83 -20.5t-58 -57.5t-21 -83v-288h-70v752h70v-341q25 48 72 75t110 27q87 0 135 -52z" />
    <glyph glyph-name="uni04CF" unicode="&#x4cf;" horiz-adv-x="250" 
d="M90 752h70v-752h-70v752z" />
    </font>
</defs>
</svg>
